# SSTK version 0.8.0
# 28
mtllib original-28.mtl
o mesh28/mesh28-geometry#mesh28-geometry
v 0.337072 -0.064557 -0.148626
v 0.254206 -0.060866 -0.164725
v 0.331013 -0.038965 -0.155345
v 0.251414 -0.062740 -0.159803
v 0.180094 -0.070608 -0.180671
v 0.130334 -0.098912 -0.184850
v 0.091803 -0.111092 -0.183116
v 0.034917 -0.086217 -0.195940
v -0.006418 -0.111507 -0.191906
v -0.110822 -0.109384 -0.182817
v -0.114549 -0.080911 -0.191433
v -0.126614 -0.099968 -0.186204
v -0.257221 -0.064476 -0.159940
v -0.329887 -0.042692 -0.154690
v -0.343694 -0.063957 -0.149542
vn 0.17740607939651196 -0.21041109416761256 -0.9613814302577031
vn 0.22178194104493423 -0.3338349112585134 -0.9161697564596649
vn 0.21382395422189998 -0.36112492268587076 -0.9076718056742948
vn -0.21382395422189998 0.36112492268587076 0.9076718056742948
vn -0.22178194104493423 0.3338349112585134 0.9161697564596649
vn -0.17740607939651196 0.21041109416761256 0.9613814302577031
vn 0.024867009726061345 -0.9389213672338136 -0.34323213424600824
vn 0.2160110599186682 -0.9560892652067698 -0.19807205494262073
vn 0.17239404173548198 -0.949151229783371 -0.2634240637732613
vn -0.17239404173548198 0.949151229783371 0.2634240637732613
vn -0.2160110599186682 0.9560892652067698 0.19807205494262073
vn -0.024867009726061345 0.9389213672338136 0.34323213424600824
vn 0.2012990049991602 -0.2817670069975428 -0.9381290232979654
vn -0.2012990049991602 0.2817670069975428 0.9381290232979654
vn 0.3070549865893738 -0.9439579587726371 -0.12108099471178768
vn -0.3070549865893738 0.9439579587726371 0.12108099471178768
vn 0.12750703266099433 -0.2512950643693646 -0.9594752457700952
vn -0.12750703266099433 0.2512950643693646 0.9594752457700952
vn 0.2980650707315949 -0.9522892259806409 -0.06559301556538842
vn -0.2980650707315949 0.9522892259806409 0.06559301556538842
vn 0.050503003739697065 -0.14241301054554142 -0.9885180731987776
vn -0.050503003739697065 0.14241301054554142 0.9885180731987776
vn 0.08355395448391215 -0.39458078505178135 -0.915054501523281
vn -0.005899002062778149 -0.2952451032420639 -0.9554033340878848
vn 0.005899002062778149 0.2952451032420639 0.9554033340878848
vn -0.08355395448391215 0.39458078505178135 0.915054501523281
vn -0.008146997635990113 -0.9904267126084177 0.13779896001495048
vn 0.008146997635990113 0.9904267126084177 -0.13779896001495048
vn -0.0979119802537992 -0.15814896810562637 -0.9825488018464554
vn 0.0979119802537992 0.15814896810562637 0.9825488018464554
vn -0.20917411337679281 -0.6221813372354419 -0.7544114089069371
vn -0.2132009897743478 -0.5577899732469991 -0.8021319615277467
vn 0.2132009897743478 0.5577899732469991 0.8021319615277467
vn 0.20917411337679281 0.6221813372354419 0.7544114089069371
vn -0.3145400171320516 -0.859765046828824 -0.40232902191365544
vn 0.3145400171320516 0.859765046828824 0.40232902191365544
vn -0.1914018935553117 -0.14519191925414998 -0.970713460155332
vn 0.1914018935553117 0.14519191925414998 0.970713460155332
vn -0.29461808586056126 -0.9337402721199671 -0.20329605924657917
vn 0.29461808586056126 0.9337402721199671 0.20329605924657917
vn -0.11878498991931227 -0.16009198641379416 -0.979928916838336
vn 0.11878498991931227 0.16009198641379416 0.979928916838336
usemtl material_0_0
f 1//1 2//2 3//3
f 3//4 2//5 1//6
f 1//7 4//8 2//9
f 2//10 4//11 1//12
f 3//3 2//2 5//13
f 5//14 2//5 3//4
f 4//8 6//15 2//9
f 2//10 6//16 4//11
f 2//2 6//17 5//13
f 5//14 6//18 2//5
f 4//8 7//19 6//15
f 6//16 7//20 4//11
f 5//13 6//17 8//21
f 8//22 6//18 5//14
f 6//17 7//23 9//24
f 9//25 7//26 6//18
f 6//17 9//24 8//21
f 8//22 9//25 6//18
f 10//27 9//27 7//27
f 7//28 9//28 10//28
f 8//21 9//24 11//29
f 11//30 9//25 8//22
f 9//24 10//31 12//32
f 12//33 10//34 9//25
f 9//24 12//32 11//29
f 11//30 12//33 9//25
f 13//35 12//32 10//31
f 10//34 12//33 13//36
f 11//29 12//32 14//37
f 14//38 12//33 11//30
f 14//39 12//32 13//35
f 13//36 12//33 14//40
f 13//41 15//41 14//41
f 14//42 15//42 13//42
