# SSTK version 0.8.0
# 5
mtllib original-5.mtl
o mesh5/mesh5-geometry#mesh5-geometry
v 0.369772 -0.730559 -0.301603
v 0.371658 -0.741314 -0.232454
v 0.373009 -0.753678 -0.282912
v 0.371317 -0.702288 -0.228821
v 0.390904 -0.757307 -0.258871
v 0.390924 -0.749251 -0.290680
v 0.390916 -0.706516 -0.226912
v 0.370504 -0.679935 -0.255879
v 0.390916 -0.739109 -0.231691
v 0.390916 -0.720142 -0.306059
v 0.390924 -0.681243 -0.248010
v 0.370719 -0.705194 -0.302509
v 0.390453 -0.681017 -0.288210
v 0.374632 -0.681230 -0.283170
vn 0.9995488704494789 0.028980996243802303 -0.007883998978162844
vn 0.9972375123403774 0.07255403727533548 -0.015914008175974985
vn 0.9910010351949068 0.1337090047486085 -0.00623300022136189
vn -0.9910010351949068 -0.1337090047486085 0.00623300022136189
vn -0.9972375123403774 -0.07255403727533548 0.015914008175974985
vn -0.9995488704494789 -0.028980996243802303 0.007883998978162844
vn 0.9996505043479118 0.00919099544287122 -0.024786987709982472
vn -0.9996505043479118 -0.00919099544287122 0.024786987709982472
vn 0.19733308273181366 0.8956863755161439 -0.3985041670727079
vn 0.44743788540848767 0.8713117768518548 -0.20153194838646546
vn -0.44743788540848767 -0.8713117768518548 0.20153194838646546
vn -0.19733308273181366 -0.8956863755161439 0.3985041670727079
vn -0.0018600002318434636 0.7386750920736399 0.6740590840194479
vn 0.11144197881081422 0.3932499252288427 0.9126528264714024
vn 0.0204890102692277 0.8475754248104187 0.5302792657794814
vn -0.0204890102692277 -0.8475754248104187 -0.5302792657794814
vn -0.11144197881081422 -0.3932499252288427 -0.9126528264714024
vn 0.0018600002318434636 -0.7386750920736399 -0.6740590840194479
vn 0.06961802446294267 0.11921804189179667 -0.9904243480232919
vn 0.11642501669971454 0.09306001334829664 -0.9888301418353337
vn -0.11642501669971454 -0.09306001334829664 0.9888301418353337
vn -0.06961802446294267 -0.11921804189179667 0.9904243480232919
vn 0.9931123561778241 -0.10455203749738587 0.05288401896675104
vn -0.9931123561778241 0.10455203749738587 -0.05288401896675104
vn -0.07288802175543775 0.8287512473636373 -0.5548501656103149
vn 0.07288802175543775 -0.8287512473636373 0.5548501656103149
vn -0.13196295084024695 0.9609376420248497 0.2432789093720546
vn 0.13196295084024695 -0.9609376420248497 -0.2432789093720546
vn 0.0008599999140722529 0.02985399701710818 0.9995539001285776
vn -0.0008599999140722529 -0.02985399701710818 -0.9995539001285776
vn 0.0226110062101024 0.14503403983353197 -0.9891682716746085
vn -0.0226110062101024 -0.14503403983353197 0.9891682716746085
vn 0.06608698653606657 -0.7051958563301102 -0.705925856181387
vn -0.06331099492543403 -0.639542948738716 -0.7661439385912673
vn -0.06608698653606657 0.7051958563301102 0.705925856181387
vn 0.06331099492543403 0.639542948738716 0.7661439385912673
vn 0.1938550083642622 -0.7534450325088934 -0.6282840271085713
vn -0.1938550083642622 0.7534450325088934 0.6282840271085713
vn 0.9828316115486592 -0.16029493664552263 0.09136496388919291
vn -0.9828316115486592 0.16029493664552263 -0.09136496388919291
vn 0.10239505371574249 -0.36054218913795816 0.9271054863531758
vn -0.10239505371574249 0.36054218913795816 -0.9271054863531758
vn -0.06204197761885694 -0.9980616399573128 -0.004873998241744443
vn -0.016066994912700173 -0.9995936834982023 0.02354399254525505
vn 0.016066994912700173 0.9995936834982023 -0.02354399254525505
vn 0.06204197761885694 0.9980616399573128 0.004873998241744443
vn 0.9468687802265737 -0.280944934791143 0.1565549636627361
vn -0.9468687802265737 0.280944934791143 -0.1565549636627361
vn 0.04935702403021335 -0.5379752619213897 0.8415144097040128
vn -0.04935702403021335 0.5379752619213897 -0.8415144097040128
vn 0.0299540081091352 -0.9982032702331268 0.051894014048723444
vn -0.0299540081091352 0.9982032702331268 -0.051894014048723444
vn 0.2427250082863892 -0.6329210216072911 0.7351840250984479
vn -0.2427250082863892 0.6329210216072911 -0.7351840250984479
usemtl material_0_0
f 1//1 2//2 3//3
f 3//4 2//5 1//6
f 4//7 2//2 1//1
f 1//6 2//5 4//8
f 2//9 5//9 3//10
f 3//11 5//12 2//12
f 6//13 1//14 3//15
f 3//16 1//17 6//18
f 7//19 2//19 4//20
f 4//21 2//22 7//22
f 8//23 4//7 1//1
f 1//6 4//8 8//24
f 9//25 5//9 2//9
f 2//12 5//12 9//26
f 5//27 6//13 3//15
f 3//16 6//18 5//28
f 6//13 10//29 1//14
f 1//17 10//30 6//18
f 9//31 2//19 7//19
f 7//22 2//22 9//32
f 11//33 7//34 4//33
f 4//35 7//36 11//35
f 4//33 8//37 11//33
f 11//35 8//38 4//35
f 8//23 1//1 12//39
f 12//40 1//6 8//24
f 10//29 12//41 1//14
f 1//17 12//42 10//30
f 11//43 8//44 13//44
f 13//45 8//45 11//46
f 8//23 12//39 14//47
f 14//48 12//40 8//24
f 10//29 13//49 12//41
f 12//42 13//50 10//30
f 8//44 14//51 13//44
f 13//45 14//52 8//45
f 13//49 14//53 12//41
f 12//42 14//54 13//50
