# SSTK version 0.8.0
# 25
mtllib original-25.mtl
o mesh25/mesh25-geometry#mesh25-geometry
v -0.358079 -0.026962 -0.131847
v -0.340217 -0.030995 -0.153012
v -0.343694 -0.063957 -0.149542
v -0.351636 -0.070697 -0.130113
vn -0.8397559560954604 -0.06889799639784061 -0.5385749718419549
vn -0.7629927118932434 0.012471995290562995 -0.6462867559615206
vn 0.8397559560954604 0.06889799639784061 0.5385749718419549
vn 0.7629927118932434 -0.012471995290562995 0.6462867559615206
vn -0.8962681852205615 -0.14860603071055395 -0.4178750863570295
vn 0.8962681852205615 0.14860603071055395 0.4178750863570295
usemtl material_0_0
f 1//1 2//2 3//1
f 3//3 2//4 1//3
f 1//1 3//1 4//5
f 4//6 3//3 1//3
