# SSTK version 0.8.0
# 11
mtllib original-11.mtl
o mesh11/mesh11-geometry#mesh11-geometry
v -0.376754 -0.730559 -0.301603
v -0.378639 -0.741314 -0.232454
v -0.379990 -0.753678 -0.282912
v -0.378298 -0.702288 -0.228821
v -0.397884 -0.757307 -0.258871
v -0.397905 -0.749251 -0.290680
v -0.397898 -0.706516 -0.226912
v -0.377485 -0.679935 -0.255879
v -0.397898 -0.739109 -0.231691
v -0.397898 -0.720142 -0.306059
v -0.397906 -0.681243 -0.248010
v -0.377700 -0.705194 -0.302509
v -0.397435 -0.681016 -0.288206
v -0.381613 -0.681230 -0.283170
vn 0.9995487624497683 -0.02898499311149982 0.007882998126546595
vn 0.9972374399862419 -0.07255503201164996 0.01591400702134102
vn 0.9910007763579071 -0.1337109698250477 0.00623199859360634
vn -0.9910007763579071 0.1337109698250477 -0.00623199859360634
vn -0.9972374399862419 0.07255503201164996 -0.01591400702134102
vn -0.9995487624497683 0.02898499311149982 -0.007882998126546595
vn 0.9996503989455591 -0.009197003670386943 0.024789009892923985
vn -0.9996503989455591 0.009197003670386943 -0.024789009892923985
vn 0.19736395618579866 -0.8956828011611272 0.3984969115348909
vn 0.4474821647877987 -0.8712913208578802 0.20152207421162588
vn -0.4474821647877987 0.8712913208578802 -0.20152207421162588
vn -0.19736395618579866 0.8956828011611272 -0.3984969115348909
vn 0.11144598701537309 -0.39325095418213735 -0.9126518936664777
vn 0.02049800872022373 -0.8475783605751678 -0.5302742255882485
vn -0.0018539998923419376 -0.7386779571064497 -0.6740559608589196
vn 0.0018539998923419376 0.7386779571064497 0.6740559608589196
vn -0.02049800872022373 0.8475783605751678 0.5302742255882485
vn -0.11144598701537309 0.39325095418213735 0.9126518936664777
vn 0.11640901684549185 -0.09308001346956318 0.988830143093126
vn 0.06962000072011447 -0.11922800123323482 0.9904230102444405
vn -0.06962000072011447 0.11922800123323482 -0.9904230102444405
vn -0.11640901684549185 0.09308001346956318 -0.988830143093126
vn 0.9931118321556731 0.10455298232965878 -0.05289199106080469
vn -0.9931118321556731 -0.10455298232965878 0.05289199106080469
vn -0.0728760261170234 -0.8287562970064198 0.5548441988428802
vn 0.0728760261170234 0.8287562970064198 -0.5548441988428802
vn -0.13195601173979699 -0.9609400854924408 -0.24327302164339348
vn 0.13195601173979699 0.9609400854924408 0.24327302164339348
vn 0.0008419996148366264 -0.029832986353231682 -0.9995545427648742
vn -0.0008419996148366264 0.029832986353231682 0.9995545427648742
vn 0.06608698687053267 0.7052028598977145 0.7059188597554671
vn -0.06332701978520054 0.6395421998115611 0.7661432393654035
vn 0.06332701978520054 -0.6395421998115611 -0.7661432393654035
vn -0.06608698687053267 -0.7052028598977145 -0.7059188597554671
vn 0.022630995976876882 -0.14503397421724015 0.9891678241551569
vn -0.022630995976876882 0.14503397421724015 -0.9891678241551569
vn 0.1938689703370805 0.7534548847176442 0.6282679038718768
vn -0.1938689703370805 -0.7534548847176442 -0.6282679038718768
vn 0.9828291493477802 0.16030202435901655 -0.09137901388568186
vn -0.9828291493477802 -0.16030202435901655 0.09137901388568186
vn 0.10232697533403441 0.36056591308541686 -0.9271037765211981
vn -0.10232697533403441 -0.36056591308541686 0.9271037765211981
vn -0.06202802178846298 0.9980623505874272 0.004906001723321715
vn -0.016027992707545468 0.9995945452020785 -0.023533989292449153
vn 0.016027992707545468 -0.9995945452020785 0.023533989292449153
vn 0.06202802178846298 -0.9980623505874272 -0.004906001723321715
vn 0.9468616633651733 0.2809589001115429 -0.1565729443341007
vn -0.9468616633651733 -0.2809589001115429 0.1565729443341007
vn 0.04925797838604715 0.538002763929281 -0.8415026307563003
vn -0.04925797838604715 -0.538002763929281 0.8415026307563003
vn 0.030018990850243007 0.9982006957494727 -0.05190598417911035
vn -0.030018990850243007 -0.9982006957494727 0.05190598417911035
vn 0.24258603134454315 0.6329300817809012 -0.7352220949980531
vn -0.24258603134454315 -0.6329300817809012 0.7352220949980531
usemtl material_0_0
f 1//1 2//2 3//3
f 3//4 2//5 1//6
f 4//7 2//2 1//1
f 1//6 2//5 4//8
f 2//9 5//9 3//10
f 3//11 5//12 2//12
f 1//13 3//14 6//15
f 6//16 3//17 1//18
f 4//19 7//20 2//20
f 2//21 7//21 4//22
f 8//23 4//7 1//1
f 1//6 4//8 8//24
f 9//25 5//9 2//9
f 2//12 5//12 9//26
f 5//27 6//15 3//14
f 3//17 6//16 5//28
f 1//13 6//15 10//29
f 10//30 6//16 1//18
f 4//31 11//31 7//32
f 7//33 11//34 4//34
f 2//20 7//20 9//35
f 9//36 7//21 2//21
f 4//31 8//37 11//31
f 11//34 8//38 4//34
f 8//23 1//1 12//39
f 12//40 1//6 8//24
f 1//13 10//29 12//41
f 12//42 10//30 1//18
f 11//43 8//44 13//44
f 13//45 8//45 11//46
f 8//23 12//39 14//47
f 14//48 12//40 8//24
f 12//41 10//29 13//49
f 13//50 10//30 12//42
f 8//44 14//51 13//44
f 13//45 14//52 8//45
f 12//41 13//49 14//53
f 14//54 13//50 12//42
