mtllib new-9.mtl
v 0.215480 0.143070 -0.129460
v 0.071235 0.144593 -0.161926
v 0.137484 0.122775 -0.149606
v 0.183518 0.179049 -0.138991
v 0.068595 -0.037982 -0.177119
v 0.171463 -0.036644 -0.157598
v 0.021846 0.172183 -0.170536
v -0.001129 -0.037752 -0.182784
v -0.000359 0.151293 -0.167871
v -0.078394 0.149113 -0.160608
v -0.075213 -0.038763 -0.176453
v -0.104941 0.173621 -0.158819
v -0.208910 0.155032 -0.129775
v -0.208025 -0.032837 -0.150239
v -0.211246 0.183154 -0.132494
v 0.311570 0.583891 -0.230783
v 0.284333 0.433903 -0.205622
v 0.292142 0.639801 -0.249599
v 0.291579 0.521578 -0.220022
v 0.288213 0.567964 -0.223477
v 0.292312 0.565861 -0.228995
v 0.147851 0.638230 -0.254757
v -0.054971 0.655490 -0.266082
v 0.044468 0.515720 -0.247307
v -0.147590 0.658790 -0.261455
v 0.239860 0.580514 -0.226142
v 0.139702 0.511268 -0.237117
v -0.140922 0.516989 -0.238630
v -0.049670 0.511707 -0.246296
v 0.045066 0.358476 -0.203932
v 0.323060 0.594213 -0.197948
v -0.239903 0.665450 -0.248917
v -0.239397 0.603774 -0.233686
v -0.046537 0.364197 -0.205412
v 0.232953 0.512287 -0.213338
v 0.130299 0.342924 -0.189582
v -0.237122 0.534926 -0.218971
v -0.135696 0.340918 -0.188310
v -0.044116 0.241969 -0.179039
v 0.042391 0.241982 -0.179008
v 0.316804 0.498613 -0.168415
v -0.327106 0.627134 -0.209499
v -0.323425 0.563230 -0.188014
v -0.229659 0.412855 -0.184531
v -0.128873 0.237965 -0.164824
v 0.220883 0.342827 -0.165751
v 0.127785 0.238609 -0.164579
v -0.225103 0.333678 -0.162945
v -0.219213 0.253198 -0.144638
v -0.122433 0.174814 -0.154621
v -0.041924 0.172614 -0.168193
v 0.039667 0.172614 -0.168197
v -0.201444 0.181748 -0.135005
v 0.192651 0.181103 -0.136028
v 0.120177 0.174814 -0.154621
vn -0.267550 0.188798 0.944866
vn -0.298645 0.325050 0.897304
vn 0.198837 0.072168 -0.977372
vn -0.198837 -0.072168 0.977372
vn 0.298645 -0.325050 -0.897304
vn 0.267550 -0.188798 -0.944866
vn -0.222726 0.031272 0.974379
vn 0.222726 -0.031272 -0.974379
vn 0.157800 0.082817 -0.983992
vn -0.157800 -0.082817 0.983992
vn 0.186105 0.104287 -0.976980
vn -0.186105 -0.104287 0.976980
vn -0.017488 0.054331 0.998370
vn 0.017488 -0.054331 -0.998370
vn 0.028347 0.079645 -0.996420
vn -0.028347 -0.079645 0.996420
vn -0.056383 0.416281 -0.907486
vn 0.056383 -0.416281 0.907486
vn -0.175813 0.984360 0.011193
vn 0.175813 -0.984360 -0.011193
vn -0.123545 0.080122 -0.989099
vn 0.123545 -0.080122 0.989099
vn 0.192431 0.108713 0.975270
vn -0.192431 -0.108713 -0.975270
vn 0.251675 0.965444 -0.067651
vn -0.251675 -0.965444 0.067651
vn -0.184440 0.096867 -0.978059
vn 0.184440 -0.096867 0.978059
vn 0.246602 0.113474 0.962451
vn -0.246602 -0.113474 -0.962451
vn -0.192055 0.227641 0.954617
vn 0.192055 -0.227641 -0.954617
vn 0.024178 0.151293 0.988193
vn -0.024178 -0.151293 -0.988193
vn -0.099171 0.200141 0.974735
vn 0.099171 -0.200141 -0.974735
vn -0.915248 0.066661 -0.397337
vn 0.915248 -0.066661 0.397337
vn -0.859094 -0.095313 -0.502864
vn 0.859094 0.095313 0.502864
vn -0.817014 -0.104795 -0.567015
vn 0.817014 0.104795 0.567015
vn -0.821289 -0.154761 -0.549121
vn 0.821289 0.154761 0.549121
vn -0.138525 0.172503 0.975220
vn 0.138525 -0.172503 -0.975220
vn 0.033170 0.190956 0.981038
vn -0.033170 -0.190956 -0.981038
vn -0.038947 0.192078 0.980607
vn 0.038947 -0.192078 -0.980607
vn 0.107765 0.235841 0.965798
vn -0.107765 -0.235841 -0.965798
vn -0.268859 0.210255 0.939951
vn 0.268859 -0.210255 -0.939951
vn -0.165983 0.219214 0.961455
vn 0.165983 -0.219214 -0.961455
vn 0.166126 0.215589 0.962249
vn -0.166126 -0.215589 -0.962249
vn 0.061140 0.218021 0.974027
vn -0.061140 -0.218021 -0.974027
vn -0.054718 0.239913 0.969251
vn 0.054718 -0.239913 -0.969251
vn -0.370470 0.274774 0.887272
vn 0.370470 -0.274774 -0.887272
vn 0.206229 0.275191 0.939010
vn -0.206229 -0.275191 -0.939010
vn 0.269506 0.228872 0.935406
vn -0.269506 -0.228872 -0.935406
vn 0.064915 0.242515 0.967973
vn -0.064915 -0.242515 -0.967973
vn -0.319045 0.256130 0.912473
vn 0.319045 -0.256130 -0.912473
vn -0.187081 0.251530 0.949596
vn 0.187081 -0.251530 -0.949596
vn 0.339505 0.253040 0.905929
vn -0.339505 -0.253040 -0.905929
vn 0.189319 0.254459 0.948372
vn -0.189319 -0.254459 -0.948372
vn 0.078957 0.186682 0.979242
vn -0.078957 -0.186682 -0.979242
vn -0.087651 0.193756 0.977126
vn 0.087651 -0.193756 -0.977126
vn -0.391403 0.263998 0.881538
vn 0.391403 -0.263998 -0.881538
vn 0.291309 0.297116 0.909319
vn -0.291309 -0.297116 -0.909319
vn 0.376099 0.273557 0.885278
vn -0.376099 -0.273557 -0.885278
vn 0.322182 0.266381 0.908427
vn -0.322182 -0.266381 -0.908427
vn 0.196631 0.202394 0.959361
vn -0.196631 -0.202394 -0.959361
vn -0.303845 0.242190 0.921424
vn 0.303845 -0.242190 -0.921424
vn -0.202654 0.198362 0.958949
vn 0.202654 -0.198362 -0.958949
vn 0.306770 0.237363 0.921711
vn -0.306770 -0.237363 -0.921711
vn 0.266721 0.208290 0.940997
vn -0.266721 -0.208290 -0.940997
vn 0.191909 0.170100 0.966559
vn -0.191909 -0.170100 -0.966559
vn 0.084387 0.156429 0.984078
vn -0.084387 -0.156429 -0.984078
vn -0.109326 0.161812 0.980747
vn 0.109326 -0.161812 -0.980747
vn 0.251987 0.186852 0.949520
vn -0.251987 -0.186852 -0.949520
vn -0.269584 0.197768 0.942450
vn 0.269584 -0.197768 -0.942450
vn -0.213932 0.175507 0.960953
vn 0.213932 -0.175507 -0.960953
usemtl material-1
f 1//1 2//2 3//3
f 3//4 2//5 1//6
f 1//1 4//7 2//2
f 2//5 4//8 1//6
f 3//3 5//9 2//2
f 2//5 5//10 3//4
f 1//1 6//11 3//3
f 3//4 6//12 1//6
f 4//7 7//13 2//2
f 2//5 7//14 4//8
f 6//11 5//9 3//3
f 3//4 5//10 6//12
f 2//2 5//9 8//15
f 8//16 5//10 2//5
f 2//2 7//13 9//17
f 9//18 7//14 2//5
f 2//2 8//15 9//17
f 9//18 8//16 2//5
f 7//13 10//19 9//17
f 9//18 10//20 7//14
f 9//17 8//15 11//21
f 11//22 8//16 9//18
f 7//13 12//23 10//19
f 10//20 12//24 7//14
f 9//17 11//21 10//19
f 10//20 11//22 9//18
f 10//19 12//23 13//25
f 13//26 12//24 10//20
f 11//21 14//27 10//19
f 10//20 14//28 11//22
f 12//23 15//29 13//25
f 13//26 15//30 12//24
f 10//19 14//27 13//25
f 13//26 14//28 10//20
usemtl material-2
f 16//31 19//35 17//33
f 17//34 19//36 16//32
f 20//39 21//41 17//37
f 17//38 21//42 20//40
f 18//43 21//41 20//39
f 20//40 21//42 18//44
usemtl material-3
f 22//45 24//49 27//55
f 27//56 24//50 22//46
f 24//49 23//47 29//59
f 29//60 23//48 24//50
f 26//53 22//45 27//55
f 27//56 22//46 26//54
f 27//55 24//49 30//61
f 30//62 24//50 27//56
f 28//57 25//51 33//67
f 33//68 25//52 28//58
f 29//59 23//47 28//57
f 28//58 23//48 29//60
f 24//49 29//59 34//69
f 34//70 29//60 24//50
f 26//53 27//55 35//71
f 35//72 27//56 26//54
f 30//61 24//49 34//69
f 34//70 24//50 30//62
f 27//55 30//61 36//73
f 36//74 30//62 27//56
f 31//63 26//53 35//71
f 35//72 26//54 31//64
f 28//57 33//67 37//75
f 37//76 33//68 28//58
f 29//59 28//57 38//77
f 38//78 28//58 29//60
f 34//69 29//59 38//77
f 38//78 29//60 34//70
f 35//71 27//55 36//73
f 36//74 27//56 35//72
f 30//61 34//69 39//79
f 39//80 34//70 30//62
f 36//73 30//61 40//81
f 40//82 30//62 36//74
f 31//63 35//71 41//83
f 41//84 35//72 31//64
f 33//67 32//65 42//85
f 42//86 32//66 33//68
f 37//75 33//67 43//87
f 43//88 33//68 37//76
f 28//57 37//75 44//89
f 44//90 37//76 28//58
f 38//77 28//57 44//89
f 44//90 28//58 38//78
f 34//69 38//77 45//91
f 45//92 38//78 34//70
f 35//71 36//73 46//93
f 46//94 36//74 35//72
f 39//79 34//69 45//91
f 45//92 34//70 39//80
f 30//61 39//79 40//81
f 40//82 39//80 30//62
f 36//73 40//81 47//95
f 47//96 40//82 36//74
f 38//77 44//89 48//97
f 48//98 44//90 38//78
f 45//91 38//77 49//99
f 49//100 38//78 45//92
f 46//93 36//73 47//95
f 47//96 36//74 46//94
f 39//79 45//91 50//101
f 50//102 45//92 39//80
f 51//103 40//81 39//79
f 39//80 40//82 51//104
f 47//95 40//81 52//105
f 52//106 40//82 47//96
f 38//77 48//97 49//99
f 49//100 48//98 38//78
f 45//91 49//99 53//107
f 53//108 49//100 45//92
f 46//93 47//95 54//109
f 54//110 47//96 46//94
f 50//101 45//91 53//107
f 53//108 45//92 50//102
f 51//103 39//79 50//101
f 50//102 39//80 51//104
f 40//81 51//103 52//105
f 52//106 51//104 40//82
f 47//95 52//105 55//111
f 55//112 52//106 47//96
f 54//109 47//95 55//111
f 55//112 47//96 54//110