mtllib new-6.mtl
v -0.321910 0.261095 -0.142005
v -0.304512 0.258819 -0.161533
v -0.313168 0.166393 -0.164596
v -0.350034 0.453061 -0.179403
v -0.290435 0.166933 -0.178192
v -0.313168 0.165837 -0.160842
v -0.323290 0.423778 -0.193713
v -0.344221 0.417690 -0.153363
v -0.281168 -0.024243 -0.212887
v -0.278093 0.260330 -0.179516
v -0.290399 -0.032273 -0.215216
v -0.313584 0.174826 -0.154351
v -0.346791 0.611336 -0.224866
v -0.320295 0.255096 -0.131847
v -0.350242 0.579616 -0.195635
v -0.255022 0.169439 -0.187181
v -0.300747 -0.045004 -0.215326
v -0.350734 0.712786 -0.248058
v -0.318552 0.583891 -0.230783
v -0.316258 0.261059 -0.127049
v -0.346878 0.617565 -0.206115
v -0.253409 -0.032273 -0.215216
v -0.252110 0.261526 -0.187394
v -0.244838 -0.068932 -0.209497
v -0.312678 -0.050669 -0.201492
v -0.313168 0.163605 -0.145828
v -0.347253 0.733963 -0.274387
v -0.323984 0.695244 -0.268272
v -0.291315 0.433903 -0.205622
v -0.313167 0.163049 -0.142074
v -0.230640 0.169738 -0.187118
v -0.273617 0.344910 -0.193618
v -0.299239 -0.098816 -0.190879
v -0.310163 -0.045302 -0.182781
v -0.299124 0.639801 -0.249599
v -0.298561 0.521578 -0.220022
v -0.230640 0.168621 -0.179611
v -0.244775 -0.106289 -0.181914
v -0.242025 -0.032720 -0.212199
v -0.300153 -0.046825 -0.173148
v -0.290399 -0.038957 -0.170172
v -0.301591 0.733238 -0.288275
v -0.262292 0.301546 -0.190017
v -0.296776 -0.123409 -0.148108
v -0.231419 -0.052567 -0.201042
v -0.297827 -0.071374 -0.154786
v -0.230640 0.163049 -0.142074
v -0.230607 0.167755 -0.171994
v -0.263450 0.333686 -0.178320
v -0.245302 -0.123550 -0.145468
v -0.245533 -0.048461 -0.171702
v -0.253409 -0.038957 -0.170172
v -0.233652 -0.045645 -0.182683
v -0.246502 -0.077530 -0.147279
v -0.230640 0.164165 -0.149581
v -0.287727 0.434991 -0.194747
v -0.297138 -0.123787 0.057852
v -0.262977 0.301458 -0.161098
v -0.295195 0.567964 -0.223477
v -0.245189 -0.124194 0.057763
v -0.299294 0.565861 -0.228995
v -0.294591 0.434459 -0.184329
v -0.297736 0.568758 -0.219602
v -0.297269 0.696106 -0.262671
v -0.306660 0.702714 -0.251639
v -0.208910 0.155032 -0.129775
v -0.208025 -0.032837 -0.150239
v -0.211246 0.183154 -0.132494
v -0.278976 0.178347 -0.114711
v -0.281029 -0.023111 -0.138868
v -0.279380 0.197981 -0.116914
v -0.293716 0.178605 -0.117935
v -0.302032 -0.022659 -0.148962
v -0.311924 0.158037 -0.144881
v -0.310039 -0.020455 -0.165909
v -0.303659 0.173767 -0.151240
v -0.317458 0.184830 -0.146344
v -0.239397 0.603774 -0.233686
v -0.236306 0.716771 -0.266766
v -0.237122 0.534926 -0.218971
v -0.327106 0.627134 -0.209499
v -0.323425 0.563230 -0.188014
v -0.229659 0.412855 -0.184531
v -0.327865 0.728137 -0.247192
v -0.319674 0.506248 -0.170228
v -0.225103 0.333678 -0.162945
v -0.219213 0.253198 -0.144638
v -0.309585 0.402215 -0.146453
v -0.201444 0.181748 -0.135005
v -0.299304 0.315656 -0.132496
v -0.279380 0.197981 -0.116914
v -0.335061 0.748624 -0.262705
v -0.280027 0.743580 -0.270491
v -0.312825 0.737609 -0.286357
v -0.304325 0.352751 -0.137672
v -0.319674 0.506248 -0.170228
v -0.323819 0.404826 -0.142905
v -0.344920 0.432360 -0.152559
v -0.296167 0.196260 -0.116475
v -0.361401 0.510446 -0.177226
v -0.334094 0.340088 -0.138891
v -0.279380 0.197981 -0.116914
v -0.355681 0.407803 -0.163237
v -0.314924 0.190906 -0.130399
v -0.360299 0.422912 -0.178840
v -0.365133 0.502138 -0.202378
v -0.338631 0.293782 -0.161169
v -0.317458 0.184830 -0.146344
v -0.156463 0.724128 -0.285277
v -0.327865 0.728137 -0.247192
v -0.345963 0.744986 -0.251861
v -0.342083 0.620180 -0.203533
v -0.361084 0.614664 -0.209326
v -0.326385 0.621163 -0.207443
v -0.367635 0.735014 -0.268232
v -0.361966 0.508315 -0.178048
v -0.335275 0.513000 -0.167700
v -0.345510 0.756243 -0.274229
v -0.370368 0.614539 -0.224313
v -0.319674 0.506248 -0.170228
v -0.317046 0.755200 -0.265254
v -0.368925 0.736723 -0.281518
v -0.365133 0.502138 -0.202378
v -0.188645 0.741719 -0.291244
v -0.326126 0.764515 -0.288387
vn -0.748876 -0.071038 -0.658892
vn -0.633650 -0.074384 -0.770036
vn -0.456226 0.143736 -0.878179
vn 0.456226 -0.143736 0.878179
vn 0.633650 0.074384 0.770036
vn 0.748876 0.071038 0.658892
vn -0.674150 -0.210115 -0.708078
vn 0.674150 0.210115 0.708078
vn -0.423173 0.090831 -0.901484
vn 0.423173 -0.090831 0.901484
vn -0.991717 -0.115976 0.055203
vn -0.994950 -0.099286 -0.014706
vn -0.995432 -0.093147 0.020922
vn 0.995432 0.093147 -0.020922
vn 0.994950 0.099286 0.014706
vn 0.991717 0.115976 -0.055203
vn -0.524270 -0.207828 -0.825802
vn 0.524270 0.207828 0.825802
vn -0.994274 -0.036250 0.100525
vn -0.961050 -0.069030 0.267615
vn 0.961050 0.069030 -0.267615
vn 0.994274 0.036250 -0.100525
vn -0.200257 0.173605 -0.964240
vn 0.200257 -0.173605 0.964240
vn -0.297653 -0.098010 -0.949630
vn 0.297653 0.098010 0.949630
vn -0.993825 -0.109760 -0.016257
vn 0.993825 0.109760 0.016257
vn -0.996189 -0.067791 0.054873
vn 0.996189 0.067791 -0.054873
vn -0.618252 -0.233927 -0.750362
vn 0.618252 0.233927 0.750362
vn -0.958650 -0.097216 0.267467
vn 0.958650 0.097216 -0.267467
vn -0.949063 0.091973 0.301363
vn 0.949063 -0.091973 -0.301363
vn 0.026965 0.249721 -0.967942
vn -0.026965 -0.249721 0.967942
vn -0.139998 0.077359 -0.987125
vn 0.139998 -0.077359 0.987125
vn -0.064458 0.005412 -0.997906
vn -0.542136 0.134546 -0.829449
vn -0.268304 0.226172 -0.936408
vn 0.268304 -0.226172 0.936408
vn 0.542136 -0.134546 0.829449
vn 0.064458 -0.005412 0.997906
vn -0.997466 -0.065769 0.027121
vn 0.997466 0.065769 -0.027121
vn -0.872419 -0.140894 -0.468011
vn 0.872419 0.140894 0.468011
vn -0.192172 -0.227497 -0.954628
vn 0.192172 0.227497 0.954628
vn -0.712814 -0.078278 0.696971
vn 0.712814 0.078278 -0.696971
vn -0.938090 0.123875 0.323485
vn 0.938090 -0.123875 -0.323485
vn 0.115204 0.254919 0.960075
vn -0.115204 -0.254919 -0.960075
vn -0.021229 0.137463 -0.990279
vn 0.021229 -0.137463 0.990279
vn -0.191921 -0.046805 -0.980294
vn 0.191921 0.046805 0.980294
vn -0.899470 0.231725 0.370483
vn 0.899470 -0.231725 -0.370483
vn -0.776189 0.126028 -0.617776
vn -0.775944 -0.184597 -0.603187
vn 0.775944 0.184597 0.603187
vn 0.776189 -0.126028 0.617776
vn -0.997555 -0.068861 -0.011918
vn 0.997555 0.068861 0.011918
vn -0.977163 -0.082721 -0.195729
vn 0.977163 0.082721 0.195729
vn -0.257952 -0.337925 -0.905134
vn 0.257952 0.337925 0.905134
vn 0.024178 -0.151293 -0.988193
vn -0.024178 0.151293 0.988193
vn -0.670789 -0.133008 0.729624
vn 0.670789 0.133008 -0.729624
vn -0.764541 0.233656 0.600734
vn 0.764541 -0.233656 -0.600734
vn 0.001759 0.067806 -0.997697
vn -0.001759 -0.067806 0.997697
vn -0.203142 -0.150553 -0.967506
vn 0.203142 0.150553 0.967506
vn -0.850663 -0.318873 -0.417962
vn 0.850663 0.318873 0.417962
vn -0.472266 -0.187539 0.861275
vn 0.472266 0.187539 -0.861275
vn -0.989870 0.048691 0.133366
vn -0.995593 0.005737 0.093608
vn 0.995593 -0.005737 -0.093608
vn 0.989870 -0.048691 -0.133366
vn -0.995584 -0.092881 -0.013652
vn 0.995584 0.092881 0.013652
vn -0.319111 -0.331960 -0.887677
vn 0.319111 0.331960 0.887677
vn -0.133319 -0.314457 -0.939863
vn 0.133319 0.314457 0.939863
vn -0.099171 -0.200141 -0.974735
vn 0.099171 0.200141 0.974735
vn -0.997961 -0.063130 -0.009385
vn -0.993826 0.109746 0.016315
vn -0.992712 -0.091369 0.078573
vn 0.992712 0.091369 -0.078573
vn 0.993826 -0.109746 -0.016315
vn 0.997961 0.063130 0.009385
vn -0.428899 0.829872 0.356873
vn 0.428899 -0.829872 -0.356873
vn -0.660125 0.007844 0.751114
vn 0.660125 -0.007844 -0.751114
vn -0.342248 0.105035 0.933720
vn -0.461399 -0.142232 0.875718
vn -0.642864 0.270567 0.716603
vn 0.642864 -0.270567 -0.716603
vn 0.461399 0.142232 -0.875718
vn 0.342248 -0.105035 -0.933720
vn -0.993826 -0.109770 -0.016154
vn 0.993826 0.109770 0.016154
vn -0.224114 -0.347304 -0.910578
vn 0.224114 0.347304 0.910578
vn -0.258807 -0.140053 0.955722
vn 0.258807 0.140053 -0.955722
vn -0.949068 -0.196035 0.246657
vn 0.949068 0.196035 -0.246657
vn 0.426848 -0.586051 0.688727
vn -0.426848 0.586051 -0.688727
vn -0.942374 0.075068 0.326030
vn 0.942374 -0.075068 -0.326030
vn -0.345080 0.673209 0.653995
vn 0.345080 -0.673209 -0.653995
vn -0.110790 -0.238796 0.964729
vn 0.110790 0.238796 -0.964729
vn 0.000004 0.137767 -0.990465
vn -0.000004 -0.137767 0.990465
vn -0.982743 -0.108291 0.149966
vn 0.982743 0.108291 -0.149966
vn -0.975323 -0.220516 0.010836
vn 0.975323 0.220516 -0.010836
vn -0.634043 0.713703 0.297687
vn 0.634043 -0.713703 -0.297687
vn -0.919999 -0.285998 0.267967
vn 0.919999 0.285998 -0.267967
vn -0.425546 0.555098 0.714686
vn 0.425546 -0.555098 -0.714686
vn -0.062773 0.086384 -0.994282
vn 0.062773 -0.086384 0.994282
vn -0.915248 -0.066661 0.397337
vn 0.915248 0.066661 -0.397337
vn -0.997804 0.017439 -0.063902
vn -0.921310 -0.215565 -0.323604
vn 0.921310 0.215565 0.323604
vn 0.997804 -0.017439 0.063902
vn -0.706649 0.704235 0.068560
vn 0.706649 -0.704235 -0.068560
vn -0.993826 0.109748 0.016315
vn 0.993826 -0.109748 -0.016315
vn -0.937798 -0.234668 -0.255864
vn 0.937798 0.234668 0.255864
vn -0.944340 -0.078524 0.319463
vn 0.944340 0.078524 -0.319463
vn -0.999898 0.014229 0.000787
vn 0.999898 -0.014229 -0.000787
vn 0.458111 0.867577 0.193508
vn -0.458111 -0.867577 -0.193508
vn -0.400227 0.122515 -0.908190
vn 0.400227 -0.122515 0.908190
vn -0.821097 -0.274144 -0.500644
vn 0.821097 0.274144 0.500644
vn -0.859094 0.095313 0.502864
vn 0.859094 -0.095313 -0.502864
vn -0.813567 -0.242069 -0.528688
vn 0.813567 0.242069 0.528688
vn -0.689138 0.122569 -0.714189
vn 0.689138 -0.122569 0.714189
vn 0.008020 0.975047 0.221852
vn -0.008020 -0.975047 -0.221852
vn -0.817014 0.104795 0.567015
vn 0.817014 -0.104795 -0.567015
vn -0.825363 -0.171677 -0.537869
vn -0.819739 -0.201482 -0.536128
vn 0.819739 0.201482 0.536128
vn 0.825363 0.171677 0.537869
vn -0.821289 0.154761 0.549121
vn 0.821289 -0.154761 -0.549121
vn -0.839853 -0.167384 -0.516362
vn 0.839853 0.167384 0.516362
vn -0.822171 0.154281 0.547935
vn 0.822171 -0.154281 -0.547935
vn -0.820349 -0.183024 -0.541783
vn 0.820349 0.183024 0.541783
vn -0.800540 -0.187094 -0.569325
vn 0.800540 0.187094 0.569325
vn 0.251675 0.965444 -0.067651
vn -0.251675 -0.965444 0.067651
vn -0.184440 0.096867 -0.978059
vn 0.184440 -0.096867 0.978059
vn 0.246602 0.113474 0.962451
vn -0.246602 -0.113474 -0.962451
vn 0.266079 0.319786 -0.909362
vn -0.266079 -0.319786 0.909362
vn 0.086981 0.118822 -0.989098
vn -0.086981 -0.118822 0.989098
vn 0.244795 0.113315 0.962931
vn -0.244795 -0.113315 -0.962931
vn 0.506971 0.101737 -0.855938
vn -0.506971 -0.101737 0.855938
vn 0.745423 0.082203 -0.661504
vn -0.745423 -0.082203 0.661504
vn 0.860045 0.058531 -0.506850
vn -0.860045 -0.058531 0.506850
vn 0.905529 0.059063 -0.420154
vn -0.905529 -0.059063 0.420154
vn -0.840210 0.512788 0.176340
vn 0.840210 -0.512788 -0.176340
vn -0.539488 -0.795263 0.276603
vn 0.539488 0.795263 -0.276603
vn 0.269506 0.228872 0.935406
vn -0.269506 -0.228872 -0.935406
vn 0.217871 0.319340 0.922255
vn -0.217871 -0.319340 -0.922255
vn 0.339505 0.253040 0.905929
vn -0.339505 -0.253040 -0.905929
vn 0.291309 0.297116 0.909319
vn -0.291309 -0.297116 -0.909319
vn 0.376099 0.273557 0.885278
vn -0.376099 -0.273557 -0.885278
vn 0.322182 0.266381 0.908427
vn -0.322182 -0.266381 -0.908427
vn 0.236831 0.341249 0.909648
vn -0.236831 -0.341249 -0.909648
vn 0.405619 0.269312 0.873467
vn -0.405619 -0.269312 -0.873467
vn 0.306770 0.237363 0.921711
vn -0.306770 -0.237363 -0.921711
vn 0.266721 0.208290 0.940997
vn -0.266721 -0.208290 -0.940997
vn 0.370552 0.231130 0.899595
vn -0.370552 -0.231130 -0.899595
vn 0.251987 0.186852 0.949520
vn -0.251987 -0.186852 -0.949520
vn 0.310630 0.197811 0.929720
vn -0.310630 -0.197811 -0.929720
vn 0.268649 0.182184 0.945852
vn -0.268649 -0.182184 -0.945852
vn 0.027220 0.915724 -0.400885
vn -0.027220 -0.915724 0.400885
vn 0.164071 0.169461 0.971784
vn 0.047250 0.261533 0.964037
vn -0.027871 0.171423 0.984803
vn 0.027871 -0.171423 -0.984803
vn -0.047250 -0.261533 -0.964037
vn -0.164071 -0.169461 -0.971784
vn -0.425405 0.149779 0.892523
vn 0.425405 -0.149779 -0.892523
vn -0.179385 0.088317 0.979807
vn 0.179385 -0.088317 -0.979807
vn -0.132325 0.273069 0.952850
vn 0.132325 -0.273069 -0.952850
vn -0.560051 0.022963 0.828140
vn 0.560051 -0.022963 -0.828140
vn 0.012078 0.134835 0.990794
vn -0.012078 -0.134835 -0.990794
vn -0.929549 0.005022 0.368665
vn -0.895958 -0.053593 0.440894
vn 0.895958 0.053593 -0.440894
vn 0.929549 -0.005022 -0.368665
vn -0.873282 -0.105269 0.475706
vn 0.873282 0.105269 -0.475706
vn -0.979851 -0.058820 0.190873
vn 0.979851 0.058820 -0.190873
vn -0.988315 -0.015243 0.151664
vn 0.988315 0.015243 -0.151664
vn -0.965995 -0.146599 0.212985
vn 0.965995 0.146599 -0.212985
vn -0.964033 -0.158291 0.213504
vn 0.964033 0.158291 -0.213504
vn 0.124507 0.537938 0.833739
vn -0.124507 -0.537938 -0.833739
vn 0.177748 0.411784 0.893778
vn -0.177748 -0.411784 -0.893778
vn -0.137425 0.567207 0.812029
vn 0.137425 -0.567207 -0.812029
vn -0.101717 0.327794 0.939258
vn 0.101717 -0.327794 -0.939258
vn -0.633930 0.262632 0.727432
vn 0.633930 -0.262632 -0.727432
vn 0.232791 0.325485 0.916443
vn -0.232791 -0.325485 -0.916443
vn -0.725997 0.518170 0.452138
vn 0.725997 -0.518170 -0.452138
vn -0.713590 0.187732 0.674941
vn 0.713590 -0.187732 -0.674941
vn 0.035781 0.315472 0.948260
vn -0.035781 -0.315472 -0.948260
vn -0.434936 0.871126 0.227972
vn 0.434936 -0.871126 -0.227972
vn -0.974574 0.062479 0.215181
vn 0.974574 -0.062479 -0.215181
vn 0.281466 0.310477 0.907954
vn -0.281466 -0.310477 -0.907954
vn 0.071433 0.864052 0.498309
vn -0.071433 -0.864052 -0.498309
vn -0.624775 0.777241 -0.074512
vn 0.624775 -0.777241 0.074512
vn -0.988399 -0.051067 -0.143039
vn -0.997957 -0.040842 -0.049124
vn 0.997957 0.040842 0.049124
vn 0.988399 0.051067 0.143039
vn 0.148453 0.751920 0.642322
vn -0.148453 -0.751920 -0.642322
vn 0.028542 0.931075 0.363710
vn -0.028542 -0.931075 -0.363710
vn -0.552728 0.776227 -0.303254
vn 0.552728 -0.776227 0.303254
vn -0.994951 0.017270 0.098864
vn 0.994951 -0.017270 -0.098864
usemtl material-0
f 1//1 2//2 3//3
f 3//4 2//5 1//6
f 4//7 2//2 1//1
f 1//6 2//5 4//8
f 5//9 3//3 2//2
f 2//5 3//4 5//10
f 1//11 3//12 6//13
f 6//14 3//15 1//16
f 2//2 4//7 7//17
f 7//18 4//8 2//5
f 4//19 1//11 8//20
f 8//21 1//16 4//22
f 9//23 3//3 5//9
f 5//10 3//4 9//24
f 10//25 5//9 2//2
f 2//5 5//10 10//26
f 3//12 11//27 6//13
f 6//14 11//28 3//15
f 1//11 6//13 12//29
f 12//30 6//14 1//16
f 7//17 4//7 13//31
f 13//32 4//8 7//18
f 10//25 2//2 7//17
f 7//18 2//5 10//26
f 8//20 1//11 14//33
f 14//34 1//16 8//21
f 15//35 4//19 8//20
f 8//21 4//22 15//36
f 9//23 11//37 3//3
f 3//4 11//38 9//24
f 16//39 9//23 5//9
f 5//10 9//24 16//40
f 16//39 5//9 10//25
f 10//26 5//10 16//40
f 11//41 17//42 6//43
f 6//44 17//45 11//46
f 12//29 6//13 17//47
f 17//48 6//14 12//30
f 1//11 12//29 14//33
f 14//34 12//30 1//16
f 13//31 4//7 18//49
f 18//50 4//8 13//32
f 19//51 7//17 13//31
f 13//32 7//18 19//52
f 10//25 7//17 19//51
f 19//52 7//18 10//26
f 8//20 14//33 20//53
f 20//54 14//34 8//21
f 18//55 4//19 15//35
f 15//36 4//22 18//56
f 8//57 21//57 15//57
f 15//58 21//58 8//58
f 22//59 9//23 16//39
f 16//40 9//24 22//60
f 23//61 16//39 10//25
f 10//26 16//40 23//62
f 12//65 17//42 25//66
f 25//67 17//45 12//68
f 14//33 12//29 26//69
f 26//70 12//30 14//34
f 27//71 13//31 18//49
f 18//50 13//32 27//72
f 19//51 13//31 28//73
f 28//74 13//32 19//52
f 10//25 19//51 29//75
f 29//76 19//52 10//26
f 30//77 20//53 14//33
f 14//34 20//54 30//78
f 18//55 15//35 21//79
f 21//80 15//36 18//56
f 31//81 22//59 16//39
f 16//40 22//60 31//82
f 31//81 16//39 23//61
f 23//62 16//40 31//82
f 23//61 10//25 32//83
f 32//84 10//26 23//62
f 24//63 17//42 33//85
f 33//86 17//45 24//64
f 24//63 11//41 22//87
f 22//88 11//46 24//64
f 12//29 25//89 34//90
f 34//91 25//92 12//30
f 12//29 34//90 26//69
f 26//70 34//91 12//30
f 14//33 26//69 30//93
f 30//94 26//70 14//34
f 28//73 13//31 27//95
f 27//96 13//32 28//74
f 35//97 19//51 28//73
f 28//74 19//52 35//98
f 29//75 19//51 36//99
f 36//100 19//52 29//76
f 32//83 10//25 29//75
f 29//76 10//26 32//84
f 31//101 22//102 37//103
f 37//104 22//105 31//106
f 38//107 33//85 24//63
f 24//64 33//86 38//108
f 40//111 26//112 34//113
f 34//114 26//115 40//116
f 26//69 41//117 30//93
f 30//94 41//118 26//70
f 42//119 28//73 27//95
f 27//96 28//74 42//120
f 36//99 19//51 35//97
f 35//98 19//52 36//100
f 35//97 28//73 42//119
f 42//120 28//74 35//98
f 37//121 22//87 39//109
f 39//110 22//88 37//122
f 43//123 31//101 37//103
f 37//104 31//106 43//124
f 44//125 38//107 33//85
f 33//86 38//108 44//126
f 41//131 26//112 40//111
f 40//116 26//115 41//132
f 47//133 41//131 30//133
f 30//134 41//132 47//134
f 37//103 39//109 48//135
f 48//136 39//110 37//104
f 49//137 43//123 37//103
f 37//104 43//124 49//138
f 50//139 38//107 44//125
f 44//126 38//108 50//140
f 48//135 39//109 45//127
f 45//128 39//110 48//136
f 51//141 41//131 40//111
f 40//116 41//132 51//142
f 51//143 40//111 46//129
f 46//130 40//116 51//144
f 41//131 47//133 52//145
f 52//146 47//134 41//132
f 49//137 37//103 48//135
f 48//136 37//104 49//138
f 29//147 43//123 49//137
f 49//138 43//124 29//148
f 48//149 45//127 53//150
f 53//151 45//128 48//152
f 51//141 52//145 41//131
f 41//132 52//146 51//142
f 55//155 52//155 47//155
f 47//156 52//156 55//156
f 49//137 48//135 47//157
f 47//158 48//136 49//138
f 56//159 29//147 49//137
f 49//138 29//148 56//160
f 48//149 53//150 55//161
f 55//162 53//151 48//152
f 55//165 51//141 52//145
f 52//146 51//142 55//166
f 49//137 47//157 58//167
f 58//168 47//158 49//138
f 59//169 29//147 56//159
f 56//160 29//148 59//170
f 56//171 49//137 58//167
f 58//168 49//138 56//172
f 55//165 53//173 51//141
f 51//142 53//174 55//166
f 57//163 60//175 54//153
f 54//154 60//176 57//164
f 59//169 61//177 29//147
f 29//148 61//178 59//170
f 59//179 56//171 62//180
f 62//181 56//172 59//182
f 56//171 58//167 62//180
f 62//181 58//168 56//172
f 35//183 61//177 59//169
f 59//170 61//178 35//184
f 63//185 59//179 62//180
f 62//181 59//182 63//186
f 64//187 35//183 59//169
f 59//170 35//184 64//188
f 65//189 59//179 63//185
f 63//186 59//182 65//190
f 65//189 64//191 59//179
f 59//182 64//192 65//190
usemtl material-1
f 68//197 69//199 66//193
f 66//194 69//200 68//198
f 67//195 70//201 66//193
f 66//194 70//202 67//196
f 69//199 68//197 71//203
f 71//204 68//198 69//200
f 66//193 70//201 69//199
f 69//200 70//202 66//194
f 69//199 70//201 72//205
f 72//206 70//202 69//200
f 70//201 73//207 72//205
f 72//206 73//208 70//202
f 72//205 73//207 74//209
f 74//210 73//208 72//206
f 74//209 73//207 75//211
f 75//212 73//208 74//210
f 72//213 76//213 74//213
f 74//214 76//214 72//214
f 72//215 77//215 76//215
f 76//216 77//216 72//216
usemtl material-3
f 79//219 84//229 81//223
f 81//224 84//230 79//220
f 78//217 81//223 82//225
f 82//226 81//224 78//218
f 80//221 82//225 85//231
f 85//232 82//226 80//222
f 83//227 80//221 85//231
f 85//232 80//222 83//228
f 83//227 85//231 88//237
f 88//238 85//232 83//228
f 86//233 83//227 88//237
f 88//238 83//228 86//234
f 86//233 88//237 90//241
f 90//242 88//238 86//234
f 87//235 86//233 90//241
f 90//242 86//234 87//236
f 89//239 87//235 91//243
f 91//244 87//236 89//240
f 87//235 90//241 91//243
f 91//244 90//242 87//236
usemtl material-5
f 92//245 93//245 94//245
f 94//246 93//246 92//246
usemtl material-6
f 95//247 96//248 97//249
f 97//250 96//251 95//252
f 96//248 98//253 97//249
f 97//250 98//254 96//251
f 99//255 95//247 97//249
f 97//250 95//252 99//256
f 96//248 100//257 98//253
f 98//254 100//258 96//251
f 97//249 98//253 101//259
f 101//260 98//254 97//250
f 102//261 95//247 99//255
f 99//256 95//252 102//262
f 99//255 97//249 101//259
f 101//260 97//250 99//256
f 100//263 103//264 98//253
f 98//254 103//265 100//266
f 98//253 103//264 101//259
f 101//260 103//265 98//254
f 99//255 101//259 104//267
f 104//268 101//260 99//256
f 100//263 105//269 103//264
f 103//265 105//270 100//266
f 103//264 104//267 101//259
f 101//260 104//268 103//265
f 100//263 106//271 105//269
f 105//270 106//272 100//266
f 105//269 107//273 103//264
f 103//265 107//274 105//270
f 103//264 107//273 104//267
f 104//268 107//274 103//265
f 107//273 108//275 104//267
f 104//268 108//276 107//274
usemtl material-7
f 109//277 111//281 110//279
f 110//280 111//282 109//278
f 110//279 111//281 112//283
f 112//284 111//282 110//280
f 112//283 111//281 113//285
f 113//286 111//282 112//284
f 114//287 110//279 112//283
f 112//284 110//280 114//288
f 111//281 115//289 113//285
f 113//286 115//290 111//282
f 112//283 113//285 116//291
f 116//292 113//286 112//284
f 114//287 112//283 117//293
f 117//294 112//284 114//288
f 111//281 118//295 115//289
f 115//290 118//296 111//282
f 115//289 119//297 113//285
f 113//286 119//298 115//290
f 113//285 119//297 116//291
f 116//292 119//298 113//286
f 117//293 112//283 116//291
f 116//292 112//284 117//294
f 120//299 114//287 117//293
f 117//294 114//288 120//300
f 111//281 121//301 118//295
f 118//296 121//302 111//282
f 115//289 118//295 122//303
f 122//304 118//296 115//290
f 115//305 123//306 119//297
f 119//298 123//307 115//308
f 119//297 123//306 116//291
f 116//292 123//307 119//298
f 124//309 121//301 111//281
f 111//282 121//302 124//310
f 121//301 125//311 118//295
f 118//296 125//312 121//302
f 118//295 125//313 122//303
f 122//304 125//314 118//296
f 122//315 123//306 115//305
f 115//308 123//307 122//316