mtllib new-7.mtl
v 0.215480 0.143070 -0.129460
v 0.183518 0.179049 -0.138991
v 0.171463 -0.036644 -0.157598
v 0.274684 0.167582 -0.115786
v 0.277235 0.198029 -0.116810
v 0.279403 -0.022953 -0.138980
v 0.291563 0.177751 -0.118055
v 0.299775 -0.022659 -0.148962
v 0.309667 0.158037 -0.144881
v 0.307782 -0.020455 -0.165909
v 0.301402 0.173767 -0.151240
v 0.315141 0.184496 -0.146227
v 0.314926 0.261095 -0.142009
v 0.297531 0.258819 -0.161533
v 0.306186 0.166393 -0.164596
v 0.343052 0.453061 -0.179403
v 0.283453 0.166933 -0.178192
v 0.306186 0.165837 -0.160842
v 0.316308 0.423774 -0.193713
v 0.337230 0.417581 -0.153337
v 0.271112 0.260330 -0.179516
v 0.274187 -0.024243 -0.212887
v 0.283417 -0.032273 -0.215216
v 0.306603 0.174854 -0.154344
v 0.339604 0.609120 -0.224402
v 0.313282 0.254979 -0.131875
v 0.343260 0.579616 -0.195635
v 0.248040 0.169439 -0.187181
v 0.293766 -0.045004 -0.215326
v 0.343752 0.712786 -0.248058
v 0.311570 0.583891 -0.230783
v 0.309285 0.261047 -0.127038
v 0.339897 0.617565 -0.206115
v 0.245129 0.261526 -0.187394
v 0.246427 -0.032273 -0.215216
v 0.237856 -0.068932 -0.209497
v 0.305697 -0.050673 -0.201491
v 0.306186 0.163605 -0.145828
v 0.340406 0.735466 -0.274225
v 0.317556 0.694104 -0.267789
v 0.284333 0.433903 -0.205622
v 0.306186 0.163049 -0.142074
v 0.266635 0.344910 -0.193618
v 0.223659 0.169738 -0.187118
v 0.292023 -0.099291 -0.190965
v 0.303181 -0.045298 -0.182781
v 0.292142 0.639801 -0.249599
v 0.291579 0.521578 -0.220022
v 0.223659 0.168621 -0.179611
v 0.235043 -0.032720 -0.212199
v 0.237793 -0.106289 -0.181914
v 0.293171 -0.046825 -0.173148
v 0.283417 -0.038957 -0.170172
v 0.294246 0.732472 -0.287880
v 0.255310 0.301546 -0.190017
v 0.224438 -0.052567 -0.201042
v 0.289795 -0.123409 -0.148108
v 0.290255 -0.077099 -0.148607
v 0.246427 -0.038957 -0.170172
v 0.223625 0.167755 -0.171994
v 0.256468 0.333686 -0.178320
v 0.238321 -0.123550 -0.145468
v 0.238551 -0.048461 -0.171702
v 0.223659 0.163049 -0.142074
v 0.224119 -0.090137 -0.158295
v 0.226670 -0.045645 -0.182683
v 0.239719 -0.167413 0.048584
v 0.290157 -0.123787 0.057852
v 0.239520 -0.077530 -0.147279
v 0.223659 0.164165 -0.149581
v 0.280745 0.434991 -0.194747
v 0.255996 0.301458 -0.161098
v 0.288213 0.567964 -0.223477
v 0.287609 0.434459 -0.184329
v 0.290754 0.568758 -0.219602
v 0.290288 0.696106 -0.262671
v 0.299678 0.702714 -0.251639
v 0.325310 0.676255 -0.227536
v 0.248585 0.646876 -0.237151
v 0.324636 0.636537 -0.212856
v 0.239860 0.580514 -0.226142
v 0.323060 0.594213 -0.197948
v 0.232953 0.512287 -0.213338
v 0.316804 0.498613 -0.168415
v 0.220883 0.342827 -0.165751
v 0.301876 0.349407 -0.137274
v 0.192651 0.181103 -0.136028
v 0.277235 0.198029 -0.116810
v 0.337937 0.512126 -0.167591
v 0.321561 0.405293 -0.142972
v 0.316804 0.498613 -0.168415
v 0.342663 0.432360 -0.152559
v 0.310686 0.434749 -0.153043
v 0.331837 0.340088 -0.138891
v 0.360627 0.507086 -0.180874
v 0.297472 0.319379 -0.132917
v 0.347067 0.328867 -0.162765
v 0.293957 0.196268 -0.116495
v 0.360554 0.433017 -0.180007
v 0.310409 0.188343 -0.128851
v 0.367054 0.503246 -0.198181
v 0.277235 0.198029 -0.116810
v 0.315141 0.184496 -0.146227
v 0.340727 0.739652 -0.249671
v 0.315730 0.742972 -0.256207
v 0.152656 0.726594 -0.285358
v 0.332171 0.764216 -0.286768
v 0.163128 0.713479 -0.272219
v 0.361387 0.740518 -0.264525
v 0.325608 0.728137 -0.247192
v 0.358976 0.615893 -0.209878
v 0.339826 0.620184 -0.203535
v 0.371161 0.619011 -0.236561
v 0.324128 0.621163 -0.207443
v 0.368594 0.725868 -0.277642
v 0.367054 0.503246 -0.198181
v 0.353797 0.509628 -0.174074
v 0.333018 0.513000 -0.167700
v 0.316804 0.498613 -0.168415
v 0.193016 0.752420 -0.315507
v 0.187136 0.727408 -0.281909
v 0.309628 0.757283 -0.269286
v 0.328080 0.748624 -0.262705
v 0.273046 0.743580 -0.270491
v 0.305843 0.737609 -0.286357
vn -0.267550 0.188798 0.944866
vn 0.267550 -0.188798 -0.944866
vn -0.222726 0.031272 0.974379
vn 0.222726 -0.031272 -0.974379
vn 0.186105 0.104287 -0.976980
vn -0.186105 -0.104287 0.976980
vn -0.328323 0.925888 -0.186912
vn 0.328323 -0.925888 0.186912
vn -0.994619 0.081174 -0.064375
vn 0.994619 -0.081174 0.064375
vn 0.664069 -0.092207 0.741964
vn -0.664069 0.092207 -0.741964
vn 0.664152 -0.157236 0.730876
vn -0.664152 0.157236 -0.730876
vn 0.747312 -0.081968 0.659398
vn -0.747312 0.081968 -0.659398
vn 0.860533 -0.058537 0.506020
vn -0.860533 0.058537 -0.506020
vn 0.905537 -0.059061 0.420136
vn -0.905537 0.059061 -0.420136
vn -0.836731 -0.514967 -0.186252
vn 0.836731 0.514967 0.186252
vn -0.535465 0.805007 -0.255422
vn 0.535465 -0.805007 0.255422
vn -0.748849 0.071038 0.658923
vn -0.633640 0.074384 0.770044
vn -0.456216 -0.143735 0.878184
vn 0.456216 0.143735 -0.878184
vn 0.633640 -0.074384 -0.770044
vn 0.748849 -0.071038 -0.658923
vn -0.672285 0.210502 0.709734
vn 0.672285 -0.210502 -0.709734
vn -0.423173 -0.090831 0.901484
vn 0.423173 0.090831 -0.901484
vn -0.991680 0.116024 -0.055752
vn -0.994952 0.099273 0.014704
vn -0.995429 0.093158 -0.021041
vn 0.995429 -0.093158 0.021041
vn 0.994952 -0.099273 -0.014704
vn 0.991680 -0.116024 0.055752
vn -0.524569 0.207744 0.825633
vn 0.524569 -0.207744 -0.825633
vn -0.994279 0.036273 -0.100464
vn -0.961371 0.069409 -0.266361
vn 0.961371 -0.069409 0.266361
vn 0.994279 -0.036273 0.100464
vn -0.297652 0.098011 0.949630
vn 0.297652 -0.098011 -0.949630
vn -0.200257 -0.173605 0.964240
vn 0.200257 0.173605 -0.964240
vn -0.993825 0.109760 0.016257
vn 0.993825 -0.109760 -0.016257
vn -0.996169 0.067800 -0.055237
vn 0.996169 -0.067800 0.055237
vn -0.618958 0.232862 0.750111
vn 0.618958 -0.232862 -0.750111
vn -0.959081 0.097258 -0.265905
vn 0.959081 -0.097258 0.265905
vn -0.949039 -0.091982 -0.301436
vn 0.949039 0.091982 0.301436
vn -0.139998 -0.077359 0.987125
vn 0.139998 0.077359 -0.987125
vn 0.026965 -0.249721 0.967942
vn -0.026965 0.249721 -0.967942
vn -0.268304 -0.226172 0.936408
vn -0.064458 -0.005412 0.997906
vn -0.543114 -0.133608 0.828961
vn 0.543114 0.133608 -0.828961
vn 0.064458 0.005412 -0.997906
vn 0.268304 0.226172 -0.936408
vn -0.997457 0.065820 -0.027323
vn 0.997457 -0.065820 0.027323
vn -0.869350 0.142751 0.473130
vn 0.869350 -0.142751 -0.473130
vn -0.192055 0.227641 0.954617
vn 0.192055 -0.227641 -0.954617
vn -0.717551 0.078898 -0.692023
vn 0.717551 -0.078898 0.692023
vn -0.938090 -0.123875 -0.323485
vn 0.938090 0.123875 0.323485
vn 0.115261 -0.254912 -0.960070
vn -0.115261 0.254912 0.960070
vn -0.191921 0.046805 0.980294
vn 0.191921 -0.046805 -0.980294
vn -0.021229 -0.137463 0.990279
vn 0.021229 0.137463 -0.990279
vn -0.899100 -0.230626 -0.372062
vn 0.899100 0.230626 0.372062
vn -0.776204 -0.126025 0.617758
vn -0.776067 0.184186 0.603155
vn 0.776067 -0.184186 -0.603155
vn 0.776204 0.126025 -0.617758
vn -0.997563 0.068745 0.011924
vn 0.997563 -0.068745 -0.011924
vn -0.976599 0.084234 0.197884
vn 0.976599 -0.084234 -0.197884
vn -0.261816 0.334013 0.905477
vn 0.261816 -0.334013 -0.905477
vn 0.024178 0.151293 0.988193
vn -0.024178 -0.151293 -0.988193
vn -0.675895 0.132605 -0.724970
vn 0.675895 -0.132605 0.724970
vn -0.764541 -0.233656 -0.600734
vn 0.764541 0.233656 0.600734
vn -0.203142 0.150553 0.967506
vn 0.203142 -0.150553 -0.967506
vn 0.001759 -0.067806 0.997697
vn -0.001759 0.067806 -0.997697
vn -0.472266 0.187539 -0.861275
vn 0.472266 -0.187539 0.861275
vn -0.851962 0.317085 0.416675
vn 0.851962 -0.317085 -0.416675
vn -0.989872 -0.048677 -0.133359
vn -0.995591 -0.005725 -0.093622
vn 0.995591 0.005725 0.093622
vn 0.989872 0.048677 0.133359
vn -0.995594 0.092754 0.013738
vn 0.995594 -0.092754 -0.013738
vn -0.332885 0.321837 0.886345
vn 0.332885 -0.321837 -0.886345
vn -0.131858 0.313870 0.940265
vn 0.131858 -0.313870 -0.940265
vn -0.099171 0.200141 0.974735
vn 0.099171 -0.200141 -0.974735
vn -0.997961 0.063130 0.009385
vn -0.993826 -0.109746 -0.016315
vn -0.992712 0.091369 -0.078573
vn 0.992712 -0.091369 0.078573
vn 0.993826 0.109746 0.016315
vn 0.997961 -0.063130 -0.009385
vn -0.660125 -0.007844 -0.751114
vn 0.660125 0.007844 0.751114
vn -0.428608 -0.831190 -0.354145
vn 0.428608 0.831190 0.354145
vn -0.461407 0.142231 -0.875713
vn -0.658981 -0.273721 -0.700586
vn -0.340726 -0.120727 -0.932379
vn 0.340726 0.120727 0.932379
vn 0.658981 0.273721 0.700586
vn 0.461407 -0.142231 0.875713
vn -0.993825 0.109758 0.016257
vn 0.993825 -0.109758 -0.016257
vn -0.224757 0.341360 0.912665
vn 0.224757 -0.341360 -0.912665
vn -0.258807 0.140053 -0.955722
vn 0.258807 -0.140053 0.955722
vn -0.949068 0.196035 -0.246657
vn 0.949068 -0.196035 0.246657
vn -0.942374 -0.075068 -0.326030
vn 0.942374 0.075068 0.326030
vn 0.406431 0.586043 -0.700976
vn -0.406431 -0.586043 0.700976
vn 0.018609 -0.520184 -0.853852
vn -0.018609 0.520184 0.853852
vn -0.110792 0.238795 -0.964729
vn 0.110792 -0.238795 0.964729
vn 0.000000 -0.137768 0.990465
vn -0.062777 -0.086385 0.994282
vn 0.062777 0.086385 -0.994282
vn 0.000000 0.137768 -0.990465
vn -0.982743 0.108291 -0.149966
vn 0.982743 -0.108291 0.149966
vn -0.975323 0.220516 -0.010836
vn 0.975323 -0.220516 0.010836
vn -0.634043 -0.713703 -0.297687
vn 0.634043 0.713703 0.297687
vn -0.410842 -0.583524 -0.700506
vn 0.410842 0.583524 0.700506
vn -0.919999 0.285998 -0.267967
vn 0.919999 -0.285998 0.267967
vn -0.915248 0.066661 -0.397337
vn 0.915248 -0.066661 0.397337
vn -0.943447 0.292019 0.156950
vn 0.943447 -0.292019 -0.156950
vn -0.997804 -0.017439 0.063902
vn -0.921310 0.215565 0.323604
vn 0.921310 -0.215565 -0.323604
vn 0.997804 0.017439 -0.063902
vn -0.461310 0.865341 0.195904
vn 0.461310 -0.865341 -0.195904
vn 0.468169 -0.861714 -0.195618
vn -0.468169 0.861714 0.195618
vn -0.886496 -0.452046 0.098892
vn 0.886496 0.452046 -0.098892
vn -0.993826 -0.109748 -0.016315
vn 0.993826 0.109748 0.016315
vn -0.400227 -0.122515 0.908190
vn 0.400227 0.122515 -0.908190
vn -0.937798 0.234668 0.255864
vn 0.937798 -0.234668 -0.255864
vn -0.944340 0.078524 -0.319463
vn 0.944340 -0.078524 0.319463
vn -0.999898 -0.014229 -0.000787
vn 0.999898 0.014229 0.000787
vn -0.689138 -0.122569 0.714189
vn 0.689138 0.122569 -0.714189
vn -0.821097 0.274144 0.500644
vn 0.821097 -0.274144 -0.500644
vn -0.859094 -0.095313 -0.502864
vn 0.859094 0.095313 0.502864
vn -0.813567 0.242069 0.528688
vn 0.813567 -0.242069 -0.528688
vn -0.825363 0.171677 0.537869
vn -0.819739 0.201482 0.536128
vn 0.819739 -0.201482 -0.536128
vn 0.825363 -0.171677 -0.537869
vn -0.821289 -0.154761 -0.549121
vn 0.821289 0.154761 0.549121
vn -0.839853 0.167384 0.516362
vn 0.839853 -0.167384 -0.516362
vn -0.822171 -0.154281 -0.547935
vn 0.822171 0.154281 0.547935
vn -0.820349 0.183024 0.541783
vn 0.820349 -0.183024 -0.541783
vn -0.800540 0.187094 0.569325
vn 0.800540 -0.187094 -0.569325
vn -0.206728 0.294062 0.933162
vn 0.206728 -0.294062 -0.933162
vn -0.217070 0.224058 0.950094
vn 0.217070 -0.224058 -0.950094
vn -0.290936 0.285984 0.913000
vn 0.290936 -0.285984 -0.913000
vn -0.268859 0.210255 0.939951
vn 0.268859 -0.210255 -0.939951
vn -0.370470 0.274774 0.887272
vn 0.370470 -0.274774 -0.887272
vn -0.319045 0.256130 0.912473
vn 0.319045 -0.256130 -0.912473
vn -0.391403 0.263998 0.881538
vn 0.391403 -0.263998 -0.881538
vn -0.303845 0.242190 0.921424
vn 0.303845 -0.242190 -0.921424
vn -0.310202 0.207372 0.927778
vn 0.310202 -0.207372 -0.927778
vn -0.269584 0.197768 0.942450
vn 0.269584 -0.197768 -0.942450
vn -0.250502 0.169626 0.953140
vn 0.250502 -0.169626 -0.953140
vn -0.182275 -0.219897 -0.958343
vn 0.012684 -0.179511 -0.983674
vn 0.201037 -0.248122 -0.947639
vn -0.201037 0.248122 0.947639
vn -0.012684 0.179511 0.983674
vn 0.182275 0.219897 0.958343
vn -0.625448 -0.080789 -0.776072
vn 0.625448 0.080789 0.776072
vn 0.263908 -0.223399 -0.938320
vn -0.263908 0.223399 0.938320
vn -0.584724 -0.015581 -0.811082
vn 0.584724 0.015581 0.811082
vn -0.798824 -0.068056 -0.597703
vn 0.798824 0.068056 0.597703
vn 0.131266 -0.156428 -0.978928
vn -0.131266 0.156428 0.978928
vn -0.868040 0.072975 -0.491102
vn 0.868040 -0.072975 0.491102
vn -0.191707 -0.086035 -0.977674
vn 0.191707 0.086035 0.977674
vn -0.875917 0.003169 -0.482451
vn 0.875917 -0.003169 0.482451
vn -0.812830 0.097806 -0.574231
vn 0.812830 -0.097806 0.574231
vn -0.937674 -0.003140 -0.347501
vn 0.937674 0.003140 0.347501
vn 0.004764 -0.132359 -0.991190
vn -0.004764 0.132359 0.991190
vn -0.939679 0.174070 -0.294454
vn 0.939679 -0.174070 0.294454
vn -0.697327 -0.564675 -0.441450
vn -0.252959 -0.781367 0.570506
vn -0.129071 0.575497 0.807554
vn 0.129071 -0.575497 -0.807554
vn 0.252959 0.781367 -0.570506
vn 0.697327 0.564675 0.441450
vn -0.137896 -0.840154 -0.524525
vn 0.137896 0.840154 0.524525
vn -0.143760 0.578444 0.802954
vn 0.143760 -0.578444 -0.802954
vn -0.730005 -0.403947 -0.551289
vn 0.730005 0.403947 0.551289
vn 0.152172 -0.279119 -0.948122
vn -0.152172 0.279119 0.948122
vn -0.695595 -0.235658 -0.678684
vn 0.695595 0.235658 0.678684
vn -0.087573 -0.332297 -0.939100
vn 0.087573 0.332297 0.939100
vn -0.906633 -0.143755 -0.396675
vn 0.906633 0.143755 0.396675
vn 0.242645 -0.323941 -0.914432
vn -0.242645 0.323941 0.914432
vn -0.928159 -0.152773 -0.339385
vn 0.928159 0.152773 0.339385
vn -0.891330 -0.109598 -0.439908
vn 0.891330 0.109598 0.439908
vn -0.340538 -0.282044 -0.896931
vn 0.340538 0.282044 0.896931
vn 0.068516 -0.315423 -0.946474
vn -0.068516 0.315423 0.946474
vn -0.882936 -0.110694 -0.456257
vn 0.882936 0.110694 0.456257
vn 0.310525 -0.305247 -0.900221
vn -0.310525 0.305247 0.900221
vn -0.113942 0.933137 0.340988
vn 0.113942 -0.933137 -0.340988
vn -0.173661 0.556975 0.812171
vn 0.173661 -0.556975 -0.812171
vn -0.196994 0.796154 0.572130
vn 0.196994 -0.796154 -0.572130
vn -0.127326 0.967276 0.219467
vn 0.127326 -0.967276 -0.219467
vn -0.225899 0.602926 0.765147
vn 0.225899 -0.602926 -0.765147
vn 0.027220 -0.915724 0.400885
vn -0.027220 0.915724 -0.400885
usemtl material-1
f 4//7 2//3 1//1
f 1//2 2//4 4//8
f 4//7 3//5 1//1
f 1//2 3//6 4//8
f 5//9 2//3 4//7
f 4//8 2//4 5//10
f 6//11 3//5 4//7
f 4//8 3//6 6//12
f 7//13 4//7 5//9
f 5//10 4//8 7//14
f 7//13 4//7 6//11
f 6//12 4//8 7//14
f 8//15 7//13 6//11
f 6//12 7//14 8//16
f 7//13 8//15 9//17
f 9//18 8//16 7//14
f 9//17 8//15 10//19
f 10//20 8//16 9//18
f 7//21 11//21 9//21
f 9//22 11//22 7//22
f 7//23 12//23 11//23
f 11//24 12//24 7//24
usemtl material-2
f 13//25 14//26 15//27
f 15//28 14//29 13//30
f 16//31 14//26 13//25
f 13//30 14//29 16//32
f 15//27 14//26 17//33
f 17//34 14//29 15//28
f 13//35 15//36 18//37
f 18//38 15//39 13//40
f 16//31 19//41 14//26
f 14//29 19//42 16//32
f 16//43 13//35 20//44
f 20//45 13//40 16//46
f 14//26 21//47 17//33
f 17//34 21//48 14//29
f 15//27 17//33 22//49
f 22//50 17//34 15//28
f 15//36 23//51 18//37
f 18//38 23//52 15//39
f 13//35 18//37 24//53
f 24//54 18//38 13//40
f 16//31 25//55 19//41
f 19//42 25//56 16//32
f 19//41 21//47 14//26
f 14//29 21//48 19//42
f 20//44 13//35 26//57
f 26//58 13//40 20//45
f 27//59 16//43 20//44
f 20//45 16//46 27//60
f 17//33 21//47 28//61
f 28//62 21//48 17//34
f 17//33 28//61 22//49
f 22//50 28//62 17//34
f 15//27 22//49 23//63
f 23//64 22//50 15//28
f 18//65 23//66 29//67
f 29//68 23//69 18//70
f 24//53 18//37 29//71
f 29//72 18//38 24//54
f 13//35 24//53 26//57
f 26//58 24//54 13//40
f 30//73 25//55 16//31
f 16//32 25//56 30//74
f 25//55 31//75 19//41
f 19//42 31//76 25//56
f 19//41 31//75 21//47
f 21//48 31//76 19//42
f 20//44 26//57 32//77
f 32//78 26//58 20//45
f 30//79 16//43 27//59
f 27//60 16//46 30//80
f 27//81 20//81 33//81
f 33//82 20//82 27//82
f 21//47 34//83 28//61
f 28//62 34//84 21//48
f 22//49 28//61 35//85
f 35//86 28//62 22//50
f 29//67 23//66 36//87
f 36//88 23//69 29//68
f 24//89 29//67 37//90
f 37//91 29//68 24//92
f 26//57 24//53 38//93
f 38//94 24//54 26//58
f 39//95 25//55 30//73
f 30//74 25//56 39//96
f 25//55 40//97 31//75
f 31//76 40//98 25//56
f 31//75 41//99 21//47
f 21//48 41//100 31//76
f 26//57 42//101 32//77
f 32//78 42//102 26//58
f 30//79 27//59 33//103
f 33//104 27//60 30//80
f 21//47 43//105 34//83
f 34//84 43//106 21//48
f 28//61 34//83 44//107
f 44//108 34//84 28//62
f 28//61 44//107 35//85
f 35//86 44//108 28//62
f 29//67 45//111 36//87
f 36//88 45//112 29//68
f 24//53 37//113 46//114
f 46//115 37//116 24//54
f 24//53 46//114 38//93
f 38//94 46//115 24//54
f 26//57 38//93 42//117
f 42//118 38//94 26//58
f 39//119 40//97 25//55
f 25//56 40//98 39//120
f 40//97 47//121 31//75
f 31//76 47//122 40//98
f 41//99 43//105 21//47
f 21//48 43//106 41//100
f 44//125 35//126 49//127
f 49//128 35//129 44//130
f 45//111 36//87 51//133
f 51//134 36//88 45//112
f 38//135 46//136 52//137
f 52//138 46//139 38//140
f 38//93 53//141 42//117
f 42//118 53//142 38//94
f 39//119 54//143 40//97
f 40//98 54//144 39//120
f 40//97 54//143 47//121
f 47//122 54//144 40//98
f 31//75 47//121 48//123
f 48//124 47//122 31//76
f 35//109 50//131 49//145
f 49//146 50//132 35//110
f 55//147 44//125 49//127
f 49//128 44//130 55//148
f 57//151 51//133 45//111
f 45//112 51//134 57//152
f 38//135 52//137 53//155
f 53//156 52//138 38//140
f 42//157 59//158 53//155
f 53//156 59//159 42//160
f 49//127 50//131 60//161
f 60//162 50//132 49//128
f 61//163 55//147 49//127
f 49//128 55//148 61//164
f 60//161 50//131 56//149
f 56//150 50//132 60//162
f 52//137 58//153 63//167
f 63//168 58//154 52//138
f 52//137 63//169 53//155
f 53//156 63//170 52//138
f 59//158 42//157 64//157
f 64//160 42//160 59//159
f 53//155 63//169 59//158
f 59//159 63//170 53//156
f 61//163 49//127 60//161
f 60//162 49//128 61//164
f 41//171 55//147 61//163
f 61//164 55//148 41//172
f 60//175 56//149 66//176
f 66//177 56//150 60//178
f 67//179 57//151 62//165
f 62//166 57//152 67//180
f 58//153 69//183 63//167
f 63//168 69//184 58//154
f 70//185 59//185 64//185
f 64//186 59//186 70//186
f 59//158 70//187 63//169
f 63//170 70//188 59//159
f 61//163 60//161 64//189
f 64//190 60//162 61//164
f 71//191 41//171 61//163
f 61//164 41//172 71//192
f 66//176 56//149 65//173
f 65//174 56//150 66//177
f 60//175 66//176 70//193
f 70//194 66//177 60//178
f 68//181 69//183 58//153
f 58//154 69//184 68//182
f 63//169 70//187 66//195
f 66//196 70//188 63//170
f 61//163 64//189 72//197
f 72//198 64//190 61//164
f 73//199 41//171 71//191
f 71//192 41//172 73//200
f 71//201 61//163 72//197
f 72//198 61//164 71//202
f 73//203 71//201 74//204
f 74//205 71//202 73//206
f 71//201 72//197 74//204
f 74//205 72//198 71//202
f 75//209 73//203 74//204
f 74//205 73//206 75//210
f 76//211 47//207 73//199
f 73//200 47//208 76//212
f 77//213 76//215 73//203
f 73//206 76//216 77//214
usemtl material-3
f 78//217 79//219 80//221
f 80//222 79//220 78//218
f 80//221 81//223 82//225
f 82//226 81//224 80//222
f 84//229 83//227 85//231
f 85//232 83//228 84//230
f 84//229 85//231 86//233
f 86//234 85//232 84//230
f 86//233 85//231 87//235
f 87//236 85//232 86//234
f 86//233 87//235 88//237
f 88//238 87//236 86//234
usemtl material-4
f 89//239 90//240 91//241
f 91//242 90//243 89//244
f 92//245 90//240 89//239
f 89//244 90//243 92//246
f 90//240 93//247 91//241
f 91//242 93//248 90//243
f 92//245 94//249 90//240
f 90//243 94//250 92//246
f 95//251 92//245 89//239
f 89//244 92//246 95//252
f 90//240 96//253 93//247
f 93//248 96//254 90//243
f 92//245 97//255 94//249
f 94//250 97//256 92//246
f 94//249 98//257 90//240
f 90//243 98//258 94//250
f 95//251 99//259 92//245
f 92//246 99//260 95//252
f 90//240 98//257 96//253
f 96//254 98//258 90//243
f 99//259 97//255 92//245
f 92//246 97//256 99//260
f 94//249 97//255 100//261
f 100//262 97//256 94//250
f 94//249 100//261 98//257
f 98//258 100//262 94//250
f 95//251 101//263 99//259
f 99//260 101//264 95//252
f 96//253 98//257 102//265
f 102//266 98//258 96//254
f 97//255 103//267 100//261
f 100//262 103//268 97//256
usemtl material-7
f 104//269 105//270 106//271
f 106//272 105//273 104//274
f 104//269 105//270 107//275
f 107//276 105//273 104//274
f 104//269 107//275 109//279
f 109//280 107//276 104//274
f 104//269 108//277 110//281
f 110//282 108//278 104//274
f 109//279 111//283 104//269
f 104//274 111//284 109//280
f 104//269 112//285 110//281
f 110//282 112//286 104//274
f 109//279 113//287 111//283
f 111//284 113//288 109//280
f 111//283 112//285 104//269
f 104//274 112//286 111//284
f 112//285 114//289 110//281
f 110//282 114//290 112//286
f 109//279 115//291 113//287
f 113//288 115//292 109//280
f 113//287 116//293 111//283
f 111//284 116//294 113//288
f 111//283 117//295 112//285
f 112//286 117//296 111//284
f 112//285 118//297 114//289
f 114//290 118//298 112//286
f 111//283 116//293 117//299
f 117//300 116//294 111//284
f 117//295 118//297 112//285
f 112//286 118//298 117//296
f 118//297 119//301 114//289
f 114//290 119//302 118//298
f 122//307 107//309 120//303
f 120//304 107//310 122//308
f 105//311 122//307 121//305
f 121//306 122//308 105//312
usemtl material-8
f 123//313 124//313 125//313
f 125//314 124//314 123//314