mtllib new-8.mtl
v 0.288213 0.567964 -0.223477
v 0.290754 0.568758 -0.219602
v 0.299678 0.702714 -0.251639
v 0.325608 0.728137 -0.247192
v 0.143170 0.711964 -0.274830
v 0.147384 0.680421 -0.264107
v 0.046036 0.657964 -0.266147
v 0.325310 0.676255 -0.227536
v -0.005148 0.706646 -0.282735
v 0.147851 0.638230 -0.254757
v 0.248585 0.646876 -0.237151
v -0.054971 0.655490 -0.266082
v 0.044468 0.515720 -0.247307
v 0.324636 0.636537 -0.212856
v -0.147590 0.658790 -0.261455
v 0.239860 0.580514 -0.226142
v -0.142870 0.710006 -0.277791
v -0.140922 0.516989 -0.238630
v -0.239903 0.665450 -0.248917
v -0.239397 0.603774 -0.233686
v -0.236306 0.716771 -0.266766
v -0.327106 0.627134 -0.209499
v 0.340727 0.739652 -0.249671
v 0.152656 0.726594 -0.285358
v 0.163128 0.713479 -0.272219
v -0.004962 0.707484 -0.281361
v -0.001699 0.721046 -0.292541
v -0.156463 0.724128 -0.285277
v -0.166338 0.711296 -0.275769
v -0.327865 0.728137 -0.247192
v -0.345963 0.744986 -0.251861
v -0.317046 0.755200 -0.265254
v -0.188645 0.741719 -0.291244
v -0.326126 0.764515 -0.288387
v -0.192227 0.752379 -0.316006
v -0.189393 0.727408 -0.281909
v -0.063013 0.746839 -0.326284
v -0.063782 0.735631 -0.300994
v 0.009758 0.719684 -0.293976
v 0.065824 0.746952 -0.326059
v 0.062275 0.735711 -0.301026
v 0.186697 0.741743 -0.291143
v 0.193016 0.752420 -0.315507
v 0.187136 0.727408 -0.281909
v 0.309628 0.757283 -0.269286
vn -0.825363 0.171677 0.537869
vn 0.825363 -0.171677 -0.537869
vn -0.839853 0.167384 0.516362
vn 0.839853 -0.167384 -0.516362
vn -0.820349 0.183024 0.541783
vn 0.820349 -0.183024 -0.541783
vn -0.174819 0.323299 0.930009
vn -0.105886 0.290759 0.950919
vn -0.147765 0.262882 0.953446
vn 0.147765 -0.262882 -0.953446
vn 0.105886 -0.290759 -0.950919
vn 0.174819 -0.323299 -0.930009
vn -0.051938 0.228866 0.972071
vn 0.051938 -0.228866 -0.972071
vn -0.206728 0.294062 0.933162
vn 0.206728 -0.294062 -0.933162
vn 0.007764 0.284917 0.958521
vn -0.007764 -0.284917 -0.958521
vn -0.138525 0.172503 0.975220
vn 0.138525 -0.172503 -0.975220
vn -0.217070 0.224058 0.950094
vn 0.217070 -0.224058 -0.950094
vn 0.033170 0.190956 0.981038
vn -0.033170 -0.190956 -0.981038
vn -0.038947 0.192078 0.980607
vn 0.038947 -0.192078 -0.980607
vn -0.290936 0.285984 0.913000
vn 0.290936 -0.285984 -0.913000
vn 0.107765 0.235841 0.965798
vn -0.107765 -0.235841 -0.965798
vn -0.268859 0.210255 0.939951
vn 0.268859 -0.210255 -0.939951
vn 0.108308 0.302128 0.947095
vn -0.108308 -0.302128 -0.947095
vn 0.166126 0.215589 0.962249
vn -0.166126 -0.215589 -0.962249
vn 0.206229 0.275191 0.939010
vn -0.206229 -0.275191 -0.939010
vn 0.269506 0.228872 0.935406
vn -0.269506 -0.228872 -0.935406
vn 0.217871 0.319340 0.922255
vn -0.217871 -0.319340 -0.922255
vn 0.291309 0.297116 0.909319
vn -0.291309 -0.297116 -0.909319
vn -0.697327 -0.564675 -0.441450
vn -0.129071 0.575497 0.807554
vn 0.129071 -0.575497 -0.807554
vn 0.697327 0.564675 0.441450
vn -0.143760 0.578444 0.802954
vn 0.143760 -0.578444 -0.802954
vn -0.007963 0.633150 0.773988
vn 0.007963 -0.633150 -0.773988
vn -0.004854 0.636804 0.771010
vn 0.004854 -0.636804 -0.771010
vn 0.124507 0.537938 0.833739
vn -0.124507 -0.537938 -0.833739
vn 0.122048 0.528558 0.840078
vn -0.122048 -0.528558 -0.840078
vn 0.177748 0.411784 0.893778
vn -0.177748 -0.411784 -0.893778
vn -0.137425 0.567207 0.812029
vn 0.137425 -0.567207 -0.812029
vn 0.071433 0.864052 0.498309
vn -0.071433 -0.864052 -0.498309
vn 0.148453 0.751920 0.642322
vn -0.148453 -0.751920 -0.642322
vn 0.028542 0.931075 0.363710
vn -0.028542 -0.931075 -0.363710
vn 0.130555 0.924547 0.358005
vn -0.130555 -0.924547 -0.358005
vn 0.127075 0.577097 0.806728
vn -0.127075 -0.577097 -0.806728
vn 0.048274 0.915564 0.399265
vn -0.048274 -0.915564 -0.399265
vn 0.041373 0.758251 0.650649
vn -0.041373 -0.758251 -0.650649
vn -0.025556 0.564144 0.825281
vn 0.025556 -0.564144 -0.825281
vn -0.024830 0.913912 0.405151
vn 0.024830 -0.913912 -0.405151
vn -0.050371 0.795488 0.603872
vn 0.050371 -0.795488 -0.603872
vn -0.133432 0.738248 0.661201
vn 0.133432 -0.738248 -0.661201
vn -0.113942 0.933137 0.340988
vn 0.113942 -0.933137 -0.340988
vn -0.173661 0.556975 0.812171
vn 0.173661 -0.556975 -0.812171
vn -0.196994 0.796154 0.572130
vn 0.196994 -0.796154 -0.572130
usemtl material-2
f 3//5 1//1 2//3
f 2//4 1//2 3//6
usemtl material-3
f 4//7 5//8 6//9
f 6//10 5//11 4//12
f 6//9 5//8 7//13
f 7//14 5//11 6//10
f 4//7 6//9 8//15
f 8//16 6//10 4//12
f 5//8 9//17 7//13
f 7//14 9//18 5//11
f 10//19 6//9 7//13
f 7//14 6//10 10//20
f 8//15 6//9 11//21
f 11//22 6//10 8//16
f 7//13 9//17 12//23
f 12//24 9//18 7//14
f 11//21 6//9 10//19
f 10//20 6//10 11//22
f 10//19 7//13 13//25
f 13//26 7//14 10//20
f 9//17 15//29 12//23
f 12//24 15//30 9//18
f 7//13 12//23 13//25
f 13//26 12//24 7//14
f 11//21 10//19 16//31
f 16//32 10//20 11//22
f 14//27 11//21 16//31
f 16//32 11//22 14//28
f 9//17 17//33 15//29
f 15//30 17//34 9//18
f 12//23 15//29 18//35
f 18//36 15//30 12//24
f 17//33 19//37 15//29
f 15//30 19//38 17//34
f 17//33 21//41 19//37
f 19//38 21//42 17//34
f 15//29 19//37 20//39
f 20//40 19//38 15//30
f 21//41 22//43 19//37
f 19//38 22//44 21//42
usemtl material-7
f 23//45 24//46 25//49
f 25//50 24//47 23//48
f 25//49 24//46 26//51
f 26//52 24//47 25//50
f 24//46 27//53 26//51
f 26//52 27//54 24//47
f 27//53 28//55 26//51
f 26//52 28//56 27//54
f 26//51 28//55 29//57
f 29//58 28//56 26//52
f 28//55 30//59 29//57
f 29//58 30//60 28//56
f 32//63 33//65 35//69
f 35//70 33//66 32//64
f 33//65 31//61 36//71
f 36//72 31//62 33//66
f 32//63 35//69 34//67
f 34//68 35//70 32//64
f 33//65 37//73 35//69
f 35//70 37//74 33//66
f 38//75 33//65 36//71
f 36//72 33//66 38//76
f 33//65 38//75 37//73
f 37//74 38//76 33//66
f 39//77 38//75 36//71
f 36//72 38//76 39//78
f 38//75 40//79 37//73
f 37//74 40//80 38//76
f 41//81 38//75 39//77
f 39//78 38//76 41//82
f 38//75 41//81 40//79
f 40//80 41//82 38//76
f 42//83 41//81 39//77
f 39//78 41//82 42//84
f 41//81 43//85 40//79
f 40//80 43//86 41//82
f 42//83 43//85 41//81
f 41//82 43//86 42//84
f 44//87 42//83 39//77
f 39//78 42//84 44//88
f 45//89 43//85 42//83
f 42//84 43//86 45//90
f 45//89 42//83 44//87
f 44//88 42//84 45//90