# SSTK version 0.8.0
# 30
mtllib original-30.mtl
o mesh30/mesh30-geometry#mesh30-geometry
v -0.346500 -0.062418 0.446033
v -0.356359 -0.026753 0.426833
v -0.361694 -0.050141 0.439153
v -0.370357 -0.024235 0.417072
v -0.356131 -0.006306 0.340537
v -0.384585 -0.042736 0.406686
v -0.365487 -0.006048 0.339214
v -0.380101 -0.014380 0.331486
v -0.352447 -0.013566 0.177173
v -0.384064 -0.028852 0.336459
v -0.356042 -0.019428 0.036574
v -0.381475 -0.035838 0.194837
v -0.343925 -0.018876 0.014076
v -0.370003 -0.027780 0.034925
v -0.334074 -0.013260 -0.124125
v -0.357520 -0.018372 -0.124595
v -0.374629 -0.042486 0.035408
v -0.363834 -0.036366 -0.125937
vn -0.020274999057668754 0.4695689781756083 0.8826629589760332
vn -0.23333198378062775 0.4943119656393879 0.8373839417917696
vn -0.4323831038201681 0.43202810373492845 0.7914521900367953
vn 0.4323831038201681 -0.43202810373492845 -0.7914521900367953
vn 0.23333198378062775 -0.4943119656393879 -0.8373839417917696
vn 0.020274999057668754 -0.4695689781756083 -0.8826629589760332
vn -0.48839834777540053 0.7736155508709424 0.40371528747485824
vn 0.48839834777540053 -0.7736155508709424 -0.40371528747485824
vn 0.014244003375985881 0.9729512306001713 0.23057105464788266
vn 0.014338001316966989 0.9901580909475101 0.13921701278729204
vn -0.014338001316966989 -0.9901580909475101 -0.13921701278729204
vn -0.014244003375985881 -0.9729512306001713 -0.23057105464788266
vn -0.8846497670938632 0.37427890146173515 0.27804692679720494
vn 0.8846497670938632 -0.37427890146173515 -0.27804692679720494
vn -0.19927501733842184 0.9786060851460727 0.051182004453218445
vn 0.19927501733842184 -0.9786060851460727 -0.051182004453218445
vn -0.7925784604470052 0.6091983539126681 0.02639601533471677
vn 0.7925784604470052 -0.6091983539126681 -0.02639601533471677
vn -0.01288900048636644 0.9990470376990406 -0.04170000157354958
vn 0.01288900048636644 -0.9990470376990406 0.04170000157354958
vn -0.9636684649935812 0.266951851794513 0.00893299504060799
vn 0.9636684649935812 -0.266951851794513 -0.00893299504060799
vn -0.25706801727638523 0.9662060649343638 -0.019023001278450354
vn 0.25706801727638523 -0.9662060649343638 0.019023001278450354
vn -0.9508074773767841 0.30664515395890435 -0.04397602207926683
vn 0.9508074773767841 -0.30664515395890435 0.04397602207926683
vn -0.041199010619437745 0.9991482575399885 0.0023240005990333096
vn 0.041199010619437745 -0.9991482575399885 -0.0023240005990333096
vn -0.820486585141165 0.5700107117881217 -0.04346897802098181
vn 0.820486585141165 -0.5700107117881217 0.04346897802098181
vn -0.09011198958404584 0.9955948849201895 0.025896997006592187
vn 0.09011198958404584 -0.9955948849201895 -0.025896997006592187
vn -0.36860703725843263 0.9295370939566847 0.009468000957016118
vn 0.36860703725843263 -0.9295370939566847 -0.009468000957016118
vn -0.9492142596860728 0.3100380848202309 -0.05356001465295082
vn 0.9492142596860728 -0.3100380848202309 0.05356001465295082
vn -0.9472361650724928 0.31601305507080985 -0.05366000935119649
vn 0.9472361650724928 -0.31601305507080985 0.05366000935119649
vn -0.9412212846131236 0.3340241010045611 -0.050303015210980156
vn 0.9412212846131236 -0.3340241010045611 0.050303015210980156
usemtl material_0_0
f 1//1 2//2 3//3
f 3//4 2//5 1//6
f 2//2 4//7 3//3
f 3//4 4//8 2//5
f 2//9 5//10 4//7
f 4//8 5//11 2//12
f 4//7 6//13 3//3
f 3//4 6//14 4//8
f 4//7 5//10 7//15
f 7//16 5//11 4//8
f 8//17 6//13 4//7
f 4//8 6//14 8//18
f 5//10 9//19 7//15
f 7//16 9//20 5//11
f 4//7 7//15 8//17
f 8//18 7//16 4//8
f 8//17 10//21 6//13
f 6//14 10//22 8//18
f 7//15 9//19 11//23
f 11//24 9//20 7//16
f 7//15 11//23 8//17
f 8//18 11//24 7//16
f 8//17 12//25 10//21
f 10//22 12//26 8//18
f 9//19 13//27 11//23
f 11//24 13//28 9//20
f 8//17 11//23 14//29
f 14//30 11//24 8//18
f 8//17 14//29 12//25
f 12//26 14//30 8//18
f 11//23 13//27 15//31
f 15//32 13//28 11//24
f 11//23 16//33 14//29
f 14//30 16//34 11//24
f 14//29 17//35 12//25
f 12//26 17//36 14//30
f 11//23 15//31 16//33
f 16//34 15//32 11//24
f 16//37 17//35 14//29
f 14//30 17//36 16//38
f 16//37 18//39 17//35
f 17//36 18//40 16//38
