# SSTK version 0.8.0
# 8
mtllib original-8.mtl
o mesh8/mesh8-geometry#mesh8-geometry
v 0.429731 -0.653133 -0.303001
v 0.429731 -0.683754 -0.290229
v 0.425372 -0.683754 -0.310551
v 0.425372 -0.653133 -0.282682
v 0.414308 -0.653133 -0.316937
v 0.414308 -0.683754 -0.276296
v 0.405598 -0.683754 -0.316937
v 0.405598 -0.653133 -0.276296
v 0.394534 -0.653133 -0.310551
v 0.394534 -0.683754 -0.282682
v 0.390175 -0.683754 -0.303001
v 0.390175 -0.653133 -0.290229
vn 0.9618332305312545 0.032057007683392466 -0.271752065133271
vn 0.9618142642580245 -0.03202400879858161 0.2718230746832641
vn 0.7162387042181864 -0.03201298677974364 -0.697120712113256
vn -0.7162387042181864 0.03201298677974364 0.697120712113256
vn -0.9618142642580245 0.03202400879858161 -0.2718230746832641
vn -0.9618332305312545 -0.032057007683392466 0.271752065133271
vn 0.7161922032432009 0.03204100909269497 0.697167197844227
vn -0.7161922032432009 -0.03204100909269497 -0.697167197844227
vn 0.2455619805336887 0.032049997459316686 -0.9688509231967684
vn -0.2455619805336887 -0.032049997459316686 0.9688509231967684
vn 0.2455179595113911 -0.032026994718396706 0.9688628402238734
vn -0.2455179595113911 0.032026994718396706 -0.9688628402238734
vn -0.2455619805336887 -0.032049997459316686 -0.9688509231967684
vn 0.2455619805336887 0.032049997459316686 0.9688509231967684
vn -0.2455179595113911 0.032026994718396706 0.9688628402238734
vn 0.2455179595113911 -0.032026994718396706 -0.9688628402238734
vn -0.7162387042181864 0.03201298677974364 -0.697120712113256
vn 0.7162387042181864 -0.03201298677974364 0.697120712113256
vn -0.7161922032432009 -0.03204100909269497 0.697167197844227
vn 0.7161922032432009 0.03204100909269497 -0.697167197844227
vn -0.9618332305312545 -0.032057007683392466 -0.271752065133271
vn 0.9618332305312545 0.032057007683392466 0.271752065133271
vn -0.9618142642580245 0.03202400879858161 0.2718230746832641
vn 0.9618142642580245 -0.03202400879858161 -0.2718230746832641
usemtl material_0_0
f 1//1 2//2 3//3
f 3//4 2//5 1//6
f 4//7 2//2 1//1
f 1//6 2//5 4//8
f 1//1 3//3 5//9
f 5//10 3//4 1//6
f 2//2 4//7 6//11
f 6//12 4//8 2//5
f 3//3 7//13 5//9
f 5//10 7//14 3//4
f 4//7 8//15 6//11
f 6//12 8//16 4//8
f 5//9 7//13 9//17
f 9//18 7//14 5//10
f 6//11 8//15 10//19
f 10//20 8//16 6//12
f 7//13 11//21 9//17
f 9//18 11//22 7//14
f 8//15 12//23 10//19
f 10//20 12//24 8//16
f 9//17 11//21 12//23
f 12//24 11//22 9//18
f 12//23 11//21 10//19
f 10//20 11//22 12//24
