# SSTK version 0.8.0
# 12
mtllib original-12.mtl
o mesh12/mesh12-geometry#mesh12-geometry
v 0.366045 -0.726140 0.486672
v 0.306101 -0.701395 0.490315
v 0.364791 -0.688596 0.497599
v 0.306101 -0.727563 0.488428
v 0.305887 -0.672265 0.517148
v 0.364532 -0.669934 0.526199
v 0.306101 -0.674180 0.553533
v 0.364672 -0.683471 0.569496
v 0.306228 -0.692996 0.576764
v 0.364967 -0.726449 0.583488
v 0.306101 -0.727563 0.582014
vn 0.38483207940933806 0.907394187238995 0.1689380348600292
vn 0.028671993060862423 0.7858958097990909 -0.6176938505069878
vn 0.01823400385236222 0.6252591321006993 -0.7802041648364821
vn -0.01823400385236222 -0.6252591321006993 0.7802041648364821
vn -0.028671993060862423 -0.7858958097990909 0.6176938505069878
vn -0.38483207940933806 -0.907394187238995 -0.1689380348600292
vn 0.030920994308141193 -0.07186698677090596 0.9969348164867482
vn -0.030920994308141193 0.07186698677090596 -0.9969348164867482
vn -0.019025007702133244 0.8982273636406852 -0.4391191777741418
vn 0.019025007702133244 -0.8982273636406852 0.4391191777741418
vn 0.026162990548490552 0.9972146397512902 -0.06984597476779694
vn -0.026162990548490552 -0.9972146397512902 0.06984597476779694
vn -0.009014001585968648 0.941083165578892 0.33805505947910264
vn 0.009014001585968648 -0.941083165578892 -0.33805505947910264
vn 0.032216002102802954 0.7354800480062552 0.6767800441747884
vn -0.032216002102802954 -0.7354800480062552 -0.6767800441747884
vn 0.04238198011747349 0.8453426034270536 0.5325407501708143
vn -0.04238198011747349 -0.8453426034270536 -0.5325407501708143
vn 0.501903145355689 0.8391822430347654 -0.20944306065660412
vn -0.501903145355689 -0.8391822430347654 0.20944306065660412
vn 0.02760000182896938 -0.15019500995297305 -0.9882710654897608
vn -0.02760000182896938 0.15019500995297305 0.9882710654897608
usemtl material_0_0
f 1//1 2//2 3//3
f 3//4 2//5 1//6
f 1//1 2//2 4//7
f 4//8 2//5 1//6
f 3//3 2//2 5//9
f 5//10 2//5 3//4
f 6//11 3//3 5//9
f 5//10 3//4 6//12
f 7//13 6//11 5//9
f 5//10 6//12 7//14
f 8//15 6//11 7//13
f 7//14 6//12 8//16
f 9//17 8//15 7//13
f 7//14 8//16 9//18
f 10//19 8//15 9//17
f 9//18 8//16 10//20
f 10//19 11//21 9//17
f 9//18 11//22 10//20
