# SSTK version 0.8.0
# 27
mtllib original-27.mtl
o mesh27/mesh27-geometry#mesh27-geometry
v 0.351124 -0.026930 -0.131795
v 0.333235 -0.030995 -0.153012
v 0.337072 -0.064557 -0.148626
v 0.344670 -0.070645 -0.130064
vn -0.8404836511518698 0.07377596937881072 0.536790777201545
vn -0.7642237744772152 -0.003082999090205561 0.6449438096767872
vn 0.8404836511518698 -0.07377596937881072 -0.536790777201545
vn 0.7642237744772152 0.003082999090205561 -0.6449438096767872
vn -0.8970598563408093 0.14890797615320853 0.4160649333694946
vn 0.8970598563408093 -0.14890797615320853 -0.4160649333694946
usemtl material_0_0
f 1//1 2//2 3//1
f 3//3 2//4 1//3
f 1//1 3//1 4//5
f 4//6 3//3 1//3
