# SSTK version 0.8.0
# 14
mtllib original-14.mtl
o mesh14/mesh14-geometry#mesh14-geometry
v 0.295557 -0.750185 0.557155
v 0.316394 -0.757307 0.542122
v 0.297926 -0.753826 0.515946
v 0.316409 -0.739107 0.569298
v 0.316416 -0.749254 0.510314
v 0.296139 -0.724085 0.496790
v 0.296620 -0.710421 0.575414
v 0.295623 -0.680191 0.546361
v 0.316409 -0.706518 0.574076
v 0.316408 -0.720146 0.494933
v 0.299272 -0.686543 0.506866
v 0.316416 -0.681243 0.552981
v 0.315987 -0.680940 0.513169
vn 0.17185102954927153 0.8124441396973445 -0.5571370957980605
vn -0.0005269997321519272 0.9905574965482897 -0.13709693032036577
vn 0.059790985381972826 0.9941427569465406 0.09002897798922299
vn -0.059790985381972826 -0.9941427569465406 -0.09002897798922299
vn 0.0005269997321519272 -0.9905574965482897 0.13709693032036577
vn -0.17185102954927153 -0.8124441396973445 0.5571370957980605
vn 0.0314679861482833 0.491912783467665 -0.8700756170062838
vn -0.0314679861482833 -0.491912783467665 0.8700756170062838
vn -0.1627710208753034 0.9565121226722094 0.24205403104331047
vn 0.1627710208753034 -0.9565121226722094 -0.24205403104331047
vn 0.9983909051039472 -0.0066159993711559055 0.05631899464693613
vn 0.999585457347436 0.028226012914448227 0.005675002596524257
vn 0.9946050449735546 0.09137400413170413 0.04910800222054114
vn -0.9946050449735546 -0.09137400413170413 -0.04910800222054114
vn -0.999585457347436 -0.028226012914448227 -0.005675002596524257
vn -0.9983909051039472 0.0066159993711559055 -0.05631899464693613
vn 0.10489795962646149 0.2760578937497541 -0.9553996322820387
vn -0.10489795962646149 -0.2760578937497541 0.9553996322820387
vn 0.054819990149232396 0.5065249089810278 0.8604808453776295
vn 0.11907701693888548 0.5426920771987674 0.8314481182747504
vn -0.11907701693888548 -0.5426920771987674 -0.8314481182747504
vn -0.054819990149232396 -0.5065249089810278 -0.8604808453776295
vn 0.9988808281775292 -0.03964999317960701 0.025786995564250344
vn -0.9988808281775292 0.03964999317960701 -0.025786995564250344
vn 0.9990894534863064 -0.007422003368844383 -0.04201401907014658
vn -0.9990894534863064 0.007422003368844383 0.04201401907014658
vn -0.09506199305248955 0.14441798944535603 -0.984939928016653
vn 0.09506199305248955 -0.14441798944535603 0.984939928016653
vn -0.009781001586840483 0.4671780757935757 0.8841091434352268
vn 0.009781001586840483 -0.4671780757935757 -0.8841091434352268
vn 0.9877196403101058 -0.11171995931584358 0.1092179602269764
vn -0.9877196403101058 0.11171995931584358 -0.1092179602269764
vn 0.13345300137523314 -0.6593850067949624 -0.7398660076243191
vn 0.19201195136837115 -0.6767298286019511 -0.7107518199850663
vn -0.19201195136837115 0.6767298286019511 0.7107518199850663
vn -0.13345300137523314 0.6593850067949624 0.7398660076243191
vn 0.07428400479915544 -0.6390220412843398 -0.7655930494615233
vn -0.07428400479915544 0.6390220412843398 0.7655930494615233
vn -0.02872199997827181 -0.34747299973713663 0.9372499992909704
vn 0.13933296729758107 -0.2675139372126137 0.9534267762240878
vn -0.13933296729758107 0.2675139372126137 -0.9534267762240878
vn 0.02872199997827181 0.34747299973713663 -0.9372499992909704
vn 0.10369301639858522 -0.9908841567038829 0.08600201360083251
vn 0.25240208305266676 -0.9514173130629671 0.17634705802683268
vn -0.10369301639858522 0.9908841567038829 -0.08600201360083251
vn -0.25240208305266676 0.9514173130629671 -0.17634705802683268
vn -0.04831699767356078 -0.9988069519079459 -0.007080999659053415
vn 0.04831699767356078 0.9988069519079459 0.007080999659053415
vn -0.19577603043955327 -0.4153060645724149 0.8883651381243549
vn 0.19577603043955327 0.4153060645724149 -0.8883651381243549
usemtl material_0_0
f 1//1 2//2 3//3
f 3//4 2//5 1//6
f 4//7 2//2 1//1
f 1//6 2//5 4//8
f 2//2 5//9 3//3
f 3//4 5//10 2//5
f 6//11 1//12 3//13
f 3//14 1//15 6//16
f 4//7 1//1 7//17
f 7//18 1//6 4//8
f 5//19 6//19 3//20
f 3//21 6//22 5//22
f 8//23 1//12 6//11
f 6//16 1//15 8//24
f 8//23 7//25 1//12
f 1//15 7//26 8//24
f 4//7 7//17 9//27
f 9//28 7//18 4//8
f 5//19 10//29 6//19
f 6//22 10//30 5//22
f 8//23 6//11 11//31
f 11//32 6//16 8//24
f 12//33 7//33 8//34
f 8//35 7//36 12//36
f 12//33 9//37 7//33
f 7//36 9//38 12//36
f 10//39 11//39 6//40
f 6//41 11//42 10//42
f 8//43 11//44 13//43
f 13//45 11//46 8//45
f 12//47 8//43 13//43
f 13//45 8//45 12//48
f 10//39 13//49 11//39
f 11//42 13//50 10//42
