# SSTK version 0.8.0
# 22
mtllib original-22.mtl
o mesh22/mesh22-geometry#mesh22-geometry
v 0.380982 -0.276112 -0.120022
v 0.366131 -0.282276 -0.110781
v 0.362788 -0.199287 -0.044057
v 0.384291 -0.346325 -0.172660
v 0.355434 -0.199303 -0.017645
v 0.368209 -0.259786 -0.083625
v 0.376727 -0.407083 -0.198335
v 0.397322 -0.372259 -0.192349
v 0.368580 -0.305676 -0.109275
v 0.403325 -0.416673 -0.215417
v 0.394014 -0.473476 -0.247915
v 0.380040 -0.425084 -0.186970
v 0.376389 -0.290306 -0.084979
v 0.424143 -0.553159 -0.266916
v 0.384689 -0.539328 -0.265346
v 0.387789 -0.555271 -0.251275
v 0.401859 -0.443011 -0.232897
v 0.394615 -0.404792 -0.168428
v 0.415819 -0.544093 -0.277811
v 0.406065 -0.542210 -0.281224
v 0.389377 -0.490911 -0.217264
v 0.390642 -0.374422 -0.145123
v 0.418245 -0.541944 -0.245725
v 0.413410 -0.651986 -0.318907
v 0.397479 -0.653150 -0.315196
v 0.388146 -0.653495 -0.292638
v 0.395199 -0.423690 -0.177757
v 0.406935 -0.553541 -0.241390
v 0.431295 -0.647932 -0.296812
v 0.407330 -0.653133 -0.276550
v 0.422568 -0.653013 -0.279781
vn -0.4227420338417694 0.5394610431854766 -0.7281970582943614
vn -0.9292218015884006 0.17592196243635494 -0.3249589306133142
vn -0.8107087765516671 0.3466559044543661 -0.4717848699662003
vn 0.8107087765516671 -0.3466559044543661 0.4717848699662003
vn 0.9292218015884006 -0.17592196243635494 0.3249589306133142
vn 0.4227420338417694 -0.5394610431854766 0.7281970582943614
vn -0.4791041650494969 0.46676416079841404 -0.7433642560860569
vn 0.4791041650494969 -0.46676416079841404 0.7433642560860569
vn -0.9888527534562956 0.03497399128018066 -0.14473096391524637
vn 0.9888527534562956 -0.03497399128018066 0.14473096391524637
vn 0.9334406423270836 -0.13399294865699377 0.3327678724910294
vn 0.9834227331291009 0.04415698801714187 0.17586895227453683
vn 0.9481518531346079 -0.07642498816203776 0.30849195221568004
vn -0.9481518531346079 0.07642498816203776 -0.30849195221568004
vn -0.9834227331291009 -0.04415698801714187 -0.17586895227453683
vn -0.9334406423270836 0.13399294865699377 -0.3327678724910294
vn -0.7007976893259413 0.32680485512253776 -0.6340987188945887
vn 0.7007976893259413 -0.32680485512253776 0.6340987188945887
vn -0.186351011842514 0.518040032921186 -0.8348100530517633
vn 0.186351011842514 -0.518040032921186 0.8348100530517633
vn -0.9083620212883725 -0.3110400072895336 0.2795220065508778
vn 0.9083620212883725 0.3110400072895336 -0.2795220065508778
vn 0.9899238985872515 0.08850499093310668 0.11053298867644858
vn -0.9899238985872515 -0.08850499093310668 -0.11053298867644858
vn 0.9233366608497351 0.24790490894218858 -0.293244892288385
vn -0.9233366608497351 -0.24790490894218858 0.293244892288385
vn -0.4177259624829887 0.4007699640058493 -0.8154069267662688
vn 0.4177259624829887 -0.4007699640058493 0.8154069267662688
vn -0.988574626744443 -0.1187669551572286 0.09281496495590671
vn -0.7381073707909143 -0.3912401965409315 0.5496622761248376
vn 0.7381073707909143 0.3912401965409315 -0.5496622761248376
vn 0.988574626744443 0.1187669551572286 -0.09281496495590671
vn 0.9874236866431175 0.05683798196258296 0.1475259531829412
vn -0.9874236866431175 -0.05683798196258296 -0.1475259531829412
vn -0.6268030501172935 -0.5515490441002087 0.5503740440062592
vn -0.5620096463802696 -0.5340736639577519 0.6315936025976406
vn 0.5620096463802696 0.5340736639577519 -0.6315936025976406
vn 0.6268030501172935 0.5515490441002087 -0.5503740440062592
vn 0.9033814220553822 0.3491431631179782 -0.24900011633163655
vn -0.9033814220553822 -0.3491431631179782 0.24900011633163655
vn 0.9853061277863305 0.13596801763396527 -0.10336601340574587
vn -0.9853061277863305 -0.13596801763396527 0.10336601340574587
vn -0.8885438049979766 0.13668497000277807 -0.43795790388467404
vn 0.8885438049979766 -0.13668497000277807 0.43795790388467404
vn -0.9886228264126764 -0.09512098329818362 0.1165199795408412
vn 0.9886228264126764 0.09512098329818362 -0.1165199795408412
vn -0.09836402517032443 0.4602751177795848 -0.8823102257739515
vn 0.09836402517032443 -0.4602751177795848 0.8823102257739515
vn 0.708202278347629 0.36259814251342637 -0.6057822380930631
vn 0.5402381752343841 0.4442351440943559 -0.7147012318241027
vn -0.5402381752343841 -0.4442351440943559 0.7147012318241027
vn -0.708202278347629 -0.36259814251342637 0.6057822380930631
vn 0.9730431328354789 0.22401203058111643 -0.0548240074843273
vn -0.9730431328354789 -0.22401203058111643 0.0548240074843273
vn 0.6469420192639928 0.32338900962955464 -0.690569020563074
vn -0.6469420192639928 -0.32338900962955464 0.690569020563074
vn 0.044524994098702204 0.38692194871775526 -0.9210368779267014
vn -0.044524994098702204 -0.38692194871775526 0.9210368779267014
vn -0.40156490772722137 -0.42785390168645815 0.8097448139344288
vn -0.4409651142626747 -0.3707060960571907 0.8173902118017703
vn 0.4409651142626747 0.3707060960571907 -0.8173902118017703
vn 0.40156490772722137 0.42785390168645815 -0.8097448139344288
vn -0.3167829075407446 -0.5637608354554308 0.7627727773699233
vn 0.3167829075407446 0.5637608354554308 -0.7627727773699233
vn 0.7016552094490229 0.4892601460476002 -0.5179811546210237
vn -0.7016552094490229 -0.4892601460476002 0.5179811546210237
vn 0.7818822010262402 -0.1821880468415549 0.5962111532891865
vn -0.7818822010262402 0.1821880468415549 -0.5962111532891865
vn 0.47979406280384745 0.2964120387995974 -0.8257951080945222
vn -0.47979406280384745 -0.2964120387995974 0.8257951080945222
vn -0.6146611305057871 0.23332004953886817 -0.7534941599830273
vn 0.6146611305057871 -0.23332004953886817 0.7534941599830273
vn -0.9924387352555896 -0.0007089998108661721 -0.12273896725797334
vn 0.9924387352555896 0.0007089998108661721 0.12273896725797334
vn -0.427915976545712 -0.46215897466883615 0.7767219574274823
vn 0.427915976545712 0.46215897466883615 -0.7767219574274823
vn 0.019366991055376613 -0.3776948255620628 0.925727572453745
vn -0.019366991055376613 0.3776948255620628 -0.925727572453745
vn 0.9302933260055383 -0.1388490486572972 0.3395221189797756
vn -0.9302933260055383 0.1388490486572972 -0.3395221189797756
vn 0.4074757926835002 -0.39408279949761904 0.8238095808602085
vn 0.5065568706451474 -0.35332290977511993 0.7864877991617146
vn -0.5065568706451474 0.35332290977511993 -0.7864877991617146
vn -0.4074757926835002 0.39408279949761904 -0.8238095808602085
vn 0.9333805763622172 -0.05594903454851152 0.3545002189037755
vn -0.9333805763622172 0.05594903454851152 -0.3545002189037755
vn 0.7279834316748405 0.25561180044790727 -0.6361625033579881
vn -0.7279834316748405 -0.25561180044790727 0.6361625033579881
vn -0.29356289842696115 -0.3349228841163672 0.8953476902088574
vn -0.6074352711631138 -0.3101711384624432 0.7313113264622025
vn 0.6074352711631138 0.3101711384624432 -0.7313113264622025
vn 0.29356289842696115 0.3349228841163672 -0.8953476902088574
vn 0.5870659056758349 -0.23275596260298612 0.7753568754230331
vn -0.5870659056758349 0.23275596260298612 -0.7753568754230331
usemtl material_0_0
f 1//1 2//2 3//3
f 3//4 2//5 1//6
f 4//7 2//2 1//1
f 1//6 2//5 4//8
f 3//3 2//2 5//9
f 5//10 2//5 3//4
f 3//11 6//12 1//13
f 1//14 6//15 3//16
f 2//2 4//7 7//17
f 7//18 4//8 2//5
f 8//19 4//7 1//1
f 1//6 4//8 8//20
f 5//9 2//2 9//21
f 9//22 2//5 5//10
f 3//11 5//23 6//12
f 6//15 5//24 3//16
f 6//12 10//25 1//13
f 1//14 10//26 6//15
f 11//27 7//17 4//7
f 4//8 7//18 11//28
f 2//2 7//29 12//30
f 12//31 7//32 2//5
f 8//19 11//27 4//7
f 4//8 11//28 8//20
f 1//13 10//25 8//33
f 8//34 10//26 1//14
f 2//2 12//30 9//21
f 9//22 12//31 2//5
f 5//35 9//21 13//36
f 13//37 9//22 5//38
f 5//23 13//39 6//12
f 6//15 13//40 5//24
f 6//12 14//41 10//25
f 10//26 14//42 6//15
f 7//17 11//27 15//43
f 15//44 11//28 7//18
f 7//29 16//45 12//30
f 12//31 16//46 7//32
f 17//47 11//27 8//19
f 8//20 11//28 17//48
f 10//25 17//49 8//50
f 8//51 17//52 10//26
f 13//36 9//21 12//30
f 12//31 9//22 13//37
f 6//12 13//39 18//53
f 18//54 13//40 6//15
f 6//12 18//53 14//41
f 14//42 18//54 6//15
f 10//25 14//41 19//55
f 19//56 14//42 10//26
f 20//57 15//43 11//27
f 11//28 15//44 20//58
f 7//29 15//43 16//45
f 16//46 15//44 7//32
f 21//59 12//30 16//60
f 16//61 12//31 21//62
f 20//57 11//27 17//47
f 17//48 11//28 20//58
f 10//25 20//57 17//49
f 17//52 20//58 10//26
f 22//63 13//36 12//30
f 12//31 13//37 22//64
f 13//39 22//65 18//53
f 18//54 22//66 13//40
f 18//53 23//67 14//41
f 14//42 23//68 18//54
f 19//55 14//41 24//69
f 24//70 14//42 19//56
f 19//55 20//57 10//25
f 10//26 20//58 19//56
f 20//57 25//71 15//43
f 15//44 25//72 20//58
f 15//43 26//73 16//45
f 16//46 26//74 15//44
f 27//75 12//30 21//59
f 21//62 12//31 27//76
f 28//77 21//59 16//60
f 16//61 21//62 28//78
f 27//75 22//63 12//30
f 12//31 22//64 27//76
f 22//79 27//79 18//79
f 18//80 27//80 22//80
f 23//67 18//81 27//82
f 27//83 18//84 23//68
f 23//67 29//85 14//41
f 14//42 29//86 23//68
f 14//41 29//87 24//69
f 24//70 29//88 14//42
f 19//55 24//69 20//57
f 20//58 24//70 19//56
f 24//69 25//71 20//57
f 20//58 25//72 24//70
f 15//43 25//71 26//73
f 26//74 25//72 15//44
f 30//89 16//60 26//90
f 26//91 16//61 30//92
f 28//77 27//75 21//59
f 21//62 27//76 28//78
f 30//89 28//77 16//60
f 16//61 28//78 30//92
f 23//67 27//82 28//77
f 28//78 27//83 23//68
f 23//67 31//93 29//85
f 29//86 31//94 23//68
f 31//93 28//77 30//89
f 30//92 28//78 31//94
f 31//93 23//67 28//77
f 28//78 23//68 31//94
