# SSTK version 0.8.0
# 21
mtllib original-21.mtl
o mesh21/mesh21-geometry#mesh21-geometry
v -0.415829 -0.550287 -0.284556
v -0.420392 -0.651986 -0.318907
v -0.435863 -0.639870 -0.305148
v -0.424948 -0.433091 -0.215913
v -0.410608 -0.459161 -0.242858
v -0.425392 -0.428744 -0.195493
v -0.404305 -0.372254 -0.192345
v -0.410527 -0.266349 -0.079965
v -0.438276 -0.647932 -0.296812
v -0.410400 -0.268968 -0.102603
v -0.400432 -0.277764 -0.074492
v -0.414183 -0.430505 -0.183216
v -0.396943 -0.289685 -0.133835
v -0.396718 -0.171777 0.021784
v -0.422652 -0.563766 -0.247114
v -0.388409 -0.211793 -0.066100
v -0.395314 -0.155318 0.008991
v -0.389448 -0.285346 -0.077921
v -0.376190 -0.179915 0.027652
v -0.429791 -0.653622 -0.279745
v -0.408511 -0.525635 -0.230042
v -0.397624 -0.374424 -0.145124
v -0.379791 -0.149162 0.000929
v -0.414311 -0.653133 -0.276550
vn -0.6270520859763715 0.319536043812229 -0.7104240974076755
vn -0.49325417912134156 0.2981561082730251 -0.8171922967568989
vn -0.8698042407527143 0.21793406032186793 -0.44265712252286066
vn 0.8698042407527143 -0.21793406032186793 0.44265712252286066
vn 0.49325417912134156 -0.2981561082730251 0.8171922967568989
vn 0.6270520859763715 -0.319536043812229 0.7104240974076755
vn -0.8625688228775483 0.28754894095384387 -0.41628191451943153
vn 0.8625688228775483 -0.28754894095384387 0.41628191451943153
vn -0.5860899147541073 0.40369894128259887 -0.7025138978204148
vn 0.5860899147541073 -0.40369894128259887 0.7025138978204148
vn -0.9908667588225648 0.10802597370642718 -0.08070598035612642
vn 0.9908667588225648 -0.10802597370642718 0.08070598035612642
vn -0.6209201465067469 0.4652171097684552 -0.6308971488608308
vn 0.6209201465067469 -0.4652171097684552 0.6308971488608308
vn -0.9907802722813179 0.13206903629455718 -0.03020300830024087
vn 0.9907802722813179 -0.13206903629455718 0.03020300830024087
vn -0.9789039112931998 0.13029498819286411 -0.15738598573791868
vn 0.9789039112931998 -0.13029498819286411 0.15738598573791868
vn -0.6315870963495662 0.5257380802021389 -0.5698220869272207
vn 0.6315870963495662 -0.5257380802021389 0.5698220869272207
vn -0.9920591349691583 0.12566401709652783 -0.005218000709906435
vn 0.9920591349691583 -0.12566401709652783 0.005218000709906435
vn -0.7397049650082574 -0.3920079814560629 0.5469609741260117
vn -0.7241631836543242 -0.3229770819099052 0.609322154529602
vn -0.522974719408972 -0.5192227214220273 0.6759476373345874
vn 0.522974719408972 0.5192227214220273 -0.6759476373345874
vn 0.7241631836543242 0.3229770819099052 -0.609322154529602
vn 0.7397049650082574 0.3920079814560629 -0.5469609741260117
vn -0.7728579365027674 -0.21339498246768235 0.5976229508998979
vn -0.4313379404361166 -0.4588129366420672 0.7768128927291382
vn 0.4313379404361166 0.4588129366420672 -0.7768128927291382
vn 0.7728579365027674 0.21339498246768235 -0.5976229508998979
vn -0.5832972368788059 0.5382072185676106 -0.6083562470553472
vn 0.5832972368788059 -0.5382072185676106 0.6083562470553472
vn -0.990368018963567 0.13845800265119385 0.0007540000144375924
vn 0.990368018963567 -0.13845800265119385 -0.0007540000144375924
vn -0.6046741724491682 -0.5238241493912639 0.5999811711107546
vn 0.6046741724491682 0.5238241493912639 -0.5999811711107546
vn -0.792205895013713 -0.1944839742262075 0.5784339233436279
vn 0.792205895013713 0.1944839742262075 -0.5784339233436279
vn -0.5755813522383401 0.6055743705931581 -0.5495323362971319
vn 0.5755813522383401 -0.6055743705931581 0.5495323362971319
vn -0.9940447449609546 0.10562197290089076 0.026814993120158545
vn 0.9940447449609546 -0.10562197290089076 -0.026814993120158545
vn -0.035225000793813015 -0.627960014151393 0.77744801752018
vn 0.035225000793813015 0.627960014151393 -0.77744801752018
vn -0.3390780117000565 -0.6378520220094033 0.69149902386052
vn 0.3390780117000565 0.6378520220094033 -0.69149902386052
vn -0.9030221281564579 -0.08142901155636542 0.42180605986250935
vn 0.9030221281564579 0.08142901155636542 -0.42180605986250935
vn -0.19809304696370705 -0.3817280904997247 0.902797214034286
vn -0.17120799491786193 -0.44330198684102395 0.87986997388194
vn -0.08779803968678615 -0.37975717165920464 0.9209104162732435
vn 0.08779803968678615 0.37975717165920464 -0.9209104162732435
vn 0.17120799491786193 0.44330198684102395 -0.87986997388194
vn 0.19809304696370705 0.3817280904997247 -0.902797214034286
vn -0.6027031166516927 0.6101301180891704 -0.5142860995387986
vn 0.6027031166516927 -0.6101301180891704 0.5142860995387986
vn 0.2786629795971333 -0.5945719564672266 0.7542089447790857
vn -0.2786629795971333 0.5945719564672266 -0.7542089447790857
vn -0.22311604942958135 -0.32042207098695435 0.9206242039569501
vn 0.22311604942958135 0.32042207098695435 -0.9206242039569501
vn -0.42302018241903255 -0.42034218126419787 0.8027243461588943
vn 0.42302018241903255 0.42034218126419787 -0.8027243461588943
vn -0.5370920491565464 0.6496830594612703 -0.5380000492396498
vn 0.5370920491565464 -0.6496830594612703 0.5380000492396498
vn -0.1808239720908166 -0.32976794910213475 0.9265828569870433
vn 0.1808239720908166 0.32976794910213475 -0.9265828569870433
usemtl material_0_0
f 1//1 2//2 3//3
f 3//4 2//5 1//6
f 4//7 1//1 3//3
f 3//4 1//6 4//8
f 5//9 1//1 4//7
f 4//8 1//6 5//10
f 6//11 4//7 3//3
f 3//4 4//8 6//12
f 7//13 5//9 4//7
f 4//8 5//10 7//14
f 8//15 4//7 6//11
f 6//12 4//8 8//16
f 6//11 3//3 9//17
f 9//18 3//4 6//12
f 10//19 7//13 4//7
f 4//8 7//14 10//20
f 8//15 10//21 4//7
f 4//8 10//22 8//16
f 8//23 6//24 11//25
f 11//26 6//27 8//28
f 6//24 9//29 12//30
f 12//31 9//32 6//27
f 10//19 13//33 7//13
f 7//14 13//34 10//20
f 14//35 10//21 8//15
f 8//16 10//22 14//36
f 11//25 6//24 12//30
f 12//31 6//27 11//26
f 14//37 8//23 11//25
f 11//26 8//28 14//38
f 12//30 9//29 15//39
f 15//40 9//32 12//31
f 16//41 13//33 10//19
f 10//20 13//34 16//42
f 17//43 10//21 14//35
f 14//36 10//22 17//44
f 18//45 11//25 12//30
f 12//31 11//26 18//46
f 19//47 14//37 11//25
f 11//26 14//38 19//48
f 15//39 9//29 20//49
f 20//50 9//32 15//40
f 21//51 12//52 15//53
f 15//54 12//55 21//56
f 17//57 16//41 10//19
f 10//20 16//42 17//58
f 19//47 11//25 18//45
f 18//46 11//26 19//48
f 18//45 12//30 22//59
f 22//60 12//31 18//46
f 21//51 15//53 20//61
f 20//62 15//54 21//56
f 22//63 12//52 21//51
f 21//56 12//55 22//64
f 17//57 23//65 16//41
f 16//42 23//66 17//58
f 21//51 20//61 24//67
f 24//68 20//62 21//56
