# SSTK version 0.8.0
# 31
mtllib original-31.mtl
o mesh31/mesh31-geometry#mesh31-geometry
v -0.383603 -0.090439 0.415966
v -0.364798 -0.102853 0.433215
v -0.355051 -0.090552 0.445468
v -0.373034 -0.101519 0.414532
v -0.223504 -0.111080 0.457631
v -0.376112 -0.046354 0.426022
v -0.382880 -0.069404 0.290446
v -0.238098 -0.126837 0.425441
v -0.346500 -0.062418 0.446033
v -0.220577 -0.123666 0.449454
v -0.384585 -0.042736 0.406686
v -0.384170 -0.028195 0.339358
v -0.373212 -0.077071 0.283632
v -0.130404 -0.087619 0.460948
v -0.052378 -0.124730 0.464779
v -0.381475 -0.035838 0.194837
v -0.370422 -0.091523 0.051201
v -0.130571 -0.137933 0.442045
v -0.046776 -0.137474 0.455044
v -0.373966 -0.086116 0.016886
v -0.361501 -0.095580 0.016471
v -0.126783 -0.137542 0.430704
v 0.019241 -0.091382 0.463164
v 0.116267 -0.121575 0.462748
v -0.374413 -0.042619 0.030986
v -0.363632 -0.082482 -0.064442
v 0.049752 -0.141043 0.448682
v -0.363834 -0.036366 -0.125937
v -0.351636 -0.070697 -0.130113
v -0.363538 -0.062430 -0.123764
v 0.086956 -0.140500 0.432084
v 0.194175 -0.081640 0.457432
v 0.212404 -0.127844 0.443908
v 0.246453 -0.106185 0.455431
v 0.366260 -0.102228 0.414879
v 0.345893 -0.060411 0.445429
v 0.348212 -0.090580 0.445421
v 0.365698 -0.101724 0.430508
v 0.377180 -0.088948 0.404645
v 0.375241 -0.045814 0.418384
v 0.375893 -0.069420 0.290286
v 0.374834 -0.033961 0.408358
v 0.377188 -0.028195 0.339359
v 0.366230 -0.077075 0.283596
v 0.348344 -0.029529 0.431788
v 0.375441 -0.019130 0.328996
v 0.374493 -0.035838 0.194837
v 0.363440 -0.091523 0.051201
v 0.364031 -0.021294 0.406547
v 0.377082 -0.028852 0.336459
v 0.364093 -0.007265 0.337652
v 0.366776 -0.085971 0.015937
v 0.354519 -0.095580 0.016471
v 0.349278 -0.006048 0.344769
v 0.363021 -0.027780 0.034925
v 0.367432 -0.042619 0.030985
v 0.356651 -0.082482 -0.064442
v 0.337771 -0.017414 0.023850
v 0.356853 -0.036366 -0.125937
v 0.344670 -0.070645 -0.130064
v 0.356556 -0.062430 -0.123764
v 0.345465 -0.013566 0.177173
v 0.367647 -0.042486 0.035408
v 0.350539 -0.018372 -0.124598
v 0.327095 -0.013260 -0.124103
vn -0.18511798710264518 -0.029382997952857218 0.9822769315637863
vn -0.713434311646368 -0.12204305331152943 0.6900123014150343
vn -0.4765370278750342 -0.1391960081422707 0.8680650507774665
vn 0.4765370278750342 0.1391960081422707 -0.8680650507774665
vn 0.713434311646368 0.12204305331152943 -0.6900123014150343
vn 0.18511798710264518 0.029382997952857218 -0.9822769315637863
vn -0.301832832130586 -0.8369055345408891 0.4566027460526912
vn 0.11409102205773285 -0.019789003825897534 0.9932731920339946
vn 0.674600312695869 -0.33396715480299627 0.6583163051477819
vn -0.674600312695869 0.33396715480299627 -0.6583163051477819
vn -0.11409102205773285 0.019789003825897534 -0.9932731920339946
vn 0.301832832130586 0.8369055345408891 -0.4566027460526912
vn -0.10753399934372002 -0.28798899824240315 0.9515769941925257
vn 0.10753399934372002 0.28798899824240315 -0.9515769941925257
vn -0.7351710919269018 0.05532600691804732 0.675620084480554
vn 0.7351710919269018 -0.05532600691804732 -0.675620084480554
vn 0.9009907184918008 0.4319418650428089 0.04052098733950313
vn -0.9009907184918008 -0.4319418650428089 -0.04052098733950313
vn -0.14587300935731626 -0.9836360630973047 0.1057410067829686
vn 0.14587300935731626 0.9836360630973047 -0.1057410067829686
vn -0.2228189830288814 0.07976699392450727 0.9715909259982942
vn 0.2228189830288814 -0.07976699392450727 -0.9715909259982942
vn -0.12436697700572957 -0.7865558545733082 0.6048658881660538
vn 0.12436697700572957 0.7865558545733082 -0.6048658881660538
vn 0.2044909860277449 0.19098198695077426 0.9600569344021922
vn -0.2044909860277449 -0.19098198695077426 -0.9600569344021922
vn 0.999762688171067 0.017633994499905072 0.012790996010450594
vn -0.999762688171067 -0.017633994499905072 -0.012790996010450594
vn 0.5125609951765449 0.858567991920446 0.01192599988777038
vn -0.5125609951765449 -0.858567991920446 -0.01192599988777038
vn -0.03710198959131655 0.06152498273962996 0.9974157201825397
vn 0.03710198959131655 -0.06152498273962996 -0.9974157201825397
vn -0.030829995259749856 -0.294584954706241 0.9551278531448057
vn 0.030829995259749856 0.294584954706241 -0.9551278531448057
vn 0.9994016788438213 0.016462994709642194 0.03041799022522604
vn -0.9994016788438213 -0.016462994709642194 -0.03041799022522604
vn 0.583571284156392 0.8118593953159502 0.018135008830418527
vn -0.583571284156392 -0.8118593953159502 -0.018135008830418527
vn -0.07211098684281081 -0.9809348210211013 0.1804629670731812
vn 0.07211098684281081 0.9809348210211013 -0.1804629670731812
vn -0.027983008397576163 -0.7643482293774986 0.6441961933204078
vn 0.027983008397576163 0.7643482293774986 -0.6441961933204078
vn 0.955597484077618 0.2867031452353924 0.06807903448683929
vn -0.955597484077618 -0.2867031452353924 -0.06807903448683929
vn 0.4776059246708055 0.8783448614652636 0.02007199683419473
vn -0.4776059246708055 -0.8783448614652636 -0.02007199683419473
vn -0.0405789853793739 -0.9976116405600917 -0.05589597986065412
vn 0.0405789853793739 0.9976116405600917 0.05589597986065412
vn 0.009033000605260742 0.05895000394997462 0.9982200668862369
vn -0.009033000605260742 -0.05895000394997462 -0.9982200668862369
vn 0.05162300961669649 -0.3790840706184408 0.9239211721145194
vn -0.05162300961669649 0.3790840706184408 -0.9239211721145194
vn 0.9984569098722942 -0.007566999316949703 0.05501399503405194
vn -0.9984569098722942 0.007566999316949703 -0.05501399503405194
vn 0.5754348470969114 0.8120427842260501 0.09726897415393479
vn -0.5754348470969114 -0.8120427842260501 -0.09726897415393479
vn 0.02461700832405814 -0.9545753227825405 0.29695110041180445
vn -0.02461700832405814 0.9545753227825405 -0.29695110041180445
vn 0.9974093036164251 0.003178000967399531 0.0718650218760753
vn -0.9974093036164251 -0.003178000967399531 -0.0718650218760753
vn -0.08267997367465924 0.9834236868774562 0.16137494861814383
vn 0.08267997367465924 -0.9834236868774562 -0.16137494861814383
vn 0.9011357660030072 0.4021688955692186 0.16190895795726823
vn 0.795167872308375 0.5740719078129571 0.1953189686348036
vn -0.795167872308375 -0.5740719078129571 -0.1953189686348036
vn -0.9011357660030072 -0.4021688955692186 -0.16190895795726823
vn 0.06415398937597193 -0.9969718348994838 -0.04394799272212511
vn -0.06415398937597193 0.9969718348994838 0.04394799272212511
vn 0.05010399653708745 0.05819799597767474 0.9970469310896022
vn -0.05010399653708745 -0.05819799597767474 -0.9970469310896022
vn 0.14437904701076382 -0.8818352871313482 0.4489111461684109
vn -0.14437904701076382 0.8818352871313482 -0.4489111461684109
vn 0.6383092263566196 0.7289352584943382 0.24741608773846113
vn -0.6383092263566196 -0.7289352584943382 -0.24741608773846113
vn 0.10835704634356012 -0.24735710579292525 0.9628464118027584
vn -0.10835704634356012 0.24735710579292525 -0.9628464118027584
vn 0.14621104834103585 -0.9847703255897428 -0.09407303110290105
vn -0.14621104834103585 0.9847703255897428 0.09407303110290105
vn -0.8682648464933935 -0.4866369139640611 -0.09643998294970184
vn 0.8682648464933935 0.4866369139640611 0.09643998294970184
vn 0.17548393709700436 -0.6688777602377999 0.7223627410658713
vn -0.17548393709700436 0.6688777602377999 -0.7223627410658713
vn 0.17106701712158542 -0.9845310985387691 0.037876003790895785
vn -0.17106701712158542 0.9845310985387691 -0.037876003790895785
vn -0.9253571543708695 -0.0686920114594084 -0.3728210621951333
vn 0.9253571543708695 0.0686920114594084 0.3728210621951333
vn 0.17777803669427944 -0.6769091397174454 0.714275147429977
vn -0.17777803669427944 0.6769091397174454 -0.714275147429977
vn 0.8846329017265787 0.020140997762546752 -0.46585294824863177
vn 0.5722098742128338 -0.763922832069154 -0.2983249344201318
vn -0.8729145440340799 0.235206877139955 -0.4274317767314971
vn 0.8729145440340799 -0.235206877139955 0.4274317767314971
vn -0.5722098742128338 0.763922832069154 0.2983249344201318
vn -0.8846329017265787 -0.020140997762546752 0.46585294824863177
vn -0.5234568181003576 -0.19548693206888937 -0.8293237118125482
vn 0.5234568181003576 0.19548693206888937 0.8293237118125482
vn 0.9020317532754065 -0.429462882532899 -0.043592988076403945
vn -0.9020317532754065 0.429462882532899 0.043592988076403945
vn -0.7536979903115892 -0.5122519934152568 -0.4117489947071725
vn 0.7536979903115892 0.5122519934152568 0.4117489947071725
vn 0.9999947004041326 0.00325299902540977 0.00013099996075274515
vn -0.9999947004041326 -0.00325299902540977 -0.00013099996075274515
vn 0.5126828602595899 -0.8584727660086856 -0.013445996335065618
vn -0.5126828602595899 0.8584727660086856 0.013445996335065618
vn -0.6379739573421918 -0.42756197141128355 -0.6404529571764347
vn 0.6379739573421918 0.42756197141128355 0.6404529571764347
vn -0.9308251939439652 -0.3651850760888748 -0.01429400297825589
vn -0.9903017665472795 -0.1325069687629434 -0.04176499015436415
vn 0.9903017665472795 0.1325069687629434 0.04176499015436415
vn 0.9308251939439652 0.3651850760888748 0.01429400297825589
vn 0.9993648655544545 -0.018338997532836493 -0.03055399588954066
vn -0.9993648655544545 0.018338997532836493 0.03055399588954066
vn 0.5910188201240405 -0.806438754561209 -0.01879599427945881
vn -0.5910188201240405 0.806438754561209 0.01879599427945881
vn -0.3887319827850046 -0.8662389616386085 -0.3138749861000466
vn 0.3887319827850046 0.8662389616386085 0.3138749861000466
vn -0.9831165170796078 -0.18181509562740195 -0.020620010845293447
vn 0.9831165170796078 0.18181509562740195 0.020620010845293447
vn -0.41005983915446964 -0.9110066426586255 -0.043792982822249645
vn 0.41005983915446964 0.9110066426586255 0.043792982822249645
vn 0.9571525446051135 -0.28148786607345344 -0.06799696764834243
vn -0.9571525446051135 0.28148786607345344 0.06799696764834243
vn 0.4776180855070182 -0.8783381572471375 -0.02007600359416709
vn -0.4776180855070182 0.8783381572471375 0.02007600359416709
vn 0.08887897535337473 -0.9618867332635557 -0.2586009282885503
vn -0.048918022498039664 -0.9891654549301566 -0.13841506365890185
vn 0.048918022498039664 0.9891654549301566 0.13841506365890185
vn -0.08887897535337473 0.9618867332635557 0.2586009282885503
vn -0.9632892149478979 -0.26500205913243363 0.04298600959187777
vn 0.9632892149478979 0.26500205913243363 -0.04298600959187777
vn -0.7766836832606917 -0.6283077437698712 0.04462998179945083
vn 0.7766836832606917 0.6283077437698712 -0.04462998179945083
vn 0.9984783691709704 0.003993001476346685 -0.05500002033535379
vn -0.9984783691709704 -0.003993001476346685 0.05500002033535379
vn 0.6987070578183607 -0.6999750579232884 -0.14779501223011166
vn -0.6987070578183607 0.6999750579232884 0.14779501223011166
vn -0.2001829348150421 -0.9797056809814302 0.01017699668609564
vn 0.2001829348150421 0.9797056809814302 -0.01017699668609564
vn 0.997434032671451 -0.004762000155981699 -0.07143300233982375
vn -0.997434032671451 0.004762000155981699 0.07143300233982375
vn -0.08707595618965934 -0.9830355054074368 -0.1614279187811145
vn 0.08707595618965934 0.9830355054074368 0.1614279187811145
vn 0.9015910432164153 -0.4013860192398372 -0.161316007732441
vn -0.9015910432164153 0.4013860192398372 0.161316007732441
vn 0.07594201348251844 -0.9966511769424756 0.030319005382745734
vn -0.07594201348251844 0.9966511769424756 -0.030319005382745734
vn -0.9492152415515794 -0.31003507889618676 0.05356001362968621
vn 0.9492152415515794 0.31003507889618676 -0.05356001362968621
vn -0.2926188582399506 -0.956040536843406 -0.01899199079927531
vn 0.2926188582399506 0.956040536843406 0.01899199079927531
vn 0.6363230744520313 -0.7304920854701359 -0.2479400290098529
vn -0.6363230744520313 0.7304920854701359 0.2479400290098529
vn -0.9472375679058416 -0.3160088558486432 0.053659975522337
vn 0.9472375679058416 0.3160088558486432 -0.053659975522337
vn -0.2133048993131789 -0.9769115388661129 -0.012035994318620853
vn 0.2133048993131789 0.9769115388661129 0.012035994318620853
vn -0.9412241420114387 -0.3340160503961785 0.05030300758969321
vn 0.9412241420114387 0.3340160503961785 -0.05030300758969321
usemtl material_0_0
f 1//1 2//2 3//3
f 3//4 2//5 1//6
f 2//7 1//8 4//9
f 4//10 1//11 2//12
f 5//13 3//3 2//7
f 2//12 3//4 5//14
f 6//15 1//1 3//3
f 3//4 1//6 6//16
f 7//17 1//8 4//9
f 4//10 1//11 7//18
f 2//7 4//9 8//19
f 8//20 4//10 2//12
f 5//13 9//21 3//3
f 3//4 9//22 5//14
f 10//23 5//13 2//7
f 2//12 5//14 10//24
f 11//25 1//1 6//15
f 6//16 1//6 11//26
f 9//21 6//15 3//3
f 3//4 6//16 9//22
f 12//27 1//1 7//17
f 7//18 1//6 12//28
f 4//9 13//29 7//17
f 7//18 13//30 4//10
f 10//23 2//7 8//19
f 8//20 2//12 10//24
f 14//31 9//21 5//13
f 5//14 9//22 14//32
f 15//33 5//13 10//23
f 10//24 5//14 15//34
f 12//27 11//25 1//1
f 1//6 11//26 12//28
f 12//27 7//17 16//35
f 16//36 7//18 12//28
f 7//17 13//29 17//37
f 17//38 13//30 7//18
f 10//23 8//19 18//39
f 18//40 8//20 10//24
f 15//33 14//31 5//13
f 5//14 14//32 15//34
f 19//41 15//33 10//23
f 10//24 15//34 19//42
f 16//35 7//17 20//43
f 20//44 7//18 16//36
f 13//29 21//45 17//37
f 17//38 21//46 13//30
f 7//17 17//37 20//43
f 20//44 17//38 7//18
f 18//39 8//19 22//47
f 22//48 8//20 18//40
f 19//41 10//23 18//39
f 18//40 10//24 19//42
f 23//49 14//31 15//33
f 15//34 14//32 23//50
f 24//51 15//33 19//41
f 19//42 15//34 24//52
f 16//35 20//43 25//53
f 25//54 20//44 16//36
f 17//37 21//45 26//55
f 26//56 21//46 17//38
f 17//37 26//55 20//43
f 20//44 26//56 17//38
f 27//57 18//39 22//47
f 22//48 18//40 27//58
f 19//41 18//39 27//57
f 27//58 18//40 19//42
f 24//51 23//49 15//33
f 15//34 23//50 24//52
f 24//51 19//41 27//57
f 27//58 19//42 24//52
f 28//59 25//53 20//43
f 20//44 25//54 28//60
f 21//61 29//61 26//61
f 26//62 29//62 21//62
f 30//63 20//43 26//64
f 26//65 20//44 30//66
f 27//57 22//47 31//67
f 31//68 22//48 27//58
f 32//69 23//49 24//51
f 24//52 23//50 32//70
f 24//51 27//57 33//71
f 33//72 27//58 24//52
f 28//59 20//43 30//63
f 30//66 20//44 28//60
f 26//64 29//73 30//63
f 30//66 29//74 26//65
f 27//57 31//67 33//71
f 33//72 31//68 27//58
f 34//75 32//69 24//51
f 24//52 32//70 34//76
f 34//75 24//51 33//71
f 33//72 24//52 34//76
f 33//71 31//67 35//77
f 35//78 31//68 33//72
f 36//79 32//69 34//75
f 34//76 32//70 36//80
f 37//81 34//75 33//71
f 33//72 34//76 37//82
f 33//71 35//77 38//83
f 38//84 35//78 33//72
f 37//85 36//79 34//75
f 34//76 36//80 37//86
f 38//87 37//81 33//71
f 33//72 37//82 38//88
f 39//89 35//90 38//91
f 38//92 35//93 39//94
f 40//95 37//85 36//79
f 36//80 37//86 40//96
f 40//95 38//91 37//85
f 37//86 38//92 40//96
f 41//97 39//89 35//90
f 35//93 39//94 41//98
f 40//95 39//89 38//91
f 38//92 39//94 40//96
f 40//95 36//79 42//99
f 42//100 36//80 40//96
f 43//101 39//89 41//97
f 41//98 39//94 43//102
f 35//90 44//103 41//97
f 41//98 44//104 35//93
f 43//101 40//95 39//89
f 39//94 40//96 43//102
f 42//99 36//79 45//105
f 45//106 36//80 42//100
f 46//107 40//108 42//99
f 42//100 40//109 46//110
f 43//101 41//97 47//111
f 47//112 41//98 43//102
f 41//97 44//103 48//113
f 48//114 44//104 41//98
f 49//115 42//99 45//105
f 45//106 42//100 49//116
f 46//107 50//117 40//108
f 40//109 50//118 46//110
f 51//119 46//107 42//99
f 42//100 46//110 51//120
f 47//111 41//97 52//121
f 52//122 41//98 47//112
f 44//103 53//123 48//113
f 48//114 53//124 44//104
f 41//97 48//113 52//121
f 52//122 48//114 41//98
f 51//119 42//99 49//115
f 49//116 42//100 51//120
f 45//125 54//126 49//115
f 49//116 54//127 45//128
f 46//107 47//129 50//117
f 50//118 47//130 46//110
f 51//119 55//131 46//107
f 46//110 55//132 51//120
f 47//111 52//121 56//133
f 56//134 52//122 47//112
f 48//113 53//123 57//135
f 57//136 53//124 48//114
f 48//113 57//135 52//121
f 52//122 57//136 48//114
f 49//115 54//126 51//119
f 51//120 54//127 49//116
f 46//107 55//131 47//129
f 47//130 55//132 46//110
f 51//119 58//137 55//131
f 55//132 58//138 51//120
f 59//139 56//133 52//121
f 52//122 56//134 59//140
f 53//141 60//141 57//141
f 57//142 60//142 53//142
f 61//143 52//121 57//135
f 57//136 52//122 61//144
f 54//126 62//145 51//119
f 51//120 62//146 54//127
f 55//131 63//147 47//129
f 47//130 63//148 55//132
f 51//119 62//145 58//137
f 58//138 62//146 51//120
f 55//131 58//137 64//149
f 64//150 58//138 55//132
f 59//139 52//121 61//143
f 61//144 52//122 59//140
f 57//135 60//151 61//143
f 61//144 60//152 57//136
f 64//153 63//147 55//131
f 55//132 63//148 64//154
f 58//137 65//155 64//149
f 64//150 65//156 58//138
f 64//153 59//157 63//147
f 63//148 59//158 64//154
