# SSTK version 0.8.0
# 23
mtllib original-23.mtl
o mesh23/mesh23-geometry#mesh23-geometry
v 0.428881 -0.639870 -0.305148
v 0.408849 -0.550286 -0.284556
v 0.413410 -0.651986 -0.318907
v 0.417967 -0.433098 -0.215917
v 0.403628 -0.459164 -0.242859
v 0.418410 -0.428745 -0.195493
v 0.397322 -0.372259 -0.192349
v 0.403543 -0.266337 -0.079950
v 0.431295 -0.647932 -0.296812
v 0.403426 -0.269005 -0.102630
v 0.393450 -0.277764 -0.074492
v 0.407201 -0.430504 -0.183216
v 0.389961 -0.289677 -0.133831
v 0.389736 -0.171777 0.021786
v 0.415670 -0.563766 -0.247115
v 0.381427 -0.211793 -0.066100
v 0.388334 -0.155318 0.008992
v 0.382467 -0.285350 -0.077923
v 0.369208 -0.179915 0.027652
v 0.422810 -0.653622 -0.279745
v 0.401528 -0.525634 -0.230042
v 0.390642 -0.374422 -0.145123
v 0.372810 -0.149162 0.000929
v 0.407330 -0.653133 -0.276550
vn -0.8698133384035547 -0.2179260847848136 0.44264317221168764
vn -0.6270760700904909 -0.31952903571488067 0.7104060794045782
vn -0.49326905372834806 -0.29814303247463525 0.817188089010583
vn 0.49326905372834806 0.29814303247463525 -0.817188089010583
vn 0.6270760700904909 0.31952903571488067 -0.7104060794045782
vn 0.8698133384035547 0.2179260847848136 -0.44264317221168764
vn -0.8625930154292013 -0.2875240051429419 0.41624900744544596
vn 0.8625930154292013 0.2875240051429419 -0.41624900744544596
vn -0.5860992307411587 -0.40370215893333244 0.7025042765686119
vn 0.5860992307411587 0.40370215893333244 -0.7025042765686119
vn -0.9908636589680726 -0.10804096281484597 0.08072397221671057
vn 0.9908636589680726 0.10804096281484597 -0.08072397221671057
vn -0.6208916837138211 -0.465217763015108 0.6309246786029495
vn 0.6208916837138211 0.465217763015108 -0.6309246786029495
vn -0.9907990210574518 -0.13195800280450345 0.03007300063914149
vn 0.9907990210574518 0.13195800280450345 -0.03007300063914149
vn -0.978902239119416 -0.1302990318285393 0.15739303844687438
vn 0.978902239119416 0.1302990318285393 -0.15739303844687438
vn -0.6315989302528497 -0.5257229419446816 0.5698229370747414
vn 0.6315989302528497 0.5257229419446816 -0.5698229370747414
vn -0.9920782226283306 -0.1255200281674506 0.005052001133699494
vn 0.9920782226283306 0.1255200281674506 -0.005052001133699494
vn -0.7396607289935362 0.392042856358268 -0.5469957995846048
vn -0.7241356965347068 0.32299986463966757 -0.609342744641266
vn -0.5229790650557234 0.519219064588 -0.6759470840841049
vn 0.5229790650557234 -0.519219064588 0.6759470840841049
vn 0.7241356965347068 -0.32299986463966757 0.609342744641266
vn 0.7396607289935362 -0.392042856358268 0.5469957995846048
vn -0.772853653589681 0.2133999043493828 -0.597626732130312
vn -0.4313317321551547 0.4588177150871342 -0.776813517620706
vn 0.4313317321551547 -0.4588177150871342 0.776813517620706
vn 0.772853653589681 -0.2133999043493828 0.597626732130312
vn -0.5833208233999391 -0.5381968370612014 0.6083428158245445
vn 0.5833208233999391 0.5381968370612014 -0.6083428158245445
vn -0.9903823211072552 -0.13835504485824088 -0.0008600002788340655
vn 0.9903823211072552 0.13835504485824088 0.0008600002788340655
vn -0.6046608981209961 0.523832911739662 -0.5999868989085159
vn 0.6046608981209961 -0.523832911739662 0.5999868989085159
vn -0.7921958976067064 0.19449197486142764 -0.5784449252345522
vn 0.7921958976067064 -0.19449197486142764 0.5784449252345522
vn -0.5756289281379134 -0.6055549244019224 0.5495039313993839
vn 0.5756289281379134 0.6055549244019224 -0.5495039313993839
vn -0.9940491932322475 -0.10556102051990324 -0.02689000522712174
vn 0.9940491932322475 0.10556102051990324 0.02689000522712174
vn -0.035254997259611544 0.6279559511886718 -0.7774499395684298
vn 0.035254997259611544 -0.6279559511886718 0.7774499395684298
vn -0.3391149394986786 0.6378368862038503 -0.6914948766307558
vn 0.3391149394986786 -0.6378368862038503 0.6914948766307558
vn -0.9030232950985791 0.08142602660917485 -0.42180413784118576
vn 0.9030232950985791 -0.08142602660917485 0.42180413784118576
vn -0.08778598464632041 0.3797589335805481 -0.9209108389336292
vn -0.19807491428815033 0.3817318348153184 -0.9027996093365751
vn -0.1711630269866775 0.4433130698956256 -0.8798731387265291
vn 0.1711630269866775 -0.4433130698956256 0.8798731387265291
vn 0.19807491428815033 -0.3817318348153184 0.9027996093365751
vn 0.08778598464632041 -0.3797589335805481 0.9209108389336292
vn -0.6027239216058141 -0.6101139206446229 0.5142809331092834
vn 0.6027239216058141 0.6101139206446229 -0.5142809331092834
vn 0.2787790393042232 0.5945680838263764 -0.7541691063280472
vn -0.2787790393042232 -0.5945680838263764 0.7541691063280472
vn -0.22312298692175803 0.3204179812188607 -0.9206239460380892
vn 0.22312298692175803 -0.3204179812188607 0.9206239460380892
vn -0.42295807146955766 0.4203630710310661 -0.8027461356444411
vn 0.42295807146955766 -0.4203630710310661 0.8027461356444411
vn -0.5370820932594799 -0.6496871128123298 0.5380050934197506
vn 0.5370820932594799 0.6496871128123298 -0.5380050934197506
vn -0.1808379800050169 0.32976296353860574 -0.9265818975492351
vn 0.1808379800050169 -0.32976296353860574 0.9265818975492351
usemtl material_0_0
f 1//1 2//2 3//3
f 3//4 2//5 1//6
f 4//7 2//2 1//1
f 1//6 2//5 4//8
f 4//7 5//9 2//2
f 2//5 5//10 4//8
f 6//11 4//7 1//1
f 1//6 4//8 6//12
f 4//7 7//13 5//9
f 5//10 7//14 4//8
f 8//15 4//7 6//11
f 6//12 4//8 8//16
f 6//11 1//1 9//17
f 9//18 1//6 6//12
f 10//19 7//13 4//7
f 4//8 7//14 10//20
f 8//15 10//21 4//7
f 4//8 10//22 8//16
f 8//23 6//24 11//25
f 11//26 6//27 8//28
f 6//24 9//29 12//30
f 12//31 9//32 6//27
f 10//19 13//33 7//13
f 7//14 13//34 10//20
f 14//35 10//21 8//15
f 8//16 10//22 14//36
f 11//25 6//24 12//30
f 12//31 6//27 11//26
f 14//37 8//23 11//25
f 11//26 8//28 14//38
f 9//29 15//39 12//30
f 12//31 15//40 9//32
f 10//19 16//41 13//33
f 13//34 16//42 10//20
f 17//43 10//21 14//35
f 14//36 10//22 17//44
f 12//30 18//45 11//25
f 11//26 18//46 12//31
f 11//25 19//47 14//37
f 14//38 19//48 11//26
f 15//39 9//29 20//49
f 20//50 9//32 15//40
f 15//51 21//52 12//53
f 12//54 21//55 15//56
f 17//57 16//41 10//19
f 10//20 16//42 17//58
f 12//30 22//59 18//45
f 18//46 22//60 12//31
f 11//25 18//45 19//47
f 19//48 18//46 11//26
f 20//61 21//52 15//51
f 15//56 21//55 20//62
f 12//53 21//52 22//63
f 22//64 21//55 12//54
f 17//57 23//65 16//41
f 16//42 23//66 17//58
f 20//61 24//67 21//52
f 21//55 24//68 20//62
