# SSTK version 0.8.0
# 29
mtllib original-29.mtl
o mesh29/mesh29-geometry#mesh29-geometry
v -0.356445 -0.005995 0.315274
v -0.307237 -0.026765 0.066185
v -0.346604 -0.019013 0.054454
v -0.230176 -0.025415 0.326841
v -0.277879 -0.030887 -0.049164
v -0.191038 -0.044488 0.029177
v -0.225405 -0.026471 0.352945
v -0.341050 -0.017406 -0.025992
v -0.191992 -0.045532 -0.062691
v -0.108872 -0.034936 0.346685
v -0.200560 -0.042466 0.014044
v -0.356729 -0.010339 0.372348
v -0.069228 -0.055254 -0.028460
v -0.048488 -0.044783 0.402901
v -0.223147 -0.032635 0.394481
v -0.108630 -0.054263 -0.066509
v -0.022346 -0.037716 0.347895
v -0.247793 -0.041745 0.429498
v -0.005296 -0.058654 -0.075916
v 0.088859 -0.037571 0.373457
v -0.091659 -0.055254 0.437519
v -0.353751 -0.024553 0.419930
v 0.081787 -0.054488 -0.019963
v 0.129639 -0.044219 0.411788
v 0.096718 -0.036116 0.332710
v 0.018026 -0.057591 0.438883
v 0.101648 -0.054263 -0.066509
v 0.208541 -0.028481 0.367051
v 0.177114 -0.045198 0.026076
v 0.185653 -0.045484 -0.062630
v 0.349698 -0.017047 0.394441
v 0.213420 -0.045504 0.431651
v 0.204445 -0.027091 0.328142
v 0.283979 -0.029698 0.037812
v 0.349064 -0.007655 0.346395
v 0.250563 -0.034698 0.065824
v 0.270898 -0.030887 -0.049164
v 0.346881 -0.024513 0.419991
v 0.349664 -0.006229 0.315569
v 0.273981 -0.018445 0.322791
v 0.339683 -0.018997 0.054499
v 0.334068 -0.017406 -0.025992
vn 0.16144097026733853 0.9868818182454989 -0.001043999807726051
vn -0.1526590490330258 -0.9748173131045476 -0.16256205221380163
vn -0.20457000042253934 -0.9748350020135217 -0.08858800018297851
vn 0.20457000042253934 0.9748350020135217 0.08858800018297851
vn 0.1526590490330258 0.9748173131045476 0.16256205221380163
vn -0.16144097026733853 -0.9868818182454989 0.001043999807726051
vn 0.12099301683896231 0.9924091381165666 -0.022018003064311755
vn -0.12099301683896231 -0.9924091381165666 0.022018003064311755
vn -0.19320894743857567 -0.9809817331293513 -0.018577994945959343
vn 0.19320894743857567 0.9809817331293513 0.018577994945959343
vn 0.012384005184713462 0.9734684075543157 -0.22848609565846578
vn -0.012384005184713462 -0.9734684075543157 0.22848609565846578
vn 0.1063629761767169 0.9909917780366955 0.08137698177310429
vn -0.1063629761767169 -0.9909917780366955 -0.08137698177310429
vn -0.22074698357885322 -0.9747129274920826 -0.0347199974172142
vn 0.22074698357885322 0.9747129274920826 0.0347199974172142
vn -0.13536906158088916 -0.990681450671992 0.015016006830948237
vn 0.13536906158088916 0.990681450671992 -0.015016006830948237
vn 0.06118401041006255 0.9979591697962803 0.018276003109543398
vn -0.06118401041006255 -0.9979591697962803 -0.018276003109543398
vn -0.11848503123135502 -0.9929492617305375 0.003614000952611023
vn 0.11848503123135502 0.9929492617305375 -0.003614000952611023
vn 0.12751601404397697 0.9707931069183048 0.20322502238218906
vn -0.12751601404397697 -0.9707931069183048 -0.20322502238218906
vn -0.6673518136774017 0.04305898797806142 -0.7434967924179551
vn 0.6673518136774017 -0.04305898797806142 0.7434967924179551
vn 0.021688008576611437 0.9767223862488508 0.21340808439309725
vn -0.021688008576611437 -0.9767223862488508 -0.21340808439309725
vn 0.08499502302302998 0.9647602613294712 0.2490250674546743
vn -0.08499502302302998 -0.9647602613294712 -0.2490250674546743
vn -0.07426196790643505 -0.9966765692693703 0.033480985530626055
vn 0.07426196790643505 0.9966765692693703 -0.033480985530626055
vn 0.0010439995377880989 0.999917557304598 0.012797994333919628
vn -0.0010439995377880989 -0.999917557304598 -0.012797994333919628
vn 0.10048300513779666 0.9496070485543592 0.29690001518079506
vn -0.10048300513779666 -0.9496070485543592 -0.29690001518079506
vn -0.03976900359579416 0.9980940902446775 -0.04718700426650756
vn 0.03976900359579416 -0.9980940902446775 0.04718700426650756
vn -0.037094980765126066 0.9923494854366586 0.11775593893996994
vn 0.037094980765126066 -0.9923494854366586 -0.11775593893996994
vn 0.044133007076573784 0.9477131519624991 0.31605705067864587
vn -0.044133007076573784 -0.9477131519624991 -0.31605705067864587
vn 0.12955198765836 0.952279909282011 0.2763679736720826
vn -0.12955198765836 -0.952279909282011 -0.2763679736720826
vn -0.06960800935221954 0.9970401339578349 -0.03264500438603619
vn 0.06960800935221954 -0.9970401339578349 0.03264500438603619
vn -0.05605399148268072 0.9612298539425767 0.26999095897528186
vn 0.05605399148268072 -0.9612298539425767 -0.26999095897528186
vn -0.057452980282571446 0.9983096573876717 -0.008773996988830555
vn 0.057452980282571446 -0.9983096573876717 0.008773996988830555
vn -0.01816499550197529 0.9483197651766148 0.31679592155484526
vn 0.01816499550197529 -0.9483197651766148 -0.31679592155484526
vn -0.07106499574885655 0.9971459403502331 -0.025489998475175593
vn 0.07106499574885655 -0.9971459403502331 0.025489998475175593
vn -0.09735697271989856 0.9884617230261447 0.1160389674850736
vn 0.09735697271989856 -0.9884617230261447 -0.1160389674850736
vn -0.0914700134641583 0.9945561463961893 -0.049913007347070444
vn 0.0914700134641583 -0.9945561463961893 0.049913007347070444
vn -0.12672595362002026 0.9915986370883518 -0.02593599050777935
vn 0.12672595362002026 -0.9915986370883518 0.02593599050777935
vn -0.10895303193751589 0.9610352817092744 0.25404807446937705
vn 0.10895303193751589 -0.9610352817092744 -0.25404807446937705
vn -0.08612096380978253 0.9457786025597974 0.31318686839091925
vn 0.08612096380978253 -0.9457786025597974 -0.31318686839091925
vn -0.11468498202599757 0.9933988443095781 -0.0024679996132027904
vn 0.11468498202599757 -0.9933988443095781 0.0024679996132027904
vn -0.15559294054872674 0.9877946225686858 -0.007253997228284458
vn 0.15559294054872674 -0.9877946225686858 0.007253997228284458
vn -0.13159902390693887 0.9867151792516295 0.09526201730577596
vn 0.13159902390693887 -0.9867151792516295 -0.09526201730577596
vn -0.13353706398810533 0.9905954746721674 -0.029807014282883813
vn 0.13353706398810533 -0.9905954746721674 0.029807014282883813
vn -0.194893004316198 0.9806030217169251 0.02084300046159952
vn 0.194893004316198 -0.9806030217169251 -0.02084300046159952
vn -0.12715205857458012 0.9557584402850412 0.26525112219206903
vn 0.12715205857458012 -0.9557584402850412 -0.26525112219206903
vn -0.13841203935926835 0.9894372813593937 0.04308101225064763
vn 0.13841203935926835 -0.9894372813593937 -0.04308101225064763
vn -0.14536198214577026 0.9881518786292648 -0.04925199395057496
vn 0.14536198214577026 -0.9881518786292648 0.04925199395057496
vn -0.20667789754018104 0.9780245151478898 0.027427986402675106
vn 0.20667789754018104 -0.9780245151478898 -0.027427986402675106
vn 0.9144533023576332 0.14180904688817642 -0.3790321253243397
vn -0.9144533023576332 -0.14180904688817642 0.3790321253243397
vn -0.22072896792521382 0.9747188583606888 0.03466799496229001
vn 0.22072896792521382 -0.9747188583606888 -0.03466799496229001
usemtl material_0_0
f 1//1 2//2 3//3
f 3//4 2//5 1//6
f 4//7 2//2 1//1
f 1//6 2//5 4//8
f 2//2 3//3 5//9
f 5//10 3//4 2//5
f 4//7 6//11 2//2
f 2//5 6//12 4//8
f 7//13 4//7 1//1
f 1//6 4//8 7//14
f 3//3 8//15 5//9
f 5//10 8//16 3//4
f 2//2 5//9 9//17
f 9//18 5//10 2//5
f 10//19 6//11 4//7
f 4//8 6//12 10//20
f 2//2 11//21 6//11
f 6//12 11//22 2//5
f 7//13 10//19 4//7
f 4//8 10//20 7//14
f 12//23 7//13 1//1
f 1//6 7//14 12//24
f 2//2 9//17 11//21
f 11//22 9//18 2//5
f 10//19 13//25 6//11
f 6//12 13//26 10//20
f 6//11 11//21 13//25
f 13//26 11//22 6//12
f 14//27 10//19 7//13
f 7//14 10//20 14//28
f 15//29 7//13 12//23
f 12//24 7//14 15//30
f 11//21 9//17 16//31
f 16//32 9//18 11//22
f 17//33 13//25 10//19
f 10//20 13//26 17//34
f 11//21 16//31 13//25
f 13//26 16//32 11//22
f 14//27 17//33 10//19
f 10//20 17//34 14//28
f 14//27 7//13 15//29
f 15//30 7//14 14//28
f 18//35 15//29 12//23
f 12//24 15//30 18//36
f 17//33 19//37 13//25
f 13//26 19//38 17//34
f 13//25 16//31 19//37
f 19//38 16//32 13//26
f 14//27 20//39 17//33
f 17//34 20//40 14//28
f 21//41 14//27 15//29
f 15//30 14//28 21//42
f 21//41 15//29 18//35
f 18//36 15//30 21//42
f 18//35 12//23 22//43
f 22//44 12//24 18//36
f 17//33 23//45 19//37
f 19//38 23//46 17//34
f 24//47 20//39 14//27
f 14//28 20//40 24//48
f 20//39 25//49 17//33
f 17//34 25//50 20//40
f 26//51 14//27 21//41
f 21//42 14//28 26//52
f 17//33 25//49 23//45
f 23//46 25//50 17//34
f 23//45 27//53 19//37
f 19//38 27//54 23//46
f 24//47 28//55 20//39
f 20//40 28//56 24//48
f 26//51 24//47 14//27
f 14//28 24//48 26//52
f 20//39 28//55 25//49
f 25//50 28//56 20//40
f 25//49 29//57 23//45
f 23//46 29//58 25//50
f 23//45 30//59 27//53
f 27//54 30//60 23//46
f 24//47 31//61 28//55
f 28//56 31//62 24//48
f 26//51 32//63 24//47
f 24//48 32//64 26//52
f 28//55 33//65 25//49
f 25//50 33//66 28//56
f 25//49 33//65 29//57
f 29//58 33//66 25//50
f 34//67 30//59 23//45
f 23//46 30//60 34//68
f 32//63 31//61 24//47
f 24//48 31//62 32//64
f 31//61 35//69 28//55
f 28//56 35//70 31//62
f 28//55 35//69 33//65
f 33//66 35//70 28//56
f 33//65 36//71 29//57
f 29//58 36//72 33//66
f 34//67 37//73 30//59
f 30//60 37//74 34//68
f 36//71 34//67 23//45
f 23//46 34//68 36//72
f 32//63 38//75 31//61
f 31//62 38//76 32//64
f 35//69 39//77 33//65
f 33//66 39//78 35//70
f 33//65 40//79 36//71
f 36//72 40//80 33//66
f 41//81 37//73 34//67
f 34//68 37//74 41//82
f 36//71 41//81 34//67
f 34//68 41//82 36//72
f 40//79 39//83 36//71
f 36//72 39//84 40//80
f 41//81 42//85 37//73
f 37//74 42//86 41//82
f 39//83 36//71 41//81
f 41//82 36//72 39//84
