# SSTK version 0.8.0
# 10
mtllib original-10.mtl
o mesh10/mesh10-geometry#mesh10-geometry
v -0.457116 -0.730562 -0.301599
v -0.455230 -0.741315 -0.232454
v -0.453881 -0.753677 -0.282912
v -0.455569 -0.702285 -0.228822
v -0.435984 -0.757307 -0.258871
v -0.435964 -0.749251 -0.290680
v -0.435972 -0.706516 -0.226912
v -0.456383 -0.679933 -0.255877
v -0.435972 -0.739108 -0.231690
v -0.435972 -0.720142 -0.306059
v -0.435964 -0.681243 -0.248010
v -0.456169 -0.705197 -0.302509
v -0.436435 -0.681017 -0.288210
v -0.452257 -0.681230 -0.283170
vn 0.9995495742289553 0.028950987667953062 -0.007904996632764635
vn 0.9972418246365365 0.07249298725221806 -0.01592199720014092
vn 0.9910074585541223 0.13366106184699256 -0.006240002887343604
vn -0.9910074585541223 -0.13366106184699256 0.006240002887343604
vn -0.9972418246365365 -0.07249298725221806 0.01592199720014092
vn -0.9995495742289553 -0.028950987667953062 0.007904996632764635
vn 0.9996503562964432 0.009153003262323156 -0.024807008841740474
vn -0.9996503562964432 -0.009153003262323156 0.024807008841740474
vn 0.19729201046821568 0.8956990475253448 -0.3984960211440002
vn 0.4474110155584946 0.8713290303000318 -0.20151700700765326
vn -0.4474110155584946 -0.8713290303000318 0.20151700700765326
vn -0.19729201046821568 -0.8956990475253448 0.3984960211440002
vn -0.0018150009626577083 0.7386703917831238 0.6740643575167524
vn 0.11150899392883723 0.3932909785870766 0.9126269503115707
vn 0.02050899955050426 0.8475669814238745 0.5302919883775906
vn -0.02050899955050426 -0.8475669814238745 -0.5302919883775906
vn -0.11150899392883723 -0.3932909785870766 -0.9126269503115707
vn 0.0018150009626577083 -0.7386703917831238 -0.6740643575167524
vn 0.06963400817962889 0.11919401400124487 -0.990426116341401
vn 0.11646500116756164 0.09302200093254556 -0.9888290099130108
vn -0.11646500116756164 -0.09302200093254556 0.9888290099130108
vn -0.06963400817962889 -0.11919401400124487 0.990426116341401
vn 0.9931191245366495 -0.10451201310575502 0.052836006625609236
vn -0.9931191245366495 0.10451201310575502 -0.052836006625609236
vn -0.07294197688563944 0.8287487373803404 -0.5548468241762823
vn 0.07294197688563944 -0.8287487373803404 0.5548468241762823
vn -0.13193102806292004 0.960939204400439 0.24329005174998913
vn 0.13193102806292004 -0.960939204400439 -0.24329005174998913
vn 0.0009500000518828292 0.029913001633653756 0.9995520545890375
vn -0.0009500000518828292 -0.029913001633653756 -0.9995520545890375
vn 0.022602002149077573 0.14502301378929638 -0.989170094053759
vn -0.022602002149077573 -0.14502301378929638 0.989170094053759
vn 0.06600596704989548 -0.7051986479656281 -0.7059306476002146
vn -0.06339501400567182 -0.6395391412914795 -0.766140169261068
vn -0.06600596704989548 0.7051986479656281 0.7059306476002146
vn 0.06339501400567182 0.6395391412914795 0.766140169261068
vn 0.19377802777837294 -0.7534531080086411 -0.6282980900674802
vn -0.19377802777837294 0.7534531080086411 0.6282980900674802
vn 0.9828467354083574 -0.1602329568637716 0.09131097541822127
vn -0.9828467354083574 0.1602329568637716 -0.09131097541822127
vn 0.10245199362210747 -0.3604759775594699 0.9271249422841563
vn -0.10245199362210747 0.3604759775594699 -0.9271249422841563
vn -0.06212602593324135 -0.9980564166182778 -0.004873002034135226
vn -0.016101007285755746 -0.9995924523186858 0.023573010666860458
vn 0.016101007285755746 0.9995924523186858 -0.023573010666860458
vn 0.06212602593324135 0.9980564166182778 0.004873002034135226
vn 0.9469152079473371 -0.28082906167147287 0.15648203436424094
vn -0.9469152079473371 0.28082906167147287 -0.15648203436424094
vn 0.04938400717290411 -0.5379450781351834 0.8415321222304458
vn -0.04938400717290411 0.5379450781351834 -0.8415321222304458
vn 0.029970995454284482 -0.9981998486025414 0.051949992120719324
vn -0.029970995454284482 0.9981998486025414 -0.051949992120719324
vn 0.24272488703222297 -0.6328727054516183 0.7352256578150301
vn -0.24272488703222297 0.6328727054516183 -0.7352256578150301
usemtl material_0_0
f 1//1 2//2 3//3
f 3//4 2//5 1//6
f 4//7 2//2 1//1
f 1//6 2//5 4//8
f 2//9 5//9 3//10
f 3//11 5//12 2//12
f 6//13 1//14 3//15
f 3//16 1//17 6//18
f 7//19 2//19 4//20
f 4//21 2//22 7//22
f 8//23 4//7 1//1
f 1//6 4//8 8//24
f 9//25 5//9 2//9
f 2//12 5//12 9//26
f 5//27 6//13 3//15
f 3//16 6//18 5//28
f 6//13 10//29 1//14
f 1//17 10//30 6//18
f 9//31 2//19 7//19
f 7//22 2//22 9//32
f 11//33 7//34 4//33
f 4//35 7//36 11//35
f 4//33 8//37 11//33
f 11//35 8//38 4//35
f 8//23 1//1 12//39
f 12//40 1//6 8//24
f 10//29 12//41 1//14
f 1//17 12//42 10//30
f 11//43 8//44 13//44
f 13//45 8//45 11//46
f 8//23 12//39 14//47
f 14//48 12//40 8//24
f 10//29 13//49 12//41
f 12//42 13//50 10//30
f 8//44 14//51 13//44
f 13//45 14//52 8//45
f 13//49 14//53 12//41
f 12//42 14//54 13//50
