# SSTK version 0.8.0
# 26
mtllib original-26.mtl
o mesh26/mesh26-geometry#mesh26-geometry
v -0.341050 -0.017406 -0.025992
v -0.282657 -0.029654 -0.047864
v -0.333369 -0.013300 -0.134898
v -0.191372 -0.042478 -0.154726
v -0.200924 -0.043522 -0.061970
v -0.333556 -0.024021 -0.151322
v -0.080236 -0.057055 -0.170529
v -0.236446 -0.046942 -0.168044
v -0.077406 -0.056314 -0.069130
v -0.329887 -0.042692 -0.154690
v -0.111718 -0.057212 -0.181161
v -0.003505 -0.060524 -0.172806
v -0.201422 -0.067861 -0.177605
v -0.053903 -0.075576 -0.194754
v -0.086149 -0.056491 -0.169255
v -0.005296 -0.058654 -0.075916
v 0.032391 -0.063606 -0.186911
v 0.083341 -0.055693 -0.068059
v -0.038952 -0.086068 -0.196216
v 0.083252 -0.081205 -0.194131
v 0.071933 -0.057321 -0.170617
v 0.079170 -0.056491 -0.169253
v 0.215824 -0.049775 -0.171125
v 0.193520 -0.043594 -0.062010
v 0.177256 -0.043211 -0.156378
v 0.193902 -0.067949 -0.176844
v 0.324166 -0.018227 -0.145579
v 0.331013 -0.038965 -0.155345
v 0.275676 -0.029654 -0.047864
v 0.305411 -0.018336 -0.131432
v 0.256521 -0.028844 -0.139245
v 0.326884 -0.013107 -0.128753
v 0.334068 -0.017406 -0.025992
vn 0.2237940035800327 0.9732230155686487 0.052471000839378605
vn 0.2017250349713577 0.9782841695968258 0.0476140082544366
vn 0.2522288975146274 0.8332856614202722 0.4919508001110835
vn -0.2522288975146274 -0.8332856614202722 -0.4919508001110835
vn -0.2017250349713577 -0.9782841695968258 -0.0476140082544366
vn -0.2237940035800327 -0.9732230155686487 -0.052471000839378605
vn 0.10200599848842411 -0.28164899582638436 0.9540799858619657
vn -0.10200599848842411 0.28164899582638436 -0.9540799858619657
vn 0.13606197255194893 0.9905938001655518 0.014527997069238392
vn -0.13606197255194893 -0.9905938001655518 -0.014527997069238392
vn -0.09316503214217456 -0.8214772834117655 0.562579194091262
vn 0.09316503214217456 0.8214772834117655 -0.562579194091262
vn 0.09368398422567942 0.9955998323629054 0.0020699996514576273
vn -0.09368398422567942 -0.9955998323629054 -0.0020699996514576273
vn 0.0515560165382963 -0.5132031646268771 0.8567172748203815
vn -0.0515560165382963 0.5132031646268771 -0.8567172748203815
vn 0.05936801326685267 0.9981582230564467 -0.012474002787540767
vn -0.05936801326685267 -0.9981582230564467 0.012474002787540767
vn 0.13314498977799352 -0.15057898843952444 0.979590924793379
vn 0.13047705250201935 -0.1892250761413476 0.9732263916117805
vn -0.13047705250201935 0.1892250761413476 -0.9732263916117805
vn -0.13314498977799352 0.15057898843952444 -0.979590924793379
vn -0.026282992188157085 -0.8819637378623358 0.47058386013285064
vn 0.026282992188157085 0.8819637378623358 -0.47058386013285064
vn 0.999681678248005 -0.00030099990312184227 0.025227991880258593
vn -0.999681678248005 0.00030099990312184227 -0.025227991880258593
vn 0.11481301287645235 -0.15960201789960674 0.9804821099625456
vn -0.11481301287645235 0.15960201789960674 -0.9804821099625456
vn 0.04102702034189919 -0.3243661608262966 0.945041468567742
vn -0.04102702034189919 0.3243661608262966 -0.945041468567742
vn -0.06731499819306352 -0.9767099737821745 0.203730994531249
vn 0.06731499819306352 0.9767099737821745 -0.203730994531249
vn 0.9998291820799088 0.0008290001509700602 0.018464003362498423
vn -0.9998291820799088 -0.0008290001509700602 -0.018464003362498423
vn 0.014349001448029555 -0.8323130839928791 0.5541200559190281
vn -0.014349001448029555 0.8323130839928791 -0.5541200559190281
vn -0.015809992182237474 -0.9820875143750307 0.1877609071555402
vn 0.015809992182237474 0.9820875143750307 -0.1877609071555402
vn 0.06092999680562313 -0.998074947673926 0.011572999393262376
vn -0.06092999680562313 0.998074947673926 -0.011572999393262376
vn 0.05338799883117656 -0.06277099862575454 0.9965989781814589
vn -0.05338799883117656 0.06277099862575454 -0.9965989781814589
vn -0.05280499701361347 -0.3058539827024285 0.9506129462380863
vn 0.05280499701361347 0.3058539827024285 -0.9506129462380863
vn 0.09590098779751113 -0.9953818733471208 -0.004233999461263825
vn -0.09590098779751113 0.9953818733471208 0.004233999461263825
vn 0.08016802694251426 -0.9799363293326471 0.1824770613260799
vn -0.08016802694251426 0.9799363293326471 -0.1824770613260799
vn -0.0455640108075796 -0.5193481231870524 0.8533472024101403
vn 0.0455640108075796 0.5193481231870524 -0.8533472024101403
vn 0.13946295044359266 -0.9900406482014936 -0.019224993168640202
vn -0.13946295044359266 0.9900406482014936 0.019224993168640202
vn 0.10134797477099573 -0.9353937671482494 0.3387729156677442
vn -0.10134797477099573 0.9353937671482494 -0.3387729156677442
vn -0.12724105575513422 -0.15479506782889166 0.979718429298014
vn 0.12724105575513422 0.15479506782889166 -0.979718429298014
vn 0.16585997650386275 -0.9854738603953191 -0.03649299483031149
vn -0.16585997650386275 0.9854738603953191 0.03649299483031149
vn 0.058368985945625416 -0.7953718084864222 0.6033048547332581
vn -0.058368985945625416 0.7953718084864222 -0.6033048547332581
vn -0.10054994811825116 -0.3090438405396003 0.945717512028804
vn 0.10054994811825116 0.3090438405396003 -0.945717512028804
vn 0.19560200298791844 -0.9796010149638955 -0.0460620007036201
vn -0.19560200298791844 0.9796010149638955 0.0460620007036201
vn 0.1507590507477664 -0.9696653264039488 0.19240806476745162
vn -0.1507590507477664 0.9696653264039488 -0.19240806476745162
vn 0.2069320406691857 -0.9769621920063063 -0.052192010257505556
vn -0.2069320406691857 0.9769621920063063 0.052192010257505556
vn 0.22557392233389684 -0.9726026651285834 -0.056217980643899615
vn -0.22557392233389684 0.9726026651285834 0.056217980643899615
usemtl material_0_0
f 1//1 2//2 3//3
f 3//4 2//5 1//6
f 2//2 4//7 3//3
f 3//4 4//8 2//5
f 2//2 5//9 4//7
f 4//8 5//10 2//5
f 3//3 6//11 4//7
f 4//8 6//12 3//4
f 5//9 7//13 4//7
f 4//8 7//14 5//10
f 6//11 8//15 4//7
f 4//8 8//16 6//12
f 5//9 9//17 7//13
f 7//14 9//18 5//10
f 8//15 6//19 10//20
f 10//21 6//22 8//16
f 4//7 8//15 11//23
f 11//24 8//16 4//8
f 9//17 12//25 7//13
f 7//14 12//26 9//18
f 13//27 8//15 10//20
f 10//21 8//16 13//28
f 14//29 11//23 8//15
f 8//16 11//24 14//30
f 4//7 11//23 15//31
f 15//32 11//24 4//8
f 9//17 16//33 12//25
f 12//26 16//34 9//18
f 14//29 8//15 13//27
f 13//28 8//16 14//30
f 17//35 11//23 14//29
f 14//30 11//24 17//36
f 15//31 11//23 12//37
f 12//38 11//24 15//32
f 18//39 16//33 12//25
f 12//26 16//34 18//40
f 19//41 14//29 13//27
f 13//28 14//30 19//42
f 12//37 11//23 17//35
f 17//36 11//24 12//38
f 20//43 17//35 14//29
f 14//30 17//36 20//44
f 18//39 12//25 21//45
f 21//46 12//26 18//40
f 20//43 14//29 19//41
f 19//42 14//30 20//44
f 22//47 12//37 17//35
f 17//36 12//38 22//48
f 23//49 17//35 20//43
f 20//44 17//36 23//50
f 24//51 18//39 21//45
f 21//46 18//40 24//52
f 25//53 22//47 17//35
f 17//36 22//48 25//54
f 25//53 17//35 23//49
f 23//50 17//36 25//54
f 23//49 20//43 26//55
f 26//56 20//44 23//50
f 24//51 21//45 25//57
f 25//58 21//46 24//52
f 27//59 25//53 23//49
f 23//50 25//54 27//60
f 28//61 23//49 26//55
f 26//56 23//50 28//62
f 29//63 24//51 25//57
f 25//58 24//52 29//64
f 30//65 25//53 27//59
f 27//60 25//54 30//66
f 28//61 27//59 23//49
f 23//50 27//60 28//62
f 29//63 25//57 31//67
f 31//68 25//58 29//64
f 32//69 29//63 31//67
f 31//68 29//64 32//70
f 29//63 32//69 33//69
f 33//70 32//70 29//64
