# SSTK version 0.8.0
# 32
mtllib original-32.mtl
o mesh32/mesh32-geometry#mesh32-geometry
v -0.112057 -0.087736 0.462953
v -0.346500 -0.062418 0.446033
v -0.345333 -0.042534 0.439620
v -0.229271 -0.078457 0.455606
v -0.074900 -0.065270 0.451821
v 0.115656 -0.069452 0.455813
v -0.120711 -0.052961 0.436137
v 0.019241 -0.091382 0.463164
v 0.208622 -0.045097 0.432366
v -0.237924 -0.042953 0.430109
v 0.018026 -0.057591 0.438883
v 0.109640 -0.087990 0.461288
v 0.339539 -0.045359 0.441364
v 0.114023 -0.053679 0.436566
v -0.353751 -0.024553 0.419930
v 0.222288 -0.078449 0.455602
v 0.346881 -0.024513 0.419991
v 0.345893 -0.060411 0.445429
vn 0.015018997760705149 -0.36433494567857455 -0.9311468611683412
vn 0.035027006108184995 -0.3105050541474285 -0.9499261656528888
vn -0.024831010125516875 -0.6731792745070809 -0.7390623013726694
vn 0.024831010125516875 0.6731792745070809 0.7390623013726694
vn -0.035027006108184995 0.3105050541474285 0.9499261656528888
vn -0.015018997760705149 0.36433494567857455 0.9311468611683412
vn 0.034780987926042985 -0.31238189155898793 -0.9493196704508533
vn -0.034780987926042985 0.31238189155898793 0.9493196704508533
vn -0.0037400014086175657 -0.7266522736830939 -0.6869952587468515
vn 0.0037400014086175657 0.7266522736830939 0.6869952587468515
vn -0.002719999636899113 -0.45206493965249905 -0.8919808809268043
vn 0.002719999636899113 0.45206493965249905 0.8919808809268043
vn -0.036944977740694565 -0.8407524934476162 -0.5401576745556393
vn 0.036944977740694565 0.8407524934476162 0.5401576745556393
vn -0.007979996555052191 -0.28610987648696523 -0.9581635863627855
vn 0.007979996555052191 0.28610987648696523 0.9581635863627855
vn 0.02933900363001246 -0.7303010903576035 -0.6824950844427333
vn -0.02933900363001246 0.7303010903576035 0.6824950844427333
vn -0.054817014536131164 -0.81039621489725 -0.5833121546801129
vn 0.054817014536131164 0.81039621489725 0.5833121546801129
vn 0.007444000987145315 -0.8824661170233984 -0.47031706236851467
vn -0.007444000987145315 0.8824661170233984 0.47031706236851467
vn -0.017276995263287798 -0.27806892376380016 -0.9604057366923182
vn 0.017276995263287798 0.27806892376380016 0.9604057366923182
vn 0.005514001284561187 -0.5408341259946255 -0.8411111959482309
vn -0.005514001284561187 0.5408341259946255 0.8411111959482309
vn 0.09799599859860823 -0.7741489889292824 0.6253719910568679
vn -0.09799599859860823 0.7741489889292824 -0.6253719910568679
vn -0.0612540181219427 -0.7499352218676184 -0.6586691948666515
vn 0.0612540181219427 0.7499352218676184 0.6586691948666515
vn 0.03002799324250116 -0.9392797886245001 -0.3418359230732525
vn -0.03002799324250116 0.9392797886245001 0.3418359230732525
vn -0.030662007314959296 -0.2870850684891752 -0.9574142284079461
vn 0.030662007314959296 0.2870850684891752 0.9574142284079461
vn 0.045935976040490184 -0.7229566229167681 -0.6893646404378377
vn -0.045935976040490184 0.7229566229167681 0.6893646404378377
vn -0.03879899482603799 -0.2757679632255173 -0.960440871922337
vn 0.03879899482603799 0.2757679632255173 0.960440871922337
usemtl material_0_0
f 1//1 2//2 3//3
f 3//4 2//5 1//6
f 1//1 4//7 2//2
f 2//5 4//8 1//6
f 5//9 1//1 3//3
f 3//4 1//6 5//10
f 6//11 1//1 5//9
f 5//10 1//6 6//12
f 5//9 3//3 7//13
f 7//14 3//4 5//10
f 6//11 8//15 1//1
f 1//6 8//16 6//12
f 9//17 6//11 5//9
f 5//10 6//12 9//18
f 3//3 10//19 7//13
f 7//14 10//20 3//4
f 5//9 7//13 11//21
f 11//22 7//14 5//10
f 6//11 12//23 8//15
f 8//16 12//24 6//12
f 6//11 9//17 13//25
f 13//26 9//18 6//12
f 5//27 14//27 9//27
f 9//28 14//28 5//28
f 3//3 15//29 10//19
f 10//20 15//30 3//4
f 5//9 11//21 14//31
f 14//32 11//22 5//10
f 16//33 12//23 6//11
f 6//12 12//24 16//34
f 13//25 9//17 17//35
f 17//36 9//18 13//26
f 13//25 16//33 6//11
f 6//12 16//34 13//26
f 18//37 16//33 13//25
f 13//26 16//34 18//38
