# SSTK version 0.8.0
# 20
mtllib original-20.mtl
o mesh20/mesh20-geometry#mesh20-geometry
v -0.369762 -0.199263 -0.044027
v -0.362416 -0.199307 -0.017647
v -0.375188 -0.259774 -0.083612
v -0.373113 -0.282276 -0.110781
v -0.383370 -0.290306 -0.084979
v -0.387966 -0.276124 -0.120034
v -0.375561 -0.305676 -0.109275
v -0.401589 -0.404755 -0.168401
v -0.410305 -0.416673 -0.215418
v -0.391273 -0.346321 -0.172658
v -0.387021 -0.425084 -0.186970
v -0.397624 -0.374424 -0.145124
v -0.431125 -0.553150 -0.266910
v -0.404305 -0.372254 -0.192345
v -0.383708 -0.407080 -0.198333
v -0.402180 -0.423677 -0.177748
v -0.425226 -0.541949 -0.245726
v -0.422801 -0.544094 -0.277811
v -0.408840 -0.443011 -0.232897
v -0.400996 -0.473476 -0.247915
v -0.394770 -0.555258 -0.251270
v -0.438276 -0.647932 -0.296812
v -0.420392 -0.651986 -0.318907
v -0.413048 -0.542218 -0.281228
v -0.391669 -0.539306 -0.265332
v -0.396362 -0.490925 -0.217271
v -0.413917 -0.553541 -0.241390
v -0.429550 -0.653013 -0.279781
v -0.395127 -0.653495 -0.292638
v -0.404463 -0.653149 -0.315196
v -0.414311 -0.653133 -0.276550
vn 0.9334513243505885 0.1339750465529204 -0.3327451156204628
vn 0.9899235902642763 -0.08852596335853594 -0.11051895425549595
vn 0.9834250448466416 -0.04416900201421696 -0.17585300801933698
vn -0.9834250448466416 0.04416900201421696 0.17585300801933698
vn -0.9899235902642763 0.08852596335853594 0.11051895425549595
vn -0.9334513243505885 -0.1339750465529204 0.3327451156204628
vn -0.8107602178512999 -0.34661009313414454 0.47173012675390213
vn -0.929232586794056 -0.17590392178002895 0.3249378555084537
vn -0.9888631254822887 -0.03490800442966896 0.14467601835873684
vn 0.9888631254822887 0.03490800442966896 -0.14467601835873684
vn 0.929232586794056 0.17590392178002895 -0.3249378555084537
vn 0.8107602178512999 0.34661009313414454 -0.47173012675390213
vn 0.9033211250241691 -0.3492150483331121 0.24911803447918396
vn -0.9033211250241691 0.3492150483331121 -0.24911803447918396
vn 0.9481111983851782 0.07651301600977643 -0.30859506457120955
vn -0.9481111983851782 -0.07651301600977643 0.30859506457120955
vn -0.42275898298437403 -0.5394559782874369 0.7281909706910422
vn 0.42275898298437403 0.5394559782874369 -0.7281909706910422
vn -0.9083580744390388 0.31104702548999374 -0.27952702290696096
vn 0.9083580744390388 -0.31104702548999374 0.27952702290696096
vn -0.6267769021557458 0.5515669138965505 -0.5503859140809129
vn -0.5620038763026795 0.5340758824496442 -0.6315968609852304
vn 0.5620038763026795 -0.5340758824496442 0.6315968609852304
vn 0.6267769021557458 -0.5515669138965505 0.5503859140809129
vn 0.9730407979174485 -0.22402095347499718 0.054828988613034584
vn -0.9730407979174485 0.22402095347499718 -0.054828988613034584
vn 0.9233860421890475 -0.2478450113239149 0.29314001339342094
vn -0.9233860421890475 0.2478450113239149 -0.29314001339342094
vn -0.4790939673801697 -0.46676396821967614 0.7433709493864755
vn 0.4790939673801697 0.46676396821967614 -0.7433709493864755
vn -0.7381162190810456 0.3912391161240905 -0.5496511631425356
vn 0.7381162190810456 -0.3912391161240905 0.5496511631425356
vn 0.7014131550733473 -0.48937110819360213 0.5182041145682057
vn -0.7014131550733473 0.48937110819360213 -0.5182041145682057
vn 0.9853157060306104 -0.1359419594416545 0.10330896917772199
vn -0.9853157060306104 0.1359419594416545 -0.10330896917772199
vn 0.9873800087220213 -0.05653800049942842 -0.14793300130676615
vn -0.9873800087220213 0.05653800049942842 0.14793300130676615
vn -0.18634002365679922 -0.5180390657676538 0.8348131059837047
vn 0.18634002365679922 0.5180390657676538 -0.8348131059837047
vn -0.7008048338129135 -0.32680092250325543 0.6340928496328248
vn 0.7008048338129135 0.32680092250325543 -0.6340928496328248
vn -0.9885726839326036 0.11877296202579589 -0.09282797032095325
vn 0.9885726839326036 -0.11877296202579589 0.09282797032095325
vn -0.3167838702320484 0.5637617690595487 -0.7627716875367443
vn 0.3167838702320484 -0.5637617690595487 0.7627716875367443
vn 0.9307146347536779 0.13820794576216813 -0.33862786711009113
vn -0.9307146347536779 -0.13820794576216813 0.33862786711009113
vn 0.7817773844434232 0.1822740896343081 -0.5963222932448395
vn -0.7817773844434232 -0.1822740896343081 0.5963222932448395
vn 0.6469908906420505 -0.32337694534105477 0.6905288832830201
vn -0.6469908906420505 0.32337694534105477 -0.6905288832830201
vn 0.5404529775271549 -0.44417698153045526 0.7145749702869015
vn 0.7083860765262435 -0.36252503916321954 0.6056110654235614
vn -0.7083860765262435 0.36252503916321954 -0.6056110654235614
vn -0.5404529775271549 0.44417698153045526 -0.7145749702869015
vn -0.4177462018940728 -0.4007641936867766 0.8153993940773222
vn 0.4177462018940728 0.4007641936867766 -0.8153993940773222
vn -0.9886169018555563 0.09513599055542257 -0.11655798842876455
vn 0.9886169018555563 -0.09513599055542257 0.11655798842876455
vn -0.42796389960481657 0.46216189158237897 -0.7766938177969721
vn 0.42796389960481657 -0.46216189158237897 0.7766938177969721
vn 0.4067490515243293 0.39436404995547764 -0.8240341043832908
vn 0.5062127830792632 0.3534868485249085 -0.7866356629133177
vn -0.5062127830792632 -0.3534868485249085 0.7866356629133177
vn -0.4067490515243293 -0.39436404995547764 0.8240341043832908
vn 0.933358184425062 0.05597501106027145 -0.3545550700576069
vn -0.933358184425062 -0.05597501106027145 0.3545550700576069
vn 0.47984891681963704 -0.2964019486196159 0.8257668568558051
vn -0.47984891681963704 0.2964019486196159 -0.8257668568558051
vn 0.044545006125941033 -0.3869190532100792 0.921037126663337
vn -0.044545006125941033 0.3869190532100792 -0.921037126663337
vn -0.09837895928435124 -0.4602788095065198 0.8823066348437989
vn 0.09837895928435124 0.4602788095065198 -0.8823066348437989
vn -0.8885648088008664 -0.1366669705923461 0.4379209057692844
vn 0.8885648088008664 0.1366669705923461 -0.4379209057692844
vn -0.440988097018715 0.37070308155579906 -0.8173791798258915
vn -0.40163299688212306 0.42785399667856944 -0.8097109937142135
vn 0.40163299688212306 -0.42785399667856944 0.8097109937142135
vn 0.440988097018715 -0.37070308155579906 0.8173791798258915
vn 0.019340000457623095 0.3777000089371377 -0.9257260219045294
vn -0.019340000457623095 -0.3777000089371377 0.9257260219045294
vn 0.5870665610287751 0.23275582595992206 -0.7753564202375333
vn -0.5870665610287751 -0.23275582595992206 0.7753564202375333
vn 0.7279827671551131 -0.25562291823915045 0.6361587965249595
vn -0.7279827671551131 0.25562291823915045 -0.6361587965249595
vn -0.9924353982336398 0.0006910002772770459 0.12276604926221972
vn 0.9924353982336398 -0.0006910002772770459 -0.12276604926221972
vn -0.6146641325766137 -0.23332505032576886 0.753490162519934
vn 0.6146641325766137 0.23332505032576886 -0.753490162519934
vn -0.6074371520090402 0.31016307761723433 -0.7313131830085873
vn -0.29356410720963155 0.334920122312851 -0.8953483269812688
vn 0.29356410720963155 -0.334920122312851 0.8953483269812688
vn 0.6074371520090402 -0.31016307761723433 0.7313131830085873
usemtl material_0_0
f 1//1 2//2 3//3
f 3//4 2//5 1//6
f 1//7 4//8 2//9
f 2//10 4//11 1//12
f 2//2 5//13 3//3
f 3//4 5//14 2//5
f 1//1 3//3 6//15
f 6//16 3//4 1//6
f 1//7 6//17 4//8
f 4//11 6//18 1//12
f 2//9 4//8 7//19
f 7//20 4//11 2//10
f 2//21 7//19 5//22
f 5//23 7//20 2//24
f 3//3 5//13 8//25
f 8//26 5//14 3//4
f 3//3 9//27 6//15
f 6//16 9//28 3//4
f 4//8 6//17 10//29
f 10//30 6//18 4//11
f 4//8 11//31 7//19
f 7//20 11//32 4//11
f 5//22 7//19 11//31
f 11//32 7//20 5//23
f 5//13 12//33 8//25
f 8//26 12//34 5//14
f 3//3 8//25 13//35
f 13//36 8//26 3//4
f 3//3 13//35 9//27
f 9//28 13//36 3//4
f 6//15 9//27 14//37
f 14//38 9//28 6//16
f 6//17 14//39 10//29
f 10//30 14//40 6//18
f 4//8 10//29 15//41
f 15//42 10//30 4//11
f 4//8 15//43 11//31
f 11//32 15//44 4//11
f 5//22 11//31 12//45
f 12//46 11//32 5//23
f 12//47 16//47 8//47
f 8//48 16//48 12//48
f 8//25 17//49 13//35
f 13//36 17//50 8//26
f 9//27 13//35 18//51
f 18//52 13//36 9//28
f 14//53 9//27 19//54
f 19//55 9//28 14//56
f 10//29 14//39 20//57
f 20//58 14//40 10//30
f 15//41 10//29 20//57
f 20//58 10//30 15//42
f 15//43 21//59 11//31
f 11//32 21//60 15//44
f 11//31 16//61 12//45
f 12//46 16//62 11//32
f 8//63 16//64 17//49
f 17//50 16//65 8//66
f 17//49 22//67 13//35
f 13//36 22//68 17//50
f 18//51 13//35 23//69
f 23//70 13//36 18//52
f 9//27 18//51 24//71
f 24//72 18//52 9//28
f 9//27 24//71 19//54
f 19//55 24//72 9//28
f 20//57 14//39 19//73
f 19//74 14//40 20//58
f 15//41 20//57 25//75
f 25//76 20//58 15//42
f 15//43 25//75 21//59
f 21//60 25//76 15//44
f 11//31 21//77 26//78
f 26//79 21//80 11//32
f 11//31 26//78 16//61
f 16//62 26//79 11//32
f 16//64 27//81 17//49
f 17//50 27//82 16//65
f 17//49 28//83 22//67
f 22//68 28//84 17//50
f 13//35 22//85 23//69
f 23//70 22//86 13//36
f 24//71 18//51 23//69
f 23//70 18//52 24//72
f 20//57 19//73 24//71
f 24//72 19//74 20//58
f 25//75 20//57 24//71
f 24//72 20//58 25//76
f 25//75 29//87 21//59
f 21//60 29//88 25//76
f 21//77 27//81 26//78
f 26//79 27//82 21//80
f 26//78 27//81 16//61
f 16//62 27//82 26//79
f 27//81 28//83 17//49
f 17//50 28//84 27//82
f 30//89 24//71 23//69
f 23//70 24//72 30//90
f 25//75 24//71 30//89
f 30//90 24//72 25//76
f 25//75 30//89 29//87
f 29//88 30//90 25//76
f 21//77 29//91 31//92
f 31//93 29//94 21//80
f 21//77 31//92 27//81
f 27//82 31//93 21//80
f 27//81 31//92 28//83
f 28//84 31//93 27//82
