# SSTK version 0.8.0
# 18
mtllib original-18.mtl
o mesh18/mesh18-geometry#mesh18-geometry
v 0.323686 -0.177796 0.038617
v 0.330520 -0.244129 0.145067
v 0.315121 -0.229847 0.150388
v 0.345626 -0.239730 0.143506
v 0.314401 -0.343996 0.286376
v 0.314960 -0.155354 0.048638
v 0.350206 -0.317808 0.244105
v 0.355118 -0.169750 0.043475
v 0.330333 -0.317695 0.236154
v 0.316754 -0.336942 0.300751
v 0.317427 -0.224202 0.168656
v 0.355925 -0.234581 0.157041
v 0.321723 -0.410838 0.333984
v 0.316235 -0.507180 0.439721
v 0.329884 -0.182200 0.123409
v 0.356480 -0.345314 0.303084
v 0.341029 -0.374846 0.294954
v 0.350348 -0.219408 0.170534
v 0.313739 -0.497573 0.413254
v 0.329593 -0.420724 0.387732
v 0.329792 -0.291760 0.267372
v 0.329865 -0.235342 0.199581
v 0.330068 -0.143247 0.055839
v 0.354135 -0.399037 0.331611
v 0.348903 -0.146475 0.053756
v 0.341137 -0.437156 0.349447
v 0.329514 -0.503769 0.398740
v 0.313193 -0.652161 0.509011
v 0.329484 -0.492387 0.439439
v 0.329700 -0.353698 0.330240
v 0.357215 -0.500928 0.415342
v 0.346041 -0.329198 0.304209
v 0.329404 -0.575629 0.443069
v 0.322765 -0.653175 0.484982
v 0.329247 -0.652961 0.526606
v 0.329391 -0.568188 0.484982
v 0.346398 -0.463587 0.417662
v 0.354600 -0.470033 0.412730
v 0.346302 -0.540923 0.426639
v 0.352783 -0.579528 0.484109
v 0.351001 -0.653753 0.487687
v 0.357413 -0.655599 0.515245
vn -0.8412097672183624 -0.46262287198186 -0.27990392254429747
vn -0.6546828429592814 -0.6099638536861581 -0.4464688929041802
vn -0.9698119960581992 -0.20264799917633722 -0.13564099944868718
vn 0.9698119960581992 0.20264799917633722 0.13564099944868718
vn 0.6546828429592814 0.6099638536861581 0.4464688929041802
vn 0.8412097672183624 0.46262287198186 0.27990392254429747
vn -0.1967800169981538 0.7879260680622386 0.5834810504019706
vn -0.45349694075992525 0.7312349044791563 0.5095449334384046
vn -0.23678903365849796 0.8141121157223818 0.5302380753709617
vn 0.23678903365849796 -0.8141121157223818 -0.5302380753709617
vn 0.45349694075992525 -0.7312349044791563 -0.5095449334384046
vn 0.1967800169981538 -0.7879260680622386 -0.5834810504019706
vn -0.6670167555097223 -0.533068804607397 -0.5205058092122742
vn 0.6670167555097223 0.533068804607397 0.5205058092122742
vn -0.9374457654225067 0.30285092421747123 0.17168795703844203
vn 0.9374457654225067 -0.30285092421747123 -0.17168795703844203
vn -0.30432505569118595 0.7105961300383931 0.6343811160911204
vn 0.30432505569118595 -0.7105961300383931 -0.6343811160911204
vn -0.5311740412082182 0.7170890556314126 0.4512620350086844
vn 0.5311740412082182 -0.7170890556314126 -0.4512620350086844
vn -0.6848501551387808 -0.5333041208091296 -0.49655511248439416
vn 0.6848501551387808 0.5333041208091296 0.49655511248439416
vn -0.986799657832212 0.11252296098323265 0.11646895961497761
vn -0.8555591930868982 0.3621180817246285 0.369985083500093
vn 0.8555591930868982 -0.3621180817246285 -0.369985083500093
vn 0.986799657832212 -0.11252296098323265 -0.11646895961497761
vn -0.8179487864119243 0.4620458793475925 0.34274391050049396
vn 0.8179487864119243 -0.4620458793475925 -0.34274391050049396
vn -0.965709113179666 0.20705102426607086 0.15663901835785904
vn -0.9067260288606366 0.3165920100769655 0.27859900886766725
vn 0.9067260288606366 -0.3165920100769655 -0.27859900886766725
vn 0.965709113179666 -0.20705102426607086 -0.15663901835785904
vn -0.5205661190011681 0.6413411466102823 0.5636421288483235
vn 0.5205661190011681 -0.6413411466102823 -0.5636421288483235
vn -0.44960601458319616 -0.5800730188149587 -0.679242022031555
vn 0.44960601458319616 0.5800730188149587 0.679242022031555
vn -0.8212946488781335 0.3069278687814582 0.48090579440199643
vn 0.8212946488781335 -0.3069278687814582 -0.48090579440199643
vn -0.657786130690277 0.6386661268914761 0.39927807932937526
vn 0.657786130690277 -0.6386661268914761 -0.39927807932937526
vn -0.976785536541605 -0.14884208175793606 -0.15406508462689578
vn 0.976785536541605 0.14884208175793606 0.15406508462689578
vn -0.9486619076928293 0.21767997881919493 0.2294689776720959
vn 0.9486619076928293 -0.21767997881919493 -0.2294689776720959
vn -0.9669548096428776 -0.2230539560890449 -0.12347197569300059
vn -0.6725798410337556 -0.595758859190623 -0.43898489624461506
vn 0.6725798410337556 0.595758859190623 0.43898489624461506
vn 0.9669548096428776 0.2230539560890449 0.12347197569300059
vn -0.8579760059299011 -0.2800240019353859 -0.4306550029764721
vn 0.8579760059299011 0.2800240019353859 0.4306550029764721
vn -0.9659010112092814 -0.1664500019316523 -0.19831700230146884
vn 0.9659010112092814 0.1664500019316523 0.19831700230146884
vn -0.9719437468334714 -0.1781419535985697 -0.15359295999295575
vn 0.9719437468334714 0.1781419535985697 0.15359295999295575
vn -0.6195058160585287 0.6253908143111759 0.474445859129217
vn 0.6195058160585287 -0.6253908143111759 -0.474445859129217
vn -0.6819167026669936 0.6344807233502856 0.3639008413299883
vn 0.6819167026669936 -0.6344807233502856 -0.3639008413299883
vn -0.7890591369357017 0.40279706990261804 0.4638320804948178
vn 0.7890591369357017 -0.40279706990261804 -0.4638320804948178
vn -0.9711751831689983 -0.20739003911490572 -0.11750802216266137
vn 0.9711751831689983 0.20739003911490572 0.11750802216266137
vn -0.41319784761472794 -0.5851187842111577 -0.6977847426605233
vn 0.41319784761472794 0.5851187842111577 0.6977847426605233
vn -0.9694400848332819 -0.1574030137739448 -0.18817601646681348
vn 0.9694400848332819 0.1574030137739448 0.18817601646681348
vn -0.984972633748829 0.0708819736433227 0.15749494143724938
vn 0.984972633748829 -0.0708819736433227 -0.15749494143724938
vn -0.9808578657813806 -0.10770598526172939 -0.16222597780132317
vn 0.9808578657813806 0.10770598526172939 0.16222597780132317
vn -0.9671619041329824 -0.17151998299859708 -0.18755998140868044
vn 0.9671619041329824 0.17151998299859708 0.18755998140868044
vn -0.23398001507533284 -0.7733320498257856 -0.5892460379651235
vn -0.22925998715295845 -0.8233249538633408 -0.5192069709051997
vn 0.22925998715295845 0.8233249538633408 0.5192069709051997
vn 0.23398001507533284 0.7733320498257856 0.5892460379651235
vn -0.19958106163273695 -0.8486872620835781 -0.48979315125329126
vn -0.2580228628802365 -0.82923555932361 -0.4957747365329807
vn 0.2580228628802365 0.82923555932361 0.4957747365329807
vn 0.19958106163273695 0.8486872620835781 0.48979315125329126
vn -0.9524174322750907 0.16726190029713445 0.25480284811499776
vn 0.9524174322750907 -0.16726190029713445 -0.25480284811499776
vn -0.4151071085117105 -0.6338731656985873 -0.6526031705947329
vn 0.4151071085117105 0.6338731656985873 0.6526031705947329
vn -0.6800328242023572 0.4514968832819755 0.5776728506637888
vn 0.6800328242023572 -0.4514968832819755 -0.5776728506637888
vn -0.7586172064884249 0.3313270901840986 0.561001152699205
vn 0.7586172064884249 -0.3313270901840986 -0.561001152699205
vn -0.9770108084990613 -0.0907779822068818 -0.19289696219084887
vn 0.9770108084990613 0.0907779822068818 0.19289696219084887
vn -0.7056299454780931 0.31523497564274006 0.6345969509665993
vn 0.7056299454780931 -0.31523497564274006 -0.6345969509665993
vn -0.609960907442709 0.3830909418686356 0.6936778947392432
vn 0.609960907442709 -0.3830909418686356 -0.6936778947392432
vn -0.4372369487551767 -0.5230469386981178 -0.7316049142548116
vn 0.4372369487551767 0.5230469386981178 0.7316049142548116
vn -0.8803351113069374 -0.27706503503127405 -0.38502604868154156
vn 0.8803351113069374 0.27706503503127405 0.38502604868154156
vn -0.36481897589896484 0.48595796789615986 0.7941989475328367
vn 0.36481897589896484 -0.48595796789615986 -0.7941989475328367
vn -0.24351900848505476 -0.47363401650306713 -0.8463860294910521
vn 0.24351900848505476 0.47363401650306713 0.8463860294910521
vn -0.652048562265276 -0.36012975823687154 -0.6671875521021349
vn 0.652048562265276 0.36012975823687154 0.6671875521021349
vn -0.4922701700921721 0.4141721431072686 0.7655922645320785
vn 0.4922701700921721 -0.4141721431072686 -0.7655922645320785
vn -0.3093359872997473 -0.4001159835726385 -0.8626809645813398
vn 0.3093359872997473 0.4001159835726385 0.8626809645813398
vn -0.9999847783688982 -0.0038399991489238027 -0.003961999121884403
vn 0.9999847783688982 0.0038399991489238027 0.003961999121884403
vn -0.3771029661763166 -0.3704069667769042 -0.848876923861261
vn 0.3771029661763166 0.3704069667769042 0.848876923861261
usemtl material_0_0
f 1//1 2//2 3//3
f 3//4 2//5 1//6
f 2//7 4//8 1//9
f 1//10 4//11 2//12
f 3//3 2//2 5//13
f 5//14 2//5 3//4
f 6//15 1//1 3//3
f 3//4 1//6 6//16
f 7//17 4//8 2//7
f 2//12 4//11 7//18
f 4//8 8//19 1//9
f 1//10 8//20 4//11
f 5//13 2//2 9//21
f 9//22 2//5 5//14
f 3//3 5//23 10//24
f 10//25 5//26 3//4
f 6//15 3//3 11//27
f 11//28 3//4 6//16
f 12//29 4//8 7//30
f 7//31 4//11 12//32
f 7//17 2//7 9//33
f 9//34 2//12 7//18
f 8//19 4//8 12//29
f 12//32 4//11 8//20
f 9//21 13//35 5//13
f 5//14 13//36 9//22
f 10//24 5//23 14//37
f 14//38 5//26 10//25
f 11//27 3//3 10//24
f 10//25 3//4 11//28
f 6//15 11//27 15//39
f 15//40 11//28 6//16
f 12//29 7//30 16//41
f 16//42 7//31 12//32
f 7//17 9//33 17//43
f 17//44 9//34 7//18
f 8//45 12//29 18//46
f 18//47 12//32 8//48
f 13//35 9//33 17//43
f 17//44 9//34 13//36
f 5//13 13//35 19//49
f 19//50 13//36 5//14
f 5//23 19//49 14//37
f 14//38 19//50 5//26
f 10//24 14//37 20//51
f 20//52 14//38 10//25
f 11//27 10//24 21//53
f 21//54 10//25 11//28
f 22//55 15//39 11//27
f 11//28 15//40 22//56
f 23//57 6//15 15//39
f 15//40 6//16 23//58
f 7//30 24//59 16//41
f 16//42 24//60 7//31
f 18//46 12//29 16//41
f 16//42 12//32 18//47
f 24//59 7//17 17//43
f 17//44 7//18 24//60
f 25//61 8//45 18//46
f 18//47 8//48 25//62
f 26//63 13//35 17//43
f 17//44 13//36 26//64
f 13//35 27//65 19//49
f 19//50 27//66 13//36
f 19//49 28//67 14//37
f 14//38 28//68 19//50
f 20//51 14//37 29//69
f 29//70 14//38 20//52
f 10//24 20//51 30//71
f 30//72 20//52 10//25
f 30//71 21//53 10//24
f 10//25 21//54 30//72
f 11//27 21//53 22//55
f 22//56 21//54 11//28
f 22//73 15//74 18//46
f 18//47 15//75 22//76
f 15//74 23//77 25//78
f 25//79 23//80 15//75
f 16//41 24//59 31//81
f 31//82 24//60 16//42
f 18//46 16//41 32//83
f 32//84 16//42 18//47
f 17//43 26//85 24//59
f 24//60 26//86 17//44
f 18//46 15//74 25//78
f 25//79 15//75 18//47
f 26//63 27//65 13//35
f 13//36 27//66 26//64
f 19//49 27//65 33//87
f 33//88 27//66 19//50
f 19//49 34//89 28//67
f 28//68 34//90 19//50
f 14//37 28//67 35//91
f 35//92 28//68 14//38
f 29//69 14//37 36//93
f 36//94 14//38 29//70
f 37//95 29//69 20//51
f 20//52 29//70 37//96
f 32//83 20//51 30//71
f 30//72 20//52 32//84
f 30//71 21//53 32//83
f 32//84 21//54 30//72
f 21//53 22//73 18//46
f 18//47 22//76 21//54
f 31//81 24//59 26//85
f 26//86 24//60 31//82
f 16//41 31//81 38//97
f 38//98 31//82 16//42
f 32//83 16//41 37//95
f 37//96 16//42 32//84
f 32//83 21//53 18//46
f 18//47 21//54 32//84
f 39//99 26//63 27//65
f 27//66 26//64 39//100
f 39//99 27//65 33//87
f 33//88 27//66 39//100
f 33//87 34//89 19//49
f 19//50 34//90 33//88
f 14//37 35//91 36//93
f 36//94 35//92 14//38
f 37//95 36//101 29//69
f 29//70 36//102 37//96
f 37//95 20//51 32//83
f 32//84 20//52 37//96
f 26//85 39//99 31//81
f 31//82 39//100 26//86
f 38//97 31//81 40//103
f 40//104 31//82 38//98
f 16//41 38//97 37//95
f 37//96 38//98 16//42
f 41//105 39//99 33//87
f 33//88 39//100 41//106
f 41//105 33//87 34//89
f 34//90 33//88 41//106
f 40//103 35//107 36//101
f 36//102 35//108 40//104
f 40//103 36//101 37//95
f 37//96 36//102 40//104
f 31//81 39//99 41//105
f 41//106 39//100 31//82
f 31//81 42//109 40//103
f 40//104 42//110 31//82
f 37//95 38//97 40//103
f 40//104 38//98 37//96
f 42//111 35//107 40//103
f 40//104 35//108 42//112
f 31//81 41//105 42//109
f 42//110 41//106 31//82
