# SSTK version 0.8.0
# 24
mtllib original-24.mtl
o mesh24/mesh24-geometry#mesh24-geometry
v 0.402572 -0.151890 0.057093
v -0.409554 -0.138038 0.053381
v -0.409554 -0.151890 0.057093
v 0.402572 -0.138038 0.053381
v 0.402572 -0.165737 0.053381
v 0.402572 -0.127901 0.043243
v -0.409554 -0.165737 0.053381
v -0.409554 -0.127901 0.043243
v -0.409554 -0.175874 0.043243
v 0.402572 -0.124190 0.029393
v 0.402572 -0.175874 0.043243
v -0.409554 -0.124190 0.029393
v -0.409554 -0.179589 0.029393
v 0.402572 -0.127901 0.015543
v 0.402572 -0.179589 0.029393
v -0.409554 -0.127901 0.015543
v -0.409554 -0.175874 0.015543
v 0.402572 -0.138038 0.005404
v 0.402572 -0.175874 0.015543
v -0.409554 -0.138038 0.005404
v -0.409554 -0.165737 0.005404
v -0.409554 -0.151890 0.001694
v 0.402572 -0.165737 0.005404
v 0.402572 -0.151890 0.001694
vn 0 -0.000035999999976672 1
vn 0 0.5000218708311168 0.8660127762859794
vn 0 0.000035999999976672 -1
vn 0 -0.5000218708311168 -0.8660127762859794
vn 0 -0.5000529142824369 0.8659948515537733
vn 0 0.5000529142824369 -0.8659948515537733
vn 0 0.866050171326825 0.4999570989042728
vn 0 -0.866050171326825 -0.4999570989042728
vn 0 -0.8659827567606326 0.500073859538024
vn 0 0.8659827567606326 -0.500073859538024
vn 0 1 0
vn 0 -1 0
vn 0 0.8660553179597107 -0.4999481835487601
vn 0 -0.8660553179597107 0.4999481835487601
vn 0 -0.8659874715313067 -0.5000656948350028
vn 0 0.8659874715313067 0.5000656948350028
vn 0 0.5000180048629251 -0.8660150084224291
vn 0 -0.5000180048629251 0.8660150084224291
vn 0 -0.5000497983527092 -0.865996650783024
vn 0 0.5000497983527092 0.865996650783024
vn 0 -0.000035999999976672 -1
vn 0 0.000035999999976672 1
usemtl material_0_0
f 1//1 2//2 3//1
f 2//2 1//1 4//2
f 3//3 2//4 1//3
f 4//4 1//3 2//4
f 3//1 5//5 1//1
f 1//3 5//6 3//3
f 6//7 2//2 4//2
f 4//4 2//4 6//8
f 5//5 3//1 7//5
f 7//6 3//3 5//6
f 2//2 6//7 8//7
f 8//8 6//8 2//4
f 9//9 5//5 7//5
f 7//6 5//6 9//10
f 10//11 8//7 6//7
f 6//8 8//8 10//12
f 5//5 9//9 11//9
f 11//10 9//10 5//6
f 8//7 10//11 12//11
f 12//12 10//12 8//8
f 13//12 11//9 9//9
f 9//10 11//10 13//11
f 14//13 12//11 10//11
f 10//12 12//12 14//14
f 11//9 13//12 15//12
f 15//11 13//11 11//10
f 12//11 14//13 16//13
f 16//14 14//14 12//12
f 17//15 15//12 13//12
f 13//11 15//11 17//16
f 18//17 16//13 14//13
f 14//14 16//14 18//18
f 15//12 17//15 19//15
f 19//16 17//16 15//11
f 16//13 18//17 20//17
f 20//18 18//18 16//14
f 21//19 19//15 17//15
f 17//16 19//16 21//20
f 18//17 22//21 20//17
f 20//18 22//22 18//18
f 19//15 21//19 23//19
f 23//20 21//20 19//16
f 22//21 18//17 24//21
f 24//22 18//18 22//22
f 21//19 24//21 23//19
f 23//20 24//22 21//20
f 24//21 21//19 22//21
f 22//22 21//20 24//22
