# SSTK version 0.8.0
# 17
mtllib original-17.mtl
o mesh17/mesh17-geometry#mesh17-geometry
v -0.382316 -0.750185 0.557155
v -0.361478 -0.757307 0.542122
v -0.379947 -0.753826 0.515946
v -0.361464 -0.739107 0.569298
v -0.361457 -0.749254 0.510314
v -0.381733 -0.724084 0.496790
v -0.381253 -0.710420 0.575410
v -0.382250 -0.680191 0.546361
v -0.361464 -0.706518 0.574076
v -0.361465 -0.720146 0.494933
v -0.378601 -0.686543 0.506866
v -0.361457 -0.681243 0.552981
v -0.361886 -0.680940 0.513169
vn 0.1718789842403307 0.8124239255084474 -0.5571579489139115
vn -0.0005270001096742677 0.990557206145377 -0.13709902853175035
vn 0.05978799610678519 0.9941429352643967 0.09002899413758218
vn -0.05978799610678519 -0.9941429352643967 -0.09002899413758218
vn 0.0005270001096742677 -0.990557206145377 0.13709902853175035
vn -0.1718789842403307 -0.8124239255084474 0.5571579489139115
vn 0.031565989030236746 0.49187982906268934 -0.8700906976274384
vn -0.031565989030236746 -0.49187982906268934 0.8700906976274384
vn -0.16277896269879805 0.9565097808134176 0.24205794453182325
vn 0.16277896269879805 -0.9565097808134176 -0.24205794453182325
vn 0.9983907960003272 -0.006623998646528431 0.05631998849222242
vn 0.9995856107094606 0.02822198900889208 0.005667997792587354
vn 0.9946075051841561 0.09135204639981724 0.04909902493853037
vn -0.9946075051841561 -0.09135204639981724 -0.04909902493853037
vn -0.9995856107094606 -0.02822198900889208 -0.005667997792587354
vn -0.9983907960003272 0.006623998646528431 -0.05631998849222242
vn 0.10503294983953115 0.2760068681877074 -0.9553995437309042
vn -0.10503294983953115 -0.2760068681877074 0.9553995437309042
vn 0.05481102287620733 0.5065182114030174 0.8604853591365469
vn 0.11905793832770627 0.5426787188911397 0.831459569301976
vn -0.11905793832770627 -0.5426787188911397 -0.831459569301976
vn -0.05481102287620733 -0.5065182114030174 -0.8604853591365469
vn 0.998880893540279 -0.0396489957742499 0.025785997251754345
vn -0.998880893540279 0.0396489957742499 -0.025785997251754345
vn 0.9990888039877877 -0.0074189985444594 -0.04202999175409469
vn -0.9990888039877877 0.0074189985444594 0.04202999175409469
vn -0.0948550413593207 0.14442106297142432 -0.9849594294685062
vn 0.0948550413593207 -0.14442106297142432 0.9849594294685062
vn -0.009780001682331585 0.46717808036281233 0.8841091520822593
vn 0.009780001682331585 -0.46717808036281233 -0.8841091520822593
vn 0.987717632325143 -0.11172695840998267 0.10922895933985516
vn -0.987717632325143 0.11172695840998267 -0.10922895933985516
vn 0.13351502143436975 -0.6593611058531811 -0.7398761187789819
vn 0.19202091694127432 -0.676691707296727 -0.7107856925493599
vn -0.19202091694127432 0.676691707296727 0.7107856925493599
vn -0.13351502143436975 0.6593611058531811 0.7398761187789819
vn 0.074399999639718 -0.6390169969055601 -0.7655859962926498
vn -0.074399999639718 0.6390169969055601 0.7655859962926498
vn -0.028735983291611054 -0.3474867979555975 0.9372444550440563
vn 0.13930705047645614 -0.26753609693891317 0.9534243454633632
vn -0.13930705047645614 0.26753609693891317 -0.9534243454633632
vn 0.028735983291611054 0.3474867979555975 -0.9372444550440563
vn 0.1036990232237618 -0.9908842219120144 0.08599401925866375
vn 0.25240909978983106 -0.9514163761420629 0.17634206971676283
vn -0.1036990232237618 0.9908842219120144 -0.08599401925866375
vn -0.25240909978983106 0.9514163761420629 -0.17634206971676283
vn -0.048313003587264806 -0.9988070741619274 -0.007091000526510354
vn 0.048313003587264806 0.9988070741619274 0.007091000526510354
vn -0.19577694471827614 -0.4153128827277025 0.8883617491524399
vn 0.19577694471827614 0.4153128827277025 -0.8883617491524399
usemtl material_0_0
f 1//1 2//2 3//3
f 3//4 2//5 1//6
f 4//7 2//2 1//1
f 1//6 2//5 4//8
f 2//2 5//9 3//3
f 3//4 5//10 2//5
f 6//11 1//12 3//13
f 3//14 1//15 6//16
f 4//7 1//1 7//17
f 7//18 1//6 4//8
f 5//19 6//19 3//20
f 3//21 6//22 5//22
f 8//23 1//12 6//11
f 6//16 1//15 8//24
f 8//23 7//25 1//12
f 1//15 7//26 8//24
f 4//7 7//17 9//27
f 9//28 7//18 4//8
f 5//19 10//29 6//19
f 6//22 10//30 5//22
f 8//23 6//11 11//31
f 11//32 6//16 8//24
f 12//33 7//33 8//34
f 8//35 7//36 12//36
f 12//33 9//37 7//33
f 7//36 9//38 12//36
f 10//39 11//39 6//40
f 6//41 11//42 10//42
f 8//43 11//44 13//43
f 13//45 11//46 8//45
f 12//47 8//43 13//43
f 13//45 8//45 12//48
f 10//39 13//49 11//39
f 11//42 13//50 10//42
