# SSTK version 0.8.0
# 19
mtllib original-19.mtl
o mesh19/mesh19-geometry#mesh19-geometry
v -0.353992 -0.177796 0.038617
v -0.347158 -0.244129 0.145067
v -0.362557 -0.229847 0.150388
v -0.332052 -0.239730 0.143506
v -0.363277 -0.343996 0.286377
v -0.362718 -0.155354 0.048638
v -0.327472 -0.317808 0.244105
v -0.322560 -0.169754 0.043475
v -0.347344 -0.317695 0.236154
v -0.360924 -0.336942 0.300750
v -0.360251 -0.224202 0.168656
v -0.321753 -0.234581 0.157040
v -0.355955 -0.410840 0.333985
v -0.361443 -0.507180 0.439721
v -0.347794 -0.182200 0.123409
v -0.321198 -0.345314 0.303084
v -0.336648 -0.374846 0.294954
v -0.327330 -0.219408 0.170534
v -0.363939 -0.497573 0.413253
v -0.348085 -0.420724 0.387732
v -0.347886 -0.291760 0.267372
v -0.347813 -0.235342 0.199581
v -0.347610 -0.143247 0.055839
v -0.323543 -0.399037 0.331611
v -0.328775 -0.146475 0.053756
v -0.336541 -0.437156 0.349447
v -0.348164 -0.503769 0.398740
v -0.364484 -0.652161 0.509011
v -0.348194 -0.492387 0.439439
v -0.347978 -0.353698 0.330241
v -0.320463 -0.500929 0.415342
v -0.331636 -0.329198 0.304209
v -0.348274 -0.575629 0.443069
v -0.354913 -0.653175 0.484982
v -0.348431 -0.652961 0.526606
v -0.348287 -0.568188 0.484982
v -0.331280 -0.463587 0.417662
v -0.323078 -0.470033 0.412730
v -0.331376 -0.540923 0.426639
v -0.324895 -0.579528 0.484109
v -0.326677 -0.653753 0.487687
v -0.320265 -0.655599 0.515245
vn -0.841207251705651 -0.4626261384267826 -0.27990608375337095
vn -0.6546800378221762 -0.6099660352389588 -0.446470025793467
vn -0.9698116029955789 -0.2026499170427403 -0.13564094447369524
vn 0.9698116029955789 0.2026499170427403 0.13564094447369524
vn 0.6546800378221762 0.6099660352389588 0.446470025793467
vn 0.841207251705651 0.4626261384267826 0.27990608375337095
vn -0.19676901801725438 0.7879280721470313 0.5834820534268285
vn -0.4534670107013682 0.7312520172568167 0.5095470120248001
vn -0.23673302153098766 0.8141290740454498 0.5302370482253268
vn 0.23673302153098766 -0.8141290740454498 -0.5302370482253268
vn 0.4534670107013682 -0.7312520172568167 -0.5095470120248001
vn 0.19676901801725438 -0.7879280721470313 -0.5834820534268285
vn -0.6670290468781361 -0.5330600374629277 -0.5204990365801532
vn 0.6670290468781361 0.5330600374629277 0.5204990365801532
vn -0.9374459263701874 0.3028509762131767 0.17168698651518954
vn 0.9374459263701874 -0.3028509762131767 -0.17168698651518954
vn -0.30432214047148065 0.7105963280028137 0.6343822928233215
vn 0.30432214047148065 -0.7105963280028137 -0.6343822928233215
vn -0.5311246736383287 0.7171245593464561 0.45126372271071175
vn 0.5311246736383287 -0.7171245593464561 -0.45126372271071175
vn -0.6848601122396784 -0.5332950874001391 -0.4965510813782737
vn 0.6848601122396784 0.5332950874001391 0.4965510813782737
vn -0.986799294596145 0.11252503359289097 0.11647003477061997
vn -0.855565185644832 0.36211107857268093 0.3699780802797024
vn 0.855565185644832 -0.36211107857268093 -0.3699780802797024
vn 0.986799294596145 -0.11252503359289097 -0.11647003477061997
vn -0.8179518516922555 0.46204191622441554 0.3427419378554084
vn 0.8179518516922555 -0.46204191622441554 -0.3427419378554084
vn -0.9657083485391743 0.2070560747297602 0.15663705653275176
vn -0.9067309483766349 0.31658498197570945 0.27859098413884065
vn 0.9067309483766349 -0.31658498197570945 -0.27859098413884065
vn 0.9657083485391743 -0.2070560747297602 -0.15663705653275176
vn -0.5205661190011681 0.6413411466102823 0.5636421288483235
vn 0.5205661190011681 -0.6413411466102823 -0.5636421288483235
vn -0.449611047063938 -0.5800690607198922 -0.679242071101026
vn 0.449611047063938 0.5800690607198922 0.679242071101026
vn -0.821291983391423 0.3069299937931082 0.480908990274818
vn 0.821291983391423 -0.3069299937931082 -0.480908990274818
vn -0.6577899229076833 0.6386629251493482 0.3992769532051431
vn 0.6577899229076833 -0.6386629251493482 -0.3992769532051431
vn -0.9767827818033562 -0.1488509667492282 -0.15407396558249917
vn 0.9767827818033562 0.1488509667492282 0.15407396558249917
vn -0.9486617011877385 0.217680931434218 0.22946892772120014
vn 0.9486617011877385 -0.217680931434218 -0.22946892772120014
vn -0.966959306061041 -0.22304107059674777 -0.12346003907745429
vn -0.6725828758321327 -0.5957568900152456 -0.43898291895783437
vn 0.6725828758321327 0.5957568900152456 0.43898291895783437
vn 0.966959306061041 0.22304107059674777 0.12346003907745429
vn -0.8579762461834495 -0.2800230803484341 -0.4306551235700456
vn 0.8579762461834495 0.2800230803484341 0.4306551235700456
vn -0.965900431067936 -0.166452074285247 -0.1983180885066062
vn 0.965900431067936 0.166452074285247 0.1983180885066062
vn -0.9719420240181456 -0.17814700440227973 -0.15359800379563712
vn 0.9719420240181456 0.17814700440227973 0.15359800379563712
vn -0.6195151561392124 0.6253851576186554 0.47444111957554547
vn 0.6195151561392124 -0.6253851576186554 -0.47444111957554547
vn -0.6819167026669936 0.6344807233502856 0.3639008413299883
vn 0.6819167026669936 -0.6344807233502856 -0.3639008413299883
vn -0.7890658333552316 0.40278991493379984 0.46382690204324734
vn 0.7890658333552316 -0.40278991493379984 -0.46382690204324734
vn -0.9711826998807981 -0.20736393591947327 -0.11749196369211028
vn 0.9711826998807981 0.20736393591947327 0.11749196369211028
vn -0.4131912243112468 -0.5851203176472787 -0.6977873788114262
vn 0.4131912243112468 0.5851203176472787 0.6977873788114262
vn -0.9694379543157221 -0.15740899258218008 -0.18818199113201795
vn 0.9694379543157221 0.15740899258218008 0.18818199113201795
vn -0.9849730836350529 0.07088000601849244 0.1574930133728898
vn 0.9849730836350529 -0.07088000601849244 -0.1574930133728898
vn -0.9808600075089737 -0.10770000082449735 -0.16221700124185223
vn 0.9808600075089737 0.10770000082449735 0.16221700124185223
vn -0.9671576595465399 -0.17153193961828064 -0.18757093397232308
vn 0.9671576595465399 0.17153193961828064 0.18757093397232308
vn -0.23398001507533284 -0.7733320498257856 -0.5892460379651235
vn -0.22925998715295845 -0.8233249538633408 -0.5192069709051997
vn 0.22925998715295845 0.8233249538633408 0.5192069709051997
vn 0.23398001507533284 0.7733320498257856 0.5892460379651235
vn -0.19958106163273695 -0.8486872620835781 -0.48979315125329126
vn -0.2580239242250932 -0.8292357564750542 -0.4957738544041304
vn 0.2580239242250932 0.8292357564750542 0.4957738544041304
vn 0.19958106163273695 0.8486872620835781 0.48979315125329126
vn -0.9524202726055792 0.16725604787270187 0.2547960729287616
vn 0.9524202726055792 -0.16725604787270187 -0.2547960729287616
vn -0.4151117887343053 -0.6338726773988234 -0.6526006678674584
vn 0.4151117887343053 0.6338726773988234 0.6526006678674584
vn -0.6800288813968531 0.4514989212545315 0.5776758992481328
vn 0.6800288813968531 -0.4514989212545315 -0.5776758992481328
vn -0.7586163564022204 0.3313271556593566 0.5610022635620109
vn 0.7586163564022204 -0.3313271556593566 -0.5610022635620109
vn -0.9770096544195337 -0.09078196788928886 -0.1929009317685412
vn 0.9770096544195337 0.09078196788928886 0.1929009317685412
vn -0.7056259235196799 0.3152359658326788 0.6346009312178298
vn 0.7056259235196799 -0.3152359658326788 -0.6346009312178298
vn -0.6099480013119982 0.38309500082403736 0.6936870014921208
vn 0.6099480013119982 -0.38309500082403736 -0.6936870014921208
vn -0.43723879509639424 -0.5230457548846024 -0.7316046571474583
vn 0.43723879509639424 0.5230457548846024 0.7316046571474583
vn -0.880329342192445 -0.2770721077005814 -0.3850341496664609
vn 0.880329342192445 0.2770721077005814 0.3850341496664609
vn -0.36481590815085757 0.4859588776508777 0.7941998000455328
vn 0.36481590815085757 -0.4859588776508777 -0.7941998000455328
vn -0.24351900848505476 -0.47363401650306713 -0.8463860294910521
vn 0.24351900848505476 0.47363401650306713 0.8463860294910521
vn -0.6520439133300028 -0.36013195213108407 -0.6671909113166564
vn 0.6520439133300028 0.36013195213108407 0.6671909113166564
vn -0.4922692085366031 0.4141731754533203 0.765592324322586
vn 0.4922692085366031 -0.4141731754533203 -0.765592324322586
vn -0.3093359872997473 -0.4001159835726385 -0.8626809645813398
vn 0.3093359872997473 0.4001159835726385 0.8626809645813398
vn -0.9999847547062698 -0.003840999057812649 -0.003966999026905176
vn 0.9999847547062698 0.003840999057812649 0.003966999026905176
vn -0.3771029661763166 -0.3704069667769042 -0.848876923861261
vn 0.3771029661763166 0.3704069667769042 0.848876923861261
usemtl material_0_0
f 1//1 2//2 3//3
f 3//4 2//5 1//6
f 2//7 4//8 1//9
f 1//10 4//11 2//12
f 3//3 2//2 5//13
f 5//14 2//5 3//4
f 6//15 1//1 3//3
f 3//4 1//6 6//16
f 7//17 4//8 2//7
f 2//12 4//11 7//18
f 4//8 8//19 1//9
f 1//10 8//20 4//11
f 5//13 2//2 9//21
f 9//22 2//5 5//14
f 3//3 5//23 10//24
f 10//25 5//26 3//4
f 6//15 3//3 11//27
f 11//28 3//4 6//16
f 12//29 4//8 7//30
f 7//31 4//11 12//32
f 7//17 2//7 9//33
f 9//34 2//12 7//18
f 8//19 4//8 12//29
f 12//32 4//11 8//20
f 9//21 13//35 5//13
f 5//14 13//36 9//22
f 10//24 5//23 14//37
f 14//38 5//26 10//25
f 11//27 3//3 10//24
f 10//25 3//4 11//28
f 6//15 11//27 15//39
f 15//40 11//28 6//16
f 12//29 7//30 16//41
f 16//42 7//31 12//32
f 7//17 9//33 17//43
f 17//44 9//34 7//18
f 8//45 12//29 18//46
f 18//47 12//32 8//48
f 13//35 9//33 17//43
f 17//44 9//34 13//36
f 5//13 13//35 19//49
f 19//50 13//36 5//14
f 5//23 19//49 14//37
f 14//38 19//50 5//26
f 10//24 14//37 20//51
f 20//52 14//38 10//25
f 11//27 10//24 21//53
f 21//54 10//25 11//28
f 22//55 15//39 11//27
f 11//28 15//40 22//56
f 23//57 6//15 15//39
f 15//40 6//16 23//58
f 7//30 24//59 16//41
f 16//42 24//60 7//31
f 18//46 12//29 16//41
f 16//42 12//32 18//47
f 24//59 7//17 17//43
f 17//44 7//18 24//60
f 25//61 8//45 18//46
f 18//47 8//48 25//62
f 26//63 13//35 17//43
f 17//44 13//36 26//64
f 13//35 27//65 19//49
f 19//50 27//66 13//36
f 19//49 28//67 14//37
f 14//38 28//68 19//50
f 20//51 14//37 29//69
f 29//70 14//38 20//52
f 10//24 20//51 30//71
f 30//72 20//52 10//25
f 30//71 21//53 10//24
f 10//25 21//54 30//72
f 11//27 21//53 22//55
f 22//56 21//54 11//28
f 22//73 15//74 18//46
f 18//47 15//75 22//76
f 15//74 23//77 25//78
f 25//79 23//80 15//75
f 16//41 24//59 31//81
f 31//82 24//60 16//42
f 18//46 16//41 32//83
f 32//84 16//42 18//47
f 17//43 26//85 24//59
f 24//60 26//86 17//44
f 18//46 15//74 25//78
f 25//79 15//75 18//47
f 26//63 27//65 13//35
f 13//36 27//66 26//64
f 19//49 27//65 33//87
f 33//88 27//66 19//50
f 19//49 34//89 28//67
f 28//68 34//90 19//50
f 14//37 28//67 35//91
f 35//92 28//68 14//38
f 29//69 14//37 36//93
f 36//94 14//38 29//70
f 37//95 29//69 20//51
f 20//52 29//70 37//96
f 32//83 20//51 30//71
f 30//72 20//52 32//84
f 30//71 21//53 32//83
f 32//84 21//54 30//72
f 21//53 22//73 18//46
f 18//47 22//76 21//54
f 31//81 24//59 26//85
f 26//86 24//60 31//82
f 16//41 31//81 38//97
f 38//98 31//82 16//42
f 32//83 16//41 37//95
f 37//96 16//42 32//84
f 32//83 21//53 18//46
f 18//47 21//54 32//84
f 39//99 26//63 27//65
f 27//66 26//64 39//100
f 39//99 27//65 33//87
f 33//88 27//66 39//100
f 33//87 34//89 19//49
f 19//50 34//90 33//88
f 14//37 35//91 36//93
f 36//94 35//92 14//38
f 37//95 36//101 29//69
f 29//70 36//102 37//96
f 37//95 20//51 32//83
f 32//84 20//52 37//96
f 26//85 39//99 31//81
f 31//82 39//100 26//86
f 38//97 31//81 40//103
f 40//104 31//82 38//98
f 16//41 38//97 37//95
f 37//96 38//98 16//42
f 41//105 39//99 33//87
f 33//88 39//100 41//106
f 41//105 33//87 34//89
f 34//90 33//88 41//106
f 40//103 35//107 36//101
f 36//102 35//108 40//104
f 40//103 36//101 37//95
f 37//96 36//102 40//104
f 31//81 39//99 41//105
f 41//106 39//100 31//82
f 31//81 42//109 40//103
f 40//104 42//110 31//82
f 37//95 38//97 40//103
f 40//104 38//98 37//96
f 42//111 35//107 40//103
f 40//104 35//108 42//112
f 31//81 41//105 42//109
f 42//110 41//106 31//82
