# SSTK version 0.8.0
# 1
mtllib original-1.mtl
o Component_3_1/Component_3/mesh1/mesh1-geometry#mesh1-geometry
v 0.429243 -0.512414 -0.335055
v -0.413858 -0.515094 -0.338547
v -0.413858 -0.512414 -0.335055
v 0.429243 -0.515094 -0.338547
v -0.413858 -0.541620 -0.335055
v 0.429243 -0.510730 -0.330988
v 0.429243 -0.538940 -0.338547
v 0.429243 -0.518586 -0.341227
v -0.413858 -0.543305 -0.330988
v -0.413858 -0.538940 -0.338547
v -0.413858 -0.510730 -0.330988
v 0.429243 -0.541620 -0.335055
v 0.429243 -0.535448 -0.341227
v -0.413858 -0.518586 -0.341227
v 0.429243 -0.510155 -0.326624
v 0.429243 -0.543305 -0.330988
v -0.413858 -0.535448 -0.341227
v 0.429243 -0.522653 -0.342911
v 0.429243 -0.531381 -0.342911
v -0.413858 -0.543879 -0.326624
v -0.413858 -0.510155 -0.326624
v -0.413858 -0.531381 -0.342911
v -0.413858 -0.522653 -0.342911
v 0.429243 -0.510730 -0.322260
v 0.429243 -0.543879 -0.326624
v 0.429243 -0.527017 -0.343486
v -0.413858 -0.527017 -0.343486
v -0.413858 -0.543305 -0.322260
v -0.413858 -0.510730 -0.322260
v 0.429243 -0.512414 -0.318193
v 0.429243 -0.543305 -0.322260
v -0.413858 -0.541620 -0.318193
v -0.413858 -0.512414 -0.318193
v 0.429243 -0.515094 -0.314701
v 0.429243 -0.541620 -0.318193
v -0.413858 -0.538940 -0.314701
v -0.413858 -0.515094 -0.314701
v -0.413858 -0.518586 -0.312021
v 0.429243 -0.538940 -0.314701
v -0.413858 -0.535448 -0.312021
v 0.429243 -0.518586 -0.312021
v 0.429243 -0.535448 -0.312021
v -0.413858 -0.522653 -0.310336
v -0.413858 -0.531381 -0.310336
v 0.429243 -0.531381 -0.310336
v 0.429243 -0.522653 -0.310336
v -0.413858 -0.527017 -0.309762
v 0.429243 -0.527017 -0.309762
vn 0 0.8660253028382763 -0.5000001748438416
vn 0 0.7071067811865477 -0.7071067811865472
vn 0 -0.8660253028382763 0.5000001748438416
vn 0 -0.7071067811865477 0.7071067811865472
vn -1 0 0
vn 1 0 0
vn 0 0.9659258492011171 -0.2588189595935752
vn 0 -0.9659258492011171 0.2588189595935752
vn 0 0.500000174843842 -0.866025302838276
vn 0 -0.500000174843842 0.866025302838276
vn 0 -0.866025302838276 -0.500000174843842
vn 0 -0.9659258492011171 -0.25881895959357565
vn 0 0.866025302838276 0.500000174843842
vn 0 0.9659258492011171 0.25881895959357565
vn 0 -0.7071067811865472 -0.7071067811865477
vn 0 0.7071067811865472 0.7071067811865477
vn 0 1 0
vn 0 -1 0
vn 0 -0.5000001748438416 -0.8660253028382763
vn 0 0.5000001748438416 0.8660253028382763
vn 0 0.25881895959357565 -0.9659258492011171
vn 0 -0.25881895959357565 0.9659258492011171
vn 0 -0.2588189595935752 -0.9659258492011171
vn 0 0.2588189595935752 0.9659258492011171
vn 0 0 -1
vn 0 0 1
usemtl material_0_0
f 1//1 2//2 3//1
f 2//2 1//1 4//2
f 3//3 2//4 1//3
f 4//4 1//3 2//4
f 5//5 3//5 2//5
f 2//6 3//6 5//6
f 3//1 6//7 1//1
f 1//3 6//8 3//3
f 1//6 7//6 4//6
f 4//5 7//5 1//5
f 8//9 2//2 4//2
f 4//4 2//4 8//10
f 9//5 3//5 5//5
f 5//6 3//6 9//6
f 5//5 2//5 10//5
f 10//6 2//6 5//6
f 6//7 3//1 11//7
f 11//8 3//3 6//8
f 6//6 12//6 1//6
f 1//5 12//5 6//5
f 1//6 12//6 7//6
f 7//5 12//5 1//5
f 4//6 7//6 13//6
f 13//5 7//5 4//5
f 2//2 8//9 14//9
f 14//10 8//10 2//4
f 4//6 13//6 8//6
f 8//5 13//5 4//5
f 9//5 11//5 3//5
f 3//6 11//6 9//6
f 12//11 9//12 5//11
f 5//13 9//14 12//13
f 10//5 2//5 14//5
f 14//6 2//6 10//6
f 7//15 5//11 10//15
f 10//16 5//13 7//16
f 11//7 15//17 6//7
f 6//8 15//18 11//8
f 6//6 16//6 12//6
f 12//5 16//5 6//5
f 5//11 7//15 12//11
f 12//13 7//16 5//13
f 7//15 17//19 13//19
f 13//20 17//20 7//16
f 18//21 14//9 8//9
f 8//10 14//10 18//22
f 8//6 13//6 19//6
f 19//5 13//5 8//5
f 20//5 11//5 9//5
f 9//6 11//6 20//6
f 9//12 12//11 16//12
f 16//14 12//13 9//14
f 10//5 14//5 17//5
f 17//6 14//6 10//6
f 17//19 7//15 10//15
f 10//16 7//16 17//20
f 15//17 11//7 21//17
f 21//18 11//8 15//18
f 15//6 16//6 6//6
f 6//5 16//5 15//5
f 22//23 13//19 17//19
f 17//20 13//20 22//24
f 14//9 18//21 23//21
f 23//22 18//22 14//10
f 8//6 19//6 18//6
f 18//5 19//5 8//5
f 13//19 22//23 19//23
f 19//24 22//24 13//20
f 20//5 21//5 11//5
f 11//6 21//6 20//6
f 16//12 20//18 9//12
f 9//14 20//17 16//14
f 17//5 14//5 23//5
f 23//6 14//6 17//6
f 21//17 24//14 15//17
f 15//18 24//12 21//18
f 15//6 25//6 16//6
f 16//5 25//5 15//5
f 17//5 23//5 22//5
f 22//6 23//6 17//6
f 26//25 23//21 18//21
f 18//22 23//22 26//26
f 18//6 19//6 26//6
f 26//5 19//5 18//5
f 27//25 19//23 22//23
f 22//24 19//24 27//26
f 28//5 21//5 20//5
f 20//6 21//6 28//6
f 20//18 16//12 25//18
f 25//17 16//14 20//17
f 24//14 21//17 29//14
f 29//12 21//18 24//12
f 24//6 25//6 15//6
f 15//5 25//5 24//5
f 22//5 23//5 27//5
f 27//6 23//6 22//6
f 23//21 26//25 27//25
f 27//26 26//26 23//22
f 19//23 27//25 26//25
f 26//26 27//26 19//24
f 28//5 29//5 21//5
f 21//6 29//6 28//6
f 25//18 28//8 20//18
f 20//17 28//7 25//17
f 29//14 30//13 24//14
f 24//12 30//11 29//12
f 24//6 31//6 25//6
f 25//5 31//5 24//5
f 32//5 29//5 28//5
f 28//6 29//6 32//6
f 28//8 25//18 31//8
f 31//7 25//17 28//7
f 30//13 29//14 33//13
f 33//11 29//12 30//11
f 30//6 31//6 24//6
f 24//5 31//5 30//5
f 32//5 33//5 29//5
f 29//6 33//6 32//6
f 31//8 32//3 28//8
f 28//7 32//1 31//7
f 33//13 34//16 30//13
f 30//11 34//15 33//11
f 30//6 35//6 31//6
f 31//5 35//5 30//5
f 36//5 33//5 32//5
f 32//6 33//6 36//6
f 32//3 31//8 35//3
f 35//1 31//7 32//1
f 34//16 33//13 37//16
f 37//15 33//11 34//15
f 34//6 35//6 30//6
f 30//5 35//5 34//5
f 36//5 37//5 33//5
f 33//6 37//6 36//6
f 35//3 36//4 32//3
f 32//1 36//2 35//1
f 38//20 34//16 37//16
f 37//15 34//15 38//19
f 34//6 39//6 35//6
f 35//5 39//5 34//5
f 40//5 37//5 36//5
f 36//6 37//6 40//6
f 36//4 35//3 39//4
f 39//2 35//1 36//2
f 34//16 38//20 41//20
f 41//19 38//19 34//15
f 40//5 38//5 37//5
f 37//6 38//6 40//6
f 41//6 39//6 34//6
f 34//5 39//5 41//5
f 36//4 42//10 40//10
f 40//9 42//9 36//2
f 42//10 36//4 39//4
f 39//2 36//2 42//9
f 43//24 41//20 38//20
f 38//19 41//19 43//23
f 44//5 38//5 40//5
f 40//6 38//6 44//6
f 41//6 42//6 39//6
f 39//5 42//5 41//5
f 45//22 40//10 42//10
f 42//9 40//9 45//21
f 41//20 43//24 46//24
f 46//23 43//23 41//19
f 44//5 43//5 38//5
f 38//6 43//6 44//6
f 40//10 45//22 44//22
f 44//21 45//21 40//9
f 46//6 42//6 41//6
f 41//5 42//5 46//5
f 46//6 45//6 42//6
f 42//5 45//5 46//5
f 47//26 46//24 43//24
f 43//23 46//23 47//25
f 43//5 44//5 47//5
f 47//6 44//6 43//6
f 48//26 44//22 45//22
f 45//21 44//21 48//25
f 45//6 46//6 48//6
f 48//5 46//5 45//5
f 46//24 47//26 48//26
f 48//25 47//25 46//23
f 44//22 48//26 47//26
f 47//25 48//25 44//21
