# SSTK version 0.8.0
# 3
mtllib original-3.mtl
o Component_2_1/Component_2/mesh3/mesh3-geometry#mesh3-geometry
v -0.413858 -0.044430 -0.093908
v -0.413858 -0.086585 0.411952
v -0.413858 -0.044430 0.411952
v -0.413858 -0.086585 -0.093908
v -0.412415 -0.086585 0.433962
v -0.412415 -0.044430 0.433962
v -0.412415 -0.044430 -0.115917
v -0.412415 -0.086585 -0.115917
v -0.408112 -0.086585 0.455595
v -0.408112 -0.086585 -0.137550
v -0.408112 -0.044430 0.455595
v -0.408112 -0.044430 -0.137550
v -0.401022 -0.086585 0.476481
v -0.401022 -0.086585 -0.158436
v -0.401022 -0.044430 -0.158436
v -0.401022 -0.044430 0.476481
v -0.391267 -0.086585 0.496263
v -0.391267 -0.086585 -0.178218
v -0.391267 -0.044430 -0.178218
v -0.391267 -0.044430 0.496263
v -0.379013 -0.086585 0.514602
v -0.379013 -0.086585 -0.196557
v -0.379013 -0.044430 -0.196557
v -0.379013 -0.044430 0.514602
v -0.364470 -0.086585 0.531185
v -0.364470 -0.086585 -0.213140
v -0.364470 -0.044430 -0.213140
v -0.364470 -0.044430 0.531185
v -0.347887 -0.086585 0.545728
v -0.347887 -0.086585 -0.227683
v -0.347887 -0.044430 -0.227683
v -0.347887 -0.044430 0.545728
v -0.329548 -0.086585 0.557982
v -0.329548 -0.086585 -0.239937
v -0.329548 -0.044430 -0.239937
v -0.329548 -0.044430 0.557982
v -0.309766 -0.086585 0.567737
v -0.309766 -0.086585 -0.249693
v -0.309766 -0.044430 -0.249693
v -0.309766 -0.044430 0.567737
v -0.288880 -0.086585 0.574827
v -0.288880 -0.086585 -0.256782
v -0.288880 -0.044430 -0.256782
v -0.288880 -0.044430 0.574827
v -0.267247 -0.086585 0.579130
v -0.267247 -0.086585 -0.261085
v -0.267247 -0.044430 -0.261085
v -0.267247 -0.044430 0.579130
v -0.245238 -0.086585 0.580573
v -0.245238 -0.086585 -0.262528
v -0.245238 -0.044430 -0.262528
v -0.245238 -0.044430 0.580573
v 0.260623 -0.044430 0.580573
v 0.260623 -0.086585 -0.262528
v 0.260623 -0.086585 0.580573
v 0.260623 -0.044430 -0.262528
v 0.282632 -0.044430 0.579130
v 0.282632 -0.086585 -0.261085
v 0.282632 -0.086585 0.579130
v 0.282632 -0.044430 -0.261085
v 0.304265 -0.044430 0.574827
v 0.304265 -0.086585 -0.256782
v 0.304265 -0.086585 0.574827
v 0.304265 -0.044430 -0.256782
v 0.325151 -0.044430 0.567737
v 0.325151 -0.086585 -0.249693
v 0.325151 -0.086585 0.567737
v 0.325151 -0.044430 -0.249693
v 0.344933 -0.044430 0.557982
v 0.344933 -0.086585 -0.239937
v 0.344933 -0.086585 0.557982
v 0.344933 -0.044430 -0.239937
v 0.363272 -0.044430 0.545728
v 0.363272 -0.086585 -0.227683
v 0.363272 -0.086585 0.545728
v 0.363272 -0.044430 -0.227683
v 0.379855 -0.044430 0.531185
v 0.379855 -0.086585 0.531185
v 0.379855 -0.086585 -0.213140
v 0.379855 -0.044430 -0.213140
v 0.394398 -0.086585 0.514602
v 0.394398 -0.086585 -0.196557
v 0.394398 -0.044430 -0.196557
v 0.394398 -0.044430 0.514602
v 0.406652 -0.086585 0.496263
v 0.406652 -0.044430 -0.178218
v 0.406652 -0.044430 0.496263
v 0.406652 -0.086585 -0.178218
v 0.416407 -0.086585 0.476481
v 0.416407 -0.044430 -0.158436
v 0.416407 -0.044430 0.476481
v 0.416407 -0.086585 -0.158436
v 0.423497 -0.086585 0.455595
v 0.423497 -0.086585 -0.137550
v 0.423497 -0.044430 -0.137550
v 0.423497 -0.044430 0.455595
v 0.427800 -0.086585 0.433962
v 0.427800 -0.044430 -0.115917
v 0.427800 -0.044430 0.433962
v 0.427800 -0.086585 -0.115917
v 0.429243 -0.086585 0.411952
v 0.429243 -0.086585 -0.093908
v 0.429243 -0.044430 -0.093908
v 0.429243 -0.044430 0.411952
vn -1 0 0
vn 1 0 0
vn -0.9914448886106775 0 0.13052598533534113
vn -0.9978589320009055 0 0.06540299554311302
vn 0.9978589320009055 0 -0.06540299554311302
vn 0.9914448886106775 0 -0.13052598533534113
vn 0 1 0
vn 0 -1 0
vn -0.9914448886106775 0 -0.13052598533534113
vn -0.9978589320009055 0 -0.06540299554311302
vn 0.9978589320009055 0 0.06540299554311302
vn 0.9914448886106775 0 0.13052598533534113
vn -0.9659258492011171 0 0.2588189595935754
vn 0.9659258492011171 0 -0.2588189595935754
vn -0.9659258492011171 0 -0.2588189595935754
vn 0.9659258492011171 0 0.2588189595935754
vn -0.9238797538373537 0 0.38268289803626016
vn 0.9238797538373537 0 -0.38268289803626016
vn -0.9238797538373537 0 -0.38268289803626016
vn 0.9238797538373537 0 0.38268289803626016
vn -0.8660253028382761 0 0.5000001748438417
vn 0.8660253028382761 0 -0.5000001748438417
vn -0.8660253028382761 0 -0.5000001748438417
vn 0.8660253028382761 0 0.5000001748438417
vn -0.7933534213778813 0 0.6087613233345314
vn 0.7933534213778813 0 -0.6087613233345314
vn -0.7933534213778813 0 -0.6087613233345314
vn 0.7933534213778813 0 0.6087613233345314
vn -0.7071067811865475 0 0.7071067811865475
vn 0.7071067811865475 0 -0.7071067811865475
vn -0.7071067811865475 0 -0.7071067811865475
vn 0.7071067811865475 0 0.7071067811865475
vn -0.6087613233345314 0 0.7933534213778813
vn 0.6087613233345314 0 -0.7933534213778813
vn -0.6087613233345314 0 -0.7933534213778813
vn 0.6087613233345314 0 0.7933534213778813
vn -0.5000001748438417 0 0.8660253028382761
vn 0.5000001748438417 0 -0.8660253028382761
vn -0.5000001748438417 0 -0.8660253028382761
vn 0.5000001748438417 0 0.8660253028382761
vn -0.38268289803626016 0 0.9238797538373537
vn 0.38268289803626016 0 -0.9238797538373537
vn -0.38268289803626016 0 -0.9238797538373537
vn 0.38268289803626016 0 0.9238797538373537
vn -0.2588189595935754 0 0.9659258492011171
vn 0.2588189595935754 0 -0.9659258492011171
vn -0.2588189595935754 0 -0.9659258492011171
vn 0.2588189595935754 0 0.9659258492011171
vn -0.13052598533534113 0 0.9914448886106775
vn 0.13052598533534113 0 -0.9914448886106775
vn -0.13052598533534113 0 -0.9914448886106775
vn 0.13052598533534113 0 0.9914448886106775
vn -0.06540299554311302 0 0.9978589320009055
vn 0.06540299554311302 0 -0.9978589320009055
vn -0.06540299554311302 0 -0.9978589320009055
vn 0.06540299554311302 0 0.9978589320009055
vn 0 0 1
vn 0 0 -1
usemtl material_0_0
f 1//1 2//1 3//1
f 2//1 1//1 4//1
f 3//2 2//2 1//2
f 4//2 1//2 2//2
f 5//3 3//4 2//4
f 2//5 3//5 5//6
f 6//7 1//7 3//7
f 3//8 1//8 6//8
f 7//9 4//10 1//10
f 1//11 4//11 7//12
f 8//8 2//8 4//8
f 4//7 2//7 8//7
f 3//4 5//3 6//3
f 6//6 5//6 3//5
f 2//8 8//8 5//8
f 5//7 8//7 2//7
f 1//7 6//7 7//7
f 7//8 6//8 1//8
f 4//10 7//9 8//9
f 8//12 7//12 4//11
f 9//13 6//3 5//3
f 5//6 6//6 9//14
f 5//8 8//8 10//8
f 10//7 8//7 5//7
f 7//7 6//7 11//7
f 11//8 6//8 7//8
f 12//15 8//9 7//9
f 7//12 8//12 12//16
f 6//3 9//13 11//13
f 11//14 9//14 6//6
f 5//8 10//8 9//8
f 9//7 10//7 5//7
f 8//9 12//15 10//15
f 10//16 12//16 8//12
f 7//7 11//7 12//7
f 12//8 11//8 7//8
f 13//17 11//13 9//13
f 9//14 11//14 13//18
f 9//8 10//8 14//8
f 14//7 10//7 9//7
f 15//19 10//15 12//15
f 12//16 10//16 15//20
f 12//7 11//7 15//7
f 15//8 11//8 12//8
f 11//13 13//17 16//17
f 16//18 13//18 11//14
f 9//8 14//8 13//8
f 13//7 14//7 9//7
f 10//15 15//19 14//19
f 14//20 15//20 10//16
f 15//7 11//7 16//7
f 16//8 11//8 15//8
f 17//21 16//17 13//17
f 13//18 16//18 17//22
f 13//8 14//8 18//8
f 18//7 14//7 13//7
f 19//23 14//19 15//19
f 15//20 14//20 19//24
f 15//7 16//7 20//7
f 20//8 16//8 15//8
f 16//17 17//21 20//21
f 20//22 17//22 16//18
f 13//8 18//8 17//8
f 17//7 18//7 13//7
f 14//19 19//23 18//23
f 18//24 19//24 14//20
f 15//7 20//7 19//7
f 19//8 20//8 15//8
f 21//25 20//21 17//21
f 17//22 20//22 21//26
f 17//8 18//8 22//8
f 22//7 18//7 17//7
f 23//27 18//23 19//23
f 19//24 18//24 23//28
f 19//7 20//7 23//7
f 23//8 20//8 19//8
f 20//21 21//25 24//25
f 24//26 21//26 20//22
f 17//8 22//8 21//8
f 21//7 22//7 17//7
f 18//23 23//27 22//27
f 22//28 23//28 18//24
f 23//7 20//7 24//7
f 24//8 20//8 23//8
f 25//29 24//25 21//25
f 21//26 24//26 25//30
f 21//8 22//8 26//8
f 26//7 22//7 21//7
f 27//31 22//27 23//27
f 23//28 22//28 27//32
f 23//7 24//7 27//7
f 27//8 24//8 23//8
f 24//25 25//29 28//29
f 28//30 25//30 24//26
f 21//8 26//8 25//8
f 25//7 26//7 21//7
f 22//27 27//31 26//31
f 26//32 27//32 22//28
f 27//7 24//7 28//7
f 28//8 24//8 27//8
f 29//33 28//29 25//29
f 25//30 28//30 29//34
f 25//8 26//8 30//8
f 30//7 26//7 25//7
f 31//35 26//31 27//31
f 27//32 26//32 31//36
f 27//7 28//7 32//7
f 32//8 28//8 27//8
f 28//29 29//33 32//33
f 32//34 29//34 28//30
f 25//8 30//8 29//8
f 29//7 30//7 25//7
f 26//31 31//35 30//35
f 30//36 31//36 26//32
f 27//7 32//7 31//7
f 31//8 32//8 27//8
f 33//37 32//33 29//33
f 29//34 32//34 33//38
f 29//8 30//8 34//8
f 34//7 30//7 29//7
f 35//39 30//35 31//35
f 31//36 30//36 35//40
f 31//7 32//7 35//7
f 35//8 32//8 31//8
f 32//33 33//37 36//37
f 36//38 33//38 32//34
f 29//8 34//8 33//8
f 33//7 34//7 29//7
f 30//35 35//39 34//39
f 34//40 35//40 30//36
f 35//7 32//7 36//7
f 36//8 32//8 35//8
f 37//41 36//37 33//37
f 33//38 36//38 37//42
f 33//8 34//8 38//8
f 38//7 34//7 33//7
f 39//43 34//39 35//39
f 35//40 34//40 39//44
f 35//7 36//7 40//7
f 40//8 36//8 35//8
f 36//37 37//41 40//41
f 40//42 37//42 36//38
f 33//8 38//8 37//8
f 37//7 38//7 33//7
f 34//39 39//43 38//43
f 38//44 39//44 34//40
f 35//7 40//7 39//7
f 39//8 40//8 35//8
f 41//45 40//41 37//41
f 37//42 40//42 41//46
f 37//8 38//8 42//8
f 42//7 38//7 37//7
f 43//47 38//43 39//43
f 39//44 38//44 43//48
f 39//7 40//7 44//7
f 44//8 40//8 39//8
f 40//41 41//45 44//45
f 44//46 41//46 40//42
f 37//8 42//8 41//8
f 41//7 42//7 37//7
f 38//43 43//47 42//47
f 42//48 43//48 38//44
f 39//7 44//7 43//7
f 43//8 44//8 39//8
f 45//49 44//45 41//45
f 41//46 44//46 45//50
f 41//8 42//8 46//8
f 46//7 42//7 41//7
f 47//51 42//47 43//47
f 43//48 42//48 47//52
f 43//7 44//7 48//7
f 48//8 44//8 43//8
f 44//45 45//49 48//49
f 48//50 45//50 44//46
f 41//8 46//8 45//8
f 45//7 46//7 41//7
f 42//47 47//51 46//51
f 46//52 47//52 42//48
f 43//7 48//7 47//7
f 47//8 48//8 43//8
f 49//53 48//49 45//49
f 45//50 48//50 49//54
f 45//8 46//8 50//8
f 50//7 46//7 45//7
f 51//55 46//51 47//51
f 47//52 46//52 51//56
f 47//7 48//7 52//7
f 52//8 48//8 47//8
f 48//49 49//53 52//53
f 52//54 49//54 48//50
f 45//8 50//8 49//8
f 49//7 50//7 45//7
f 46//51 51//55 50//55
f 50//56 51//56 46//52
f 47//7 52//7 51//7
f 51//8 52//8 47//8
f 49//57 53//57 52//57
f 52//58 53//58 49//58
f 49//8 50//8 54//8
f 54//7 50//7 49//7
f 51//58 54//58 50//58
f 50//57 54//57 51//57
f 51//7 52//7 53//7
f 53//8 52//8 51//8
f 53//57 49//57 55//57
f 55//58 49//58 53//58
f 49//8 54//8 55//8
f 55//7 54//7 49//7
f 54//58 51//58 56//58
f 56//57 51//57 54//57
f 51//7 53//7 56//7
f 56//8 53//8 51//8
f 55//56 57//52 53//56
f 53//55 57//51 55//55
f 55//8 54//8 58//8
f 58//7 54//7 55//7
f 56//54 58//50 54//54
f 54//53 58//49 56//53
f 56//7 53//7 57//7
f 57//8 53//8 56//8
f 57//52 55//56 59//52
f 59//51 55//55 57//51
f 55//8 58//8 59//8
f 59//7 58//7 55//7
f 58//50 56//54 60//50
f 60//49 56//53 58//49
f 56//7 57//7 60//7
f 60//8 57//8 56//8
f 59//52 61//48 57//52
f 57//51 61//47 59//51
f 59//8 58//8 62//8
f 62//7 58//7 59//7
f 60//50 62//46 58//50
f 58//49 62//45 60//49
f 60//7 57//7 61//7
f 61//8 57//8 60//8
f 61//48 59//52 63//48
f 63//47 59//51 61//47
f 59//8 62//8 63//8
f 63//7 62//7 59//7
f 62//46 60//50 64//46
f 64//45 60//49 62//45
f 60//7 61//7 64//7
f 64//8 61//8 60//8
f 63//48 65//44 61//48
f 61//47 65//43 63//47
f 63//8 62//8 66//8
f 66//7 62//7 63//7
f 64//46 66//42 62//46
f 62//45 66//41 64//45
f 64//7 61//7 65//7
f 65//8 61//8 64//8
f 65//44 63//48 67//44
f 67//43 63//47 65//43
f 63//8 66//8 67//8
f 67//7 66//7 63//7
f 66//42 64//46 68//42
f 68//41 64//45 66//41
f 64//7 65//7 68//7
f 68//8 65//8 64//8
f 67//44 69//40 65//44
f 65//43 69//39 67//43
f 67//8 66//8 70//8
f 70//7 66//7 67//7
f 68//42 70//38 66//42
f 66//41 70//37 68//41
f 68//7 65//7 69//7
f 69//8 65//8 68//8
f 69//40 67//44 71//40
f 71//39 67//43 69//39
f 67//8 70//8 71//8
f 71//7 70//7 67//7
f 70//38 68//42 72//38
f 72//37 68//41 70//37
f 68//7 69//7 72//7
f 72//8 69//8 68//8
f 71//40 73//36 69//40
f 69//39 73//35 71//39
f 71//8 70//8 74//8
f 74//7 70//7 71//7
f 72//38 74//34 70//38
f 70//37 74//33 72//37
f 72//7 69//7 73//7
f 73//8 69//8 72//8
f 73//36 71//40 75//36
f 75//35 71//39 73//35
f 71//8 74//8 75//8
f 75//7 74//7 71//7
f 74//34 72//38 76//34
f 76//33 72//37 74//33
f 72//7 73//7 76//7
f 76//8 73//8 72//8
f 75//36 77//32 73//36
f 73//35 77//31 75//35
f 75//8 74//8 78//8
f 78//7 74//7 75//7
f 76//34 79//30 74//34
f 74//33 79//29 76//33
f 76//7 73//7 77//7
f 77//8 73//8 76//8
f 77//32 75//36 78//32
f 78//31 75//35 77//31
f 78//8 74//8 79//8
f 79//7 74//7 78//7
f 79//30 76//34 80//30
f 80//29 76//33 79//29
f 76//7 77//7 80//7
f 80//8 77//8 76//8
f 81//28 77//32 78//32
f 78//31 77//31 81//27
f 78//8 79//8 82//8
f 82//7 79//7 78//7
f 83//26 79//30 80//30
f 80//29 79//29 83//25
f 80//7 77//7 84//7
f 84//8 77//8 80//8
f 77//32 81//28 84//28
f 84//27 81//27 77//31
f 78//8 82//8 81//8
f 81//7 82//7 78//7
f 79//30 83//26 82//26
f 82//25 83//25 79//29
f 80//7 84//7 83//7
f 83//8 84//8 80//8
f 85//24 84//28 81//28
f 81//27 84//27 85//23
f 81//8 82//8 85//8
f 85//7 82//7 81//7
f 86//22 82//26 83//26
f 83//25 82//25 86//21
f 83//7 84//7 87//7
f 87//8 84//8 83//8
f 84//28 85//24 87//24
f 87//23 85//23 84//27
f 85//8 82//8 88//8
f 88//7 82//7 85//7
f 82//26 86//22 88//22
f 88//21 86//21 82//25
f 83//7 87//7 86//7
f 86//8 87//8 83//8
f 89//20 87//24 85//24
f 85//23 87//23 89//19
f 85//8 88//8 89//8
f 89//7 88//7 85//7
f 90//18 88//22 86//22
f 86//21 88//21 90//17
f 86//7 87//7 91//7
f 91//8 87//8 86//8
f 87//24 89//20 91//20
f 91//19 89//19 87//23
f 89//8 88//8 92//8
f 92//7 88//7 89//7
f 88//22 90//18 92//18
f 92//17 90//17 88//21
f 86//7 91//7 90//7
f 90//8 91//8 86//8
f 93//16 91//20 89//20
f 89//19 91//19 93//15
f 89//8 92//8 94//8
f 94//7 92//7 89//7
f 95//14 92//18 90//18
f 90//17 92//17 95//13
f 90//7 91//7 96//7
f 96//8 91//8 90//8
f 91//20 93//16 96//16
f 96//15 93//15 91//19
f 89//8 94//8 93//8
f 93//7 94//7 89//7
f 92//18 95//14 94//14
f 94//13 95//13 92//17
f 90//7 96//7 95//7
f 95//8 96//8 90//8
f 97//12 96//16 93//16
f 93//15 96//15 97//9
f 93//8 94//8 97//8
f 97//7 94//7 93//7
f 98//6 94//14 95//14
f 95//13 94//13 98//3
f 95//7 96//7 99//7
f 99//8 96//8 95//8
f 96//16 97//12 99//12
f 99//9 97//9 96//15
f 97//8 94//8 100//8
f 100//7 94//7 97//7
f 94//14 98//6 100//6
f 100//3 98//3 94//13
f 95//7 99//7 98//7
f 98//8 99//8 95//8
f 101//11 99//12 97//12
f 97//9 99//9 101//10
f 97//8 100//8 102//8
f 102//7 100//7 97//7
f 103//5 100//6 98//6
f 98//3 100//3 103//4
f 98//7 99//7 104//7
f 104//8 99//8 98//8
f 99//12 101//11 104//11
f 104//10 101//10 99//9
f 97//8 102//8 101//8
f 101//7 102//7 97//7
f 100//6 103//5 102//5
f 102//4 103//4 100//3
f 98//7 104//7 103//7
f 103//8 104//8 98//8
f 102//2 104//2 101//2
f 101//1 104//1 102//1
f 104//2 102//2 103//2
f 103//1 102//1 104//1
