# SSTK version 0.8.0
# 6
mtllib original-6.mtl
o Component_5_1/Component_5/mesh6/mesh6-geometry#mesh6-geometry
v 0.412955 -0.794186 -0.467819
v 0.412955 -0.790519 -0.474549
v 0.412381 -0.792353 -0.471184
v 0.414640 -0.795895 -0.464683
v 0.412955 0.044960 -0.019359
v 0.412381 0.043127 -0.015994
v 0.412955 0.041293 -0.012628
v 0.414640 -0.788811 -0.477685
v 0.414640 0.046669 -0.022495
v 0.414640 0.039585 -0.009492
v 0.417320 -0.797362 -0.461990
v 0.417320 -0.787344 -0.480378
v 0.417320 0.048136 -0.025188
v 0.417320 0.038118 -0.006800
v 0.420812 -0.798488 -0.459924
v 0.420812 0.036992 -0.004733
v 0.420812 -0.786218 -0.482445
v 0.420812 0.049262 -0.027254
v 0.424879 0.036284 -0.003434
v 0.424879 -0.799195 -0.458625
v 0.424879 -0.785510 -0.483744
v 0.424879 0.049969 -0.028553
v 0.429243 0.036043 -0.002991
v 0.429243 -0.799437 -0.458182
v 0.429243 0.050211 -0.028996
v 0.429243 -0.785269 -0.484187
v 0.433607 -0.799195 -0.458625
v 0.433607 0.049969 -0.028553
v 0.433607 0.036284 -0.003434
v 0.433607 -0.785510 -0.483744
v 0.437674 -0.798488 -0.459924
v 0.437674 0.049262 -0.027254
v 0.437674 0.036992 -0.004733
v 0.437674 -0.786218 -0.482445
v 0.441166 -0.797362 -0.461990
v 0.441166 0.038118 -0.006800
v 0.441166 0.048136 -0.025188
v 0.441166 -0.787344 -0.480378
v 0.443846 0.039585 -0.009492
v 0.443846 0.046669 -0.022495
v 0.443846 -0.795895 -0.464683
v 0.443846 -0.788811 -0.477685
v 0.445530 0.041293 -0.012628
v 0.445530 0.044960 -0.019359
v 0.445530 -0.790519 -0.474549
v 0.445530 -0.794186 -0.467819
v 0.446105 0.043127 -0.015994
v 0.446105 -0.792353 -0.471184
vn 0 0.8781279025892771 0.4784259469282129
vn 0 -0.8781279025892771 -0.4784259469282129
vn 0.8540022005445065 -0.5201331221423553 0.011907002796109773
vn 1 0 0
vn 0.9568647004525955 -0.13899895648624458 0.25512592013258806
vn -0.9568647004525955 0.13899895648624458 -0.25512592013258806
vn -1 0 0
vn -0.8540022005445065 0.5201331221423553 -0.011907002796109773
vn 0.8924237063475815 -0.39620986962696575 -0.21586492896954895
vn 0.9568647004525955 0.13899895648624458 -0.25512592013258806
vn -0.9568647004525955 -0.13899895648624458 0.25512592013258806
vn -0.8924237063475815 0.39620986962696575 0.21586492896954895
vn 0.8540022346508103 -0.272020074741878 -0.44349212185657316
vn 0.836759645652029 0.26197188906108493 -0.48083679637695953
vn -0.836759645652029 -0.26197188906108493 0.48083679637695953
vn -0.8540022346508103 0.272020074741878 0.44349212185657316
vn 0.7469661298989153 -0.629608109490119 0.21362403714965042
vn -0.7469661298989153 0.629608109490119 -0.21362403714965042
vn 0.746966348953628 -0.16188907562828 -0.6448513012494491
vn -0.746966348953628 0.16188907562828 0.6448513012494491
vn 0.836759645652029 -0.26197188906108493 0.48083679637695953
vn -0.836759645652029 0.26197188906108493 -0.48083679637695953
vn 0.6614750067701968 0.35880400367235915 -0.6585670067404333
vn -0.6614750067701968 -0.35880400367235915 0.6585670067404333
vn 0.5906347393455641 -0.7157496841307873 0.37262983555383183
vn -0.5906347393455641 0.7157496841307873 -0.37262983555383183
vn 0.5906347829172458 -0.07499297243697531 -0.8034467047000473
vn -0.5906347829172458 0.07499297243697531 0.8034467047000473
vn 0.6614750067701968 -0.35880400367235915 0.6585670067404333
vn -0.6614750067701968 0.35880400367235915 -0.6585670067404333
vn 0.40517806605841394 -0.014287002329288553 -0.9141261490350259
vn -0.40517806605841394 0.014287002329288553 0.9141261490350259
vn 0.4536829929112033 0.4263559933381878 -0.7825549877725783
vn -0.4536829929112033 -0.4263559933381878 0.7825549877725783
vn 0.4536829929112033 -0.4263559933381878 0.7825549877725783
vn -0.4536829929112033 0.4263559933381878 -0.7825549877725783
vn 0.4051781403038952 -0.7758312686525709 0.4836491674766116
vn -0.4051781403038952 0.7758312686525709 -0.4836491674766116
vn 0.2053471037925145 0.021018010623535352 -0.9784634945635199
vn -0.2053471037925145 -0.021018010623535352 0.9784634945635199
vn 0.22990105881352632 0.4656111191131176 -0.8546062186262453
vn -0.22990105881352632 -0.4656111191131176 0.8546062186262453
vn 0.22990105881352632 -0.4656111191131176 0.8546062186262453
vn -0.22990105881352632 0.4656111191131176 -0.8546062186262453
vn 0.20534697617780132 -0.8107469059456623 0.548198936403719
vn -0.20534697617780132 0.8107469059456623 -0.548198936403719
vn 0 0.03254800564375979 -0.9994701733061442
vn 0 -0.03254800564375979 0.9994701733061442
vn 0 -0.8221458569281352 0.569276900933019
vn 0 0.8221458569281352 -0.569276900933019
vn 0 0.4784259469282129 -0.8781279025892771
vn 0 -0.4784259469282129 0.8781279025892771
vn -0.20534697617780132 -0.8107469059456623 0.548198936403719
vn 0.20534697617780132 0.8107469059456623 -0.548198936403719
vn -0.2053471037925145 0.021018010623535352 -0.9784634945635199
vn 0.2053471037925145 -0.021018010623535352 0.9784634945635199
vn -0.4051781403038952 -0.7758312686525709 0.4836491674766116
vn 0.4051781403038952 0.7758312686525709 -0.4836491674766116
vn -0.40517806605841394 -0.014287002329288553 -0.9141261490350259
vn 0.40517806605841394 0.014287002329288553 0.9141261490350259
vn -0.5906347829172458 -0.07499297243697531 -0.8034467047000473
vn 0.5906347829172458 0.07499297243697531 0.8034467047000473
vn -0.5906347393455641 -0.7157496841307873 0.37262983555383183
vn 0.5906347393455641 0.7157496841307873 -0.37262983555383183
vn -0.746966348953628 -0.16188907562828 -0.6448513012494491
vn 0.746966348953628 0.16188907562828 0.6448513012494491
vn -0.7469661298989153 -0.629608109490119 0.21362403714965042
vn 0.7469661298989153 0.629608109490119 -0.21362403714965042
vn -0.8540022346508103 -0.272020074741878 -0.44349212185657316
vn 0.8540022346508103 0.272020074741878 0.44349212185657316
vn -0.8540022005445065 -0.5201331221423553 0.011907002796109773
vn 0.8540022005445065 0.5201331221423553 -0.011907002796109773
vn -0.8924237063475815 -0.39620986962696575 -0.21586492896954895
vn 0.8924237063475815 0.39620986962696575 0.21586492896954895
usemtl material_0_0
f 1//1 2//1 3//1
f 2//1 1//1 4//1
f 3//2 2//2 1//2
f 4//2 1//2 2//2
f 5//3 3//4 2//5
f 2//6 3//7 5//8
f 6//9 1//10 3//4
f 3//7 1//11 6//12
f 7//13 4//14 1//10
f 1//11 4//15 7//16
f 2//1 4//1 8//1
f 8//2 4//2 2//2
f 3//4 5//3 6//9
f 6//12 5//8 3//7
f 2//5 9//17 5//3
f 5//8 9//18 2//6
f 1//10 6//9 7//13
f 7//16 6//12 1//11
f 4//14 7//13 10//19
f 10//20 7//16 4//15
f 8//1 4//1 11//1
f 11//2 4//2 8//2
f 9//17 2//5 8//21
f 8//22 2//6 9//18
f 5//3 7//13 6//9
f 6//12 7//16 5//8
f 7//13 5//3 9//17
f 9//18 5//8 7//16
f 7//13 9//17 10//19
f 10//20 9//18 7//16
f 10//19 11//23 4//14
f 4//15 11//24 10//20
f 8//1 11//1 12//1
f 12//2 11//2 8//2
f 8//21 13//25 9//17
f 9//18 13//26 8//22
f 10//19 9//17 13//25
f 13//26 9//18 10//20
f 11//23 10//19 14//27
f 14//28 10//20 11//24
f 12//1 11//1 15//1
f 15//2 11//2 12//2
f 13//25 8//21 12//29
f 12//30 8//22 13//26
f 10//19 13//25 14//27
f 14//28 13//26 10//20
f 16//31 11//23 14//27
f 14//28 11//24 16//32
f 11//23 16//31 15//33
f 15//34 16//32 11//24
f 12//1 15//1 17//1
f 17//2 15//2 12//2
f 17//35 13//25 12//29
f 12//30 13//26 17//36
f 14//27 13//25 18//37
f 18//38 13//26 14//28
f 14//27 18//37 16//31
f 16//32 18//38 14//28
f 19//39 15//33 16//31
f 16//32 15//34 19//40
f 17//1 15//1 20//1
f 20//2 15//2 17//2
f 13//25 17//35 18//37
f 18//38 17//36 13//26
f 16//31 18//37 19//39
f 19//40 18//38 16//32
f 15//33 19//39 20//41
f 20//42 19//40 15//34
f 17//1 20//1 21//1
f 21//2 20//2 17//2
f 21//43 18//37 17//35
f 17//36 18//38 21//44
f 19//39 18//37 22//45
f 22//46 18//38 19//40
f 23//47 20//41 19//39
f 19//40 20//42 23//48
f 21//1 20//1 24//1
f 24//2 20//2 21//2
f 18//37 21//43 22//45
f 22//46 21//44 18//38
f 19//39 22//45 25//49
f 25//50 22//46 19//40
f 20//41 23//47 24//51
f 24//52 23//48 20//42
f 19//39 25//49 23//47
f 23//48 25//50 19//40
f 21//1 24//1 26//1
f 26//2 24//2 21//2
f 26//52 22//45 21//43
f 21//44 22//46 26//51
f 22//45 26//52 25//49
f 25//50 26//51 22//46
f 23//47 27//44 24//51
f 24//52 27//43 23//48
f 23//47 25//49 28//53
f 28//54 25//50 23//48
f 26//1 24//1 27//1
f 27//2 24//2 26//2
f 26//52 28//53 25//49
f 25//50 28//54 26//51
f 27//44 23//47 29//55
f 29//56 23//48 27//43
f 23//47 28//53 29//55
f 29//56 28//54 23//48
f 26//1 27//1 30//1
f 30//2 27//2 26//2
f 28//53 26//52 30//42
f 30//41 26//51 28//54
f 29//55 31//36 27//44
f 27//43 31//35 29//56
f 29//55 28//53 32//57
f 32//58 28//54 29//56
f 30//1 27//1 31//1
f 31//2 27//2 30//2
f 30//42 32//57 28//53
f 28//54 32//58 30//41
f 31//36 29//55 33//59
f 33//60 29//56 31//35
f 29//55 32//57 33//59
f 33//60 32//58 29//56
f 30//1 31//1 34//1
f 34//2 31//2 30//2
f 32//57 30//42 34//34
f 34//33 30//41 32//58
f 33//59 35//30 31//36
f 31//35 35//29 33//60
f 33//59 32//57 36//61
f 36//62 32//58 33//60
f 34//1 31//1 35//1
f 35//2 31//2 34//2
f 34//34 37//63 32//57
f 32//58 37//64 34//33
f 35//30 33//59 36//61
f 36//62 33//60 35//29
f 36//61 32//57 37//63
f 37//64 32//58 36//62
f 34//1 35//1 38//1
f 38//2 35//2 34//2
f 37//63 34//34 38//24
f 38//23 34//33 37//64
f 39//65 35//30 36//61
f 36//62 35//29 39//66
f 36//61 37//63 40//67
f 40//68 37//64 36//62
f 38//1 35//1 41//1
f 41//2 35//2 38//2
f 42//15 37//63 38//24
f 38//23 37//64 42//14
f 35//30 39//65 41//22
f 41//21 39//66 35//29
f 36//61 40//67 39//65
f 39//66 40//68 36//62
f 37//63 42//15 40//67
f 40//68 42//14 37//64
f 38//1 41//1 42//1
f 42//2 41//2 38//2
f 43//69 41//22 39//65
f 39//66 41//21 43//70
f 39//65 40//67 44//71
f 44//72 40//68 39//66
f 45//11 40//67 42//15
f 42//14 40//68 45//10
f 42//1 41//1 46//1
f 46//2 41//2 42//2
f 41//22 43//69 46//6
f 46//5 43//70 41//21
f 39//65 44//71 43//69
f 43//70 44//72 39//66
f 40//67 45//11 44//71
f 44//72 45//10 40//68
f 42//1 46//1 45//1
f 45//2 46//2 42//2
f 47//73 46//6 43//69
f 43//70 46//5 47//74
f 43//69 44//71 47//73
f 47//74 44//72 43//70
f 48//7 44//71 45//11
f 45//10 44//72 48//4
f 45//1 46//1 48//1
f 48//2 46//2 45//2
f 46//6 47//73 48//7
f 48//4 47//74 46//5
f 44//71 48//7 47//73
f 47//74 48//4 44//72
