# SSTK version 0.8.0
# 22
mtllib original-22.mtl
o BPc1_1_1/BPc1_1/mesh13/mesh13-geometry#mesh13-geometry
v 0.140938 0.471323 0.685488
v -0.403250 0.483528 0.676621
v -0.403250 0.471323 0.685488
v 0.140938 0.483528 0.676621
v 0.140938 0.459119 0.676621
v 0.140938 0.478866 0.662274
v -0.403250 0.459119 0.676621
v -0.403250 0.478866 0.662274
v -0.403250 0.463781 0.662274
v 0.140938 0.463781 0.662274
vn 0 0 1
vn 0 0.9510565608316643 0.3090168573056277
vn 0 -0.9510565608316643 0.3090168573056277
vn 0 0.5877850844899974 -0.8090171162905556
vn 0 -0.5877850844899974 -0.8090171162905556
vn 0 0 -1
vn 0 -0.9510565608316643 -0.3090168573056277
vn 0 0.9510565608316643 -0.3090168573056277
vn 0 -0.5877850844899974 0.8090171162905556
vn 0 0.5877850844899974 0.8090171162905556
usemtl material_0_0
f 1//1 2//2 3//1
f 2//2 1//1 4//2
f 3//1 5//3 1//1
f 6//4 2//2 4//2
f 5//3 3//1 7//3
f 2//2 6//4 8//4
f 9//5 5//3 7//3
f 10//5 8//4 6//4
f 5//3 9//5 10//5
f 8//4 10//5 9//5
usemtl material_1_0
f 3//6 2//7 1//6
f 4//7 1//6 2//7
f 1//6 5//8 3//6
f 4//7 2//7 6//9
f 7//8 3//6 5//8
f 8//9 6//9 2//7
f 7//8 5//8 9//10
f 6//9 8//9 10//10
f 10//10 9//10 5//8
f 9//10 10//10 8//9
